<svg width="24" height="24" viewBox="0 0 24 24" fill="none" xmlns="http://www.w3.org/2000/svg">
<path d="M11.7712 3.74349C14.1127 1.39991 17.9117 1.39991 20.2548 3.74305C22.5379 6.02612 22.5964 9.69133 20.4304 12.0453L20.2423 12.2426L11.4422 21.0408L11.4057 21.0711C9.94443 22.3879 7.69043 22.3431 6.28306 20.9357C4.96404 19.6167 4.84193 17.554 5.91671 16.0973C5.94005 16.052 5.9683 16.0082 6.00152 15.9671L6.05507 15.9074L6.14198 15.8197L6.28306 15.6718L6.28598 15.6747L13.7217 8.22038C13.9876 7.95376 14.4043 7.929 14.6982 8.14646L14.7824 8.21897C15.049 8.48488 15.0738 8.90151 14.8563 9.19541L14.7838 9.27963L7.18917 16.8927C6.47153 17.7683 6.52141 19.0626 7.33881 19.88C8.16787 20.7091 9.48752 20.7485 10.3633 19.9984L19.196 11.168C20.9515 9.41031 20.9515 6.56107 19.1941 4.80371C17.4917 3.10127 14.7646 3.04807 12.9981 4.64411L12.8302 4.80371L12.8176 4.81802L3.28131 14.3543C2.98841 14.6472 2.51354 14.6472 2.22065 14.3543C1.95438 14.0881 1.93017 13.6714 2.14803 13.3778L2.22065 13.2937L11.7695 3.74305L11.7712 3.74349Z" fill="#0000FF"/>
</svg>
