<svg width="105" height="51" fill="none" xmlns="http://www.w3.org/2000/svg"><path d="M32.431 15.489h6.664v2.168h-3.17v15.231h-3.493v-17.4zm10.615 10.867l.599-8.7h.2l.6 8.7h-1.399zm-3.869 6.532h3.42l.324-4.62h1.648l.325 4.62h3.42l-1.823-17.4H41l-1.822 17.4zm14.14-6.09v3.28c0 .443.344.571.544.571a.56.56 0 00.559-.57v-4.05c0-.543-.1-1.142-1.404-1.142h-1.418v-1.91h1.475c.989 0 1.347-.229 1.347-1.299v-3.451c0-.3-.23-.57-.559-.57-.2 0-.544.113-.544.57v2.838h-3.495v-2.467c0-1.212.143-3.11 2.592-3.11h2.894c2.45 0 2.607 1.898 2.607 3.11v2.78c0 1.898-1.332 2.411-2.378 2.368v.172c2.35-.058 2.378 1.74 2.378 2.353v3.508c0 1.227-.157 3.11-2.607 3.11h-2.894c-2.45 0-2.592-1.883-2.592-3.11V26.8h3.495zm6.89-11.31h8.094v17.4h-3.496V17.657h-1.103v15.231h-3.495v-17.4zm13.88 9.57v-7.401h.46c.372 0 .644.313.644.87v5.662c0 .556-.272.87-.645.87h-.458zm-3.494 7.83h3.495V26.97h2.005c2.435 0 2.593-1.883 2.593-3.11v-5.262c0-1.212-.158-3.11-2.593-3.11h-5.5v17.4zm14.983-2.81a.56.56 0 01-.558.571c-.201 0-.545-.128-.545-.57V18.227c0-.457.344-.57.544-.57.33 0 .56.27.56.57v11.852zm-4.598-.299c0 1.227.157 3.11 2.593 3.11h2.908c2.435 0 2.592-1.883 2.592-3.11V18.598c0-1.212-.157-3.11-2.592-3.11H83.57c-2.435 0-2.593 1.898-2.593 3.11v11.181zm19.467-14.29H105v17.4h-3.495V21.977h-.129l-1.805 10.91h-2.793l-1.79-10.91h-.13v10.91h-3.495v-17.4h4.541l2.278 12.238 2.263-12.237zM27.902 9.07C26.832 4.407 24.15.613 23.781 0c-.585.87-2.723 4.222-3.81 7.93-1.188 4.15-1.363 7.83-.953 11.438.407 3.622 1.944 7.345 1.944 7.345.816 1.94 2.04 4.036 2.836 5.063 1.167-1.512 3.85-6.019 4.687-11.895.466-3.28.486-6.146-.583-10.81zm-4.121 21.535c-.526-.984-1.342-2.852-1.42-5.762-.02-2.795 1.107-5.205 1.437-5.704.294.499 1.265 2.595 1.38 5.462.08 2.796-.854 5.006-1.397 6.005zm3.81-13.62c-.04 1.783-.253 3.665-.526 4.792.098-1.94-.136-4.663-.583-6.803-.447-2.125-1.711-5.69-2.721-7.33-.933 1.568-2.082 4.649-2.683 7.316-.605 2.667-.622 5.904-.622 6.874-.16-.813-.561-3.736-.448-6.66.094-2.41.661-4.906.972-6.047 1.186-3.808 2.529-6.247 2.78-6.632.253.385 1.943 3.394 2.82 6.546.872 3.152 1.048 6.176 1.011 7.944" fill="#0079C2"/><path d="M25.595 32.86H17.46v5.434c.008 0 .013-.015.02-.015a4.921 4.921 0 016.944 0c1.916 1.897 1.916 4.992 0 6.903-.009.014-.018.014-.026.029-.01 0-.02.014-.029.028a9.819 9.819 0 01-6.909 2.824c-2.51 0-5.019-.941-6.933-2.852-3.375-3.352-3.774-8.558-1.202-12.351a9.889 9.889 0 011.202-1.455c1.914-1.911 4.424-2.852 6.933-2.852V15.489C7.817 15.489 0 23.26 0 32.859c0 9.6 7.817 17.386 17.46 17.386a17.47 17.47 0 0012.744-5.505V32.86h-4.609zM105 37.972H32.431v12.273H105V37.972zm-6.275 8.568h.92v-1.853h-.92v1.853zm0-3.242h1.393l.933.463.23.463.23.927v.463c-.024 3.318-2.168 2.103-4.421 2.316v-7.642h1.635v3.01zm-12.102-3.01v1.389H85.46v6.253h-1.854v-6.253h-1.162v-1.39h4.179zM69.65 45.845h.23l.46-.231v-3.242h-.69v3.473zm-1.866-3.473h-.702v3.242l.472.231h.23v-3.473zm1.866-2.084v.694h1.163l.69.463.473.464.23.926v2.547l-.23.927-.473.463-.69.463H69.65v.694h-1.866v-.694h-1.163l-.702-.463-.46-.463-.23-.927v-2.547l.23-.926.46-.464.702-.463h1.163v-.694h1.866zm-15.123 0v1.389h-1.396v1.621h1.396v1.39h-1.396v1.852h1.628v1.39H51.27v-7.642h3.257zm-16.747 3.01h.93v-3.01h1.628v7.642H38.71v-3.243h-.93v3.243h-1.86v-7.642h1.86v3.01z" fill="#0079C2"/></svg>