<svg width="148" height="17" fill="none" xmlns="http://www.w3.org/2000/svg"><path fill-rule="evenodd" clip-rule="evenodd" d="M2.541.22h6.771c.831.075 1.632.538 2.08 1.254 2.112 3.796 4.222 7.593 6.333 11.389.166.322.527.52.884.505.417 0 .828-.28.962-.683.084-.24.052-.5.057-.75.006-3.904-.014-7.809-.009-11.714h4.928c-.002 4.521 0 9.043 0 13.564a2.872 2.872 0 01-.471 1.524 2.777 2.777 0 01-1.896 1.217 4.71 4.71 0 01-.872.03c-1.713-.007-3.427.01-5.141.004-.48.01-.973.04-1.441-.093-.371-.107-1.058-.437-1.257-.797-2.159-3.835-4.322-7.668-6.482-11.502-.146-.251-.317-.511-.586-.64a1.241 1.241 0 00-.957-.008c-.394.181-.545.653-.537 1.06.011 3.99-.017 7.977-.004 11.966L0 16.566V2.664C.23 1.345 1.188.34 2.541.22zm31.947 0h6.4c.688.105 1.35.438 1.798.984.242.274.396.61.568.931 2.544 4.804 5.086 9.61 7.632 14.412l-6.13.004c-1.933-4-3.881-7.992-5.818-11.99-.21-.405-.36-.878-.747-1.152a.922.922 0 00-1.023-.06c-.321.178-.513.51-.66.836-1.415 2.899-2.825 5.8-4.238 8.7-.6 1.217-1.18 2.446-1.79 3.656l-6.16.007c2.614-4.866 5.224-9.734 7.837-14.601.16-.311.336-.62.584-.87a2.817 2.817 0 011.747-.856zm15.424 0h4.919l.186 10.657c0 .978.912 1.291 1.711 1.455 1.66.306 3.487.166 5.186.192.951-.034 1.92-.056 2.832-.363.604-.208 1.064-.604 1.06-1.282l.19-10.485a.774.774 0 01.034-.173h4.892l-.11 11.621c-.007.702-.245 1.914-.58 2.51-1.042 2.294-7.506 2.192-10.186 2.193-2.54 0-5.075-.013-6.97-.489-1.54-.394-2.569-1.21-2.879-2.84-.31-1.729-.289-3.493-.285-5.244V.221zm24.699 0h5.932c.744.096 1.45.484 1.906 1.09.248.307.383.683.55 1.037 1.28 2.818 2.549 5.64 3.835 8.454 1.354-2.994 2.713-5.986 4.07-8.979A2.798 2.798 0 0193.17.221h6.138l-.072.03c.27.06.539.136.785.267a2.833 2.833 0 011.458 1.902c.085.376.062.763.065 1.146l.001 12.984-4.784.002c0-4.067.014-8.124.029-12.19.007-.325-.122-.662-.385-.858-.448-.367-1.206-.274-1.505.24-.165.314-.287.648-.433.97-1.46 3.37-2.919 6.737-4.376 10.106-.39.998-1.397 1.723-2.464 1.728-.581.01-1.164.041-1.744-.008-1.014-.07-1.943-.782-2.309-1.736-1.551-3.556-3.104-7.112-4.654-10.67-.091-.227-.196-.462-.395-.615-.455-.398-1.252-.283-1.552.252-.197.323-.125.714-.132 1.073l.013 11.707-4.773.005V3.174c-.02-.388.035-.779.173-1.141.36-.993 1.316-1.725 2.358-1.812zm30.564 0h17.156c-.02.206-.009.413-.009.619-.002 1.076 0 2.152-.002 3.228-4.551.003-9.101 0-13.651.001a.94.94 0 00-.757.366c-.27.35-.338.83-.234 1.255.077.32.273.63.579.767.249.124.534.08.802.086 4.42.002 8.84-.003 13.261.003 0 1.2.002 2.399 0 3.599-4.421.003-8.84 0-13.26 0-.279.005-.577-.032-.834.106-.298.15-.484.462-.556.782-.089.408-.024.862.224 1.201a.94.94 0 00.733.386c4.564.004 9.129-.006 13.693.005.002 1.307-.001 2.613.003 3.92l-16.836.005a2.611 2.611 0 01-1.348-.39 2.792 2.792 0 01-1.303-1.842c-.062-.306-.059-.619-.058-.929l-.001-9.818c-.001-.507-.012-1.033.173-1.513a2.808 2.808 0 011.349-1.534c.271-.154.579-.216.876-.302zm20.847 0h6.727c.824.063 1.624.512 2.083 1.21 2.076 3.718 4.139 7.443 6.21 11.164.113.2.206.428.399.568.351.283.889.27 1.244-.001.263-.186.412-.506.408-.827L143.111.22h4.879l.008 12.992c-.008.458.043.93-.113 1.37-.319 1.075-1.331 1.903-2.444 1.963-.449.049-.901-.002-1.351.019-1.64-.011-3.281.008-4.924-.01a2.76 2.76 0 01-1.607-.355c-.224-.145-.471-.284-.614-.518l-6.342-11.25c-.171-.312-.344-.647-.65-.846a1.005 1.005 0 00-1.125-.029.982.982 0 00-.445.804c0 4.063.002 8.126-.001 12.188l-4.92.006c-.002-4.432 0-8.863-.001-13.295-.02-.446.03-.9.209-1.31a2.81 2.81 0 012.352-1.73z" fill="#F48221"/></svg>