<svg width="156" height="37" fill="none" xmlns="http://www.w3.org/2000/svg"><path d="M58.083 14.419h-2.988v2.113h3.507v1.306h-5.063v-7.89h5.053v1.317h-3.497v1.88h2.988v1.274zm8.436 5.358h-1.437v-1.94h-4.555v1.935h-1.474l-.083-3.24h.57c.309-.267.546-.66.712-1.176.17-.52.283-1.163.342-1.929l.218-3.478h4.95v6.583h.881l-.124 3.245zm-5.193-3.245h2.879v-5.267H62.29l-.13 2.075c-.104 1.391-.382 2.455-.835 3.192zm10.666-6.583h1.561v7.889h-1.561v-5.24l-3.025 5.24h-1.556v-7.89h1.556V15.2l3.025-5.25zm9.058 7.889h-1.556v-3.381h-3.035v3.38h-1.557V9.95h1.557v3.197h3.035V9.948h1.556v7.889zm5.722-1.626h-2.729l-.518 1.626H81.87l2.812-7.89h1.442l2.827 7.89h-1.655l-.524-1.626zm-2.308-1.316h1.888l-.95-2.953-.938 2.953z" fill="#0F4C81"/><path d="M93.148 17.838v-2.845h-1.266l-1.364 2.845h-1.68l1.613-3.365c-.779-.448-1.168-1.143-1.168-2.086 0-.773.242-1.37.727-1.793.484-.423 1.16-.638 2.028-.645h2.672v7.889h-1.562zm-2.308-5.332c0 .44.102.76.306.96.207.198.517.297.928.297h1.074v-2.498h-1.074c-.823 0-1.234.414-1.234 1.241zm7.735-2.557h1.556v6.583h3.025V9.949h1.561v6.583h1.033l-.104 3.207h-1.453v-1.901h-5.618v-7.89zm12.658 0h1.562v7.889h-1.562v-5.24l-3.024 5.24h-1.556v-7.89h1.556V15.2l3.024-5.25zm7.347.704h.093c.591 0 1.126.137 1.603.412.481.27.854.657 1.121 1.16.266.502.399 1.072.399 1.712 0 .946-.29 1.719-.872 2.319-.577.6-1.359.899-2.344.899v1.008h-1.5v-1.008h-.098a3.274 3.274 0 01-1.619-.401 2.849 2.849 0 01-1.121-1.138c-.262-.487-.394-1.044-.394-1.669 0-.632.132-1.197.394-1.695a2.884 2.884 0 011.105-1.166 3.126 3.126 0 011.588-.433h.145v-1.03h1.5v1.03zm-1.598 1.35c-.516 0-.922.169-1.219.508-.294.34-.441.819-.441 1.436 0 .578.147 1.034.441 1.366.293.329.707.493 1.239.493h.078v-3.804h-.098zm1.598 0v3.803h.103c.509 0 .908-.166 1.199-.499.294-.336.441-.793.441-1.37 0-.604-.144-1.077-.431-1.42-.287-.343-.699-.515-1.235-.515h-.077zm5.794 3.055v2.78h-1.556v-7.89h2.947c.567 0 1.065.11 1.494.326.432.217.764.525.996.926.232.398.348.851.348 1.36 0 .773-.255 1.384-.763 1.832-.505.444-1.205.666-2.101.666h-1.365zm0-1.316h1.391c.411 0 .724-.102.939-.304.218-.202.327-.491.327-.867 0-.386-.109-.699-.327-.937-.218-.239-.519-.361-.903-.369h-1.427v2.476zm11.507.33c0 .777-.131 1.458-.394 2.043-.263.585-.64 1.036-1.131 1.354-.488.318-1.048.477-1.681.477a3.045 3.045 0 01-1.676-.471c-.491-.315-.871-.763-1.141-1.344-.27-.585-.406-1.257-.41-2.016v-.39c0-.776.133-1.46.4-2.048.269-.592.648-1.046 1.136-1.36a3.024 3.024 0 011.681-.477c.629 0 1.188.16 1.675.477.492.314.87.768 1.137 1.36.269.589.404 1.27.404 2.043v.352zm-1.577-.358c0-.827-.142-1.455-.425-1.885-.284-.43-.689-.645-1.214-.645-.522 0-.925.213-1.209.64-.284.422-.427 1.043-.431 1.863v.385c0 .806.142 1.43.426 1.875.283.444.692.666 1.224.666.522 0 .924-.213 1.204-.64.28-.429.422-1.054.425-1.874v-.385zm2.708 4.124v-7.89h2.646c.917 0 1.612.185 2.086.553.473.365.71.902.71 1.61 0 .386-.095.727-.285 1.024-.19.292-.455.507-.794.644.388.102.692.306.913.613.225.307.338.682.338 1.127 0 .758-.232 1.333-.696 1.723-.463.39-1.124.588-1.981.596h-2.937zm1.557-3.436v2.13h1.333c.367 0 .652-.09.856-.271.207-.184.311-.437.311-.759 0-.722-.358-1.089-1.074-1.1h-1.426zm0-1.148h1.151c.785-.015 1.178-.341 1.178-.98 0-.358-.1-.615-.301-.77-.197-.16-.51-.239-.939-.239h-1.089v1.989zm9.494 2.958h-2.729l-.519 1.626h-1.655l2.812-7.89h1.442l2.827 7.89h-1.654l-.524-1.626zm-2.309-1.316h1.888l-.949-2.953-.939 2.953z" fill="#0F4C81"/><path d="M154.438 17.838v-2.845h-1.265l-1.365 2.845h-1.681l1.614-3.365c-.778-.448-1.168-1.143-1.168-2.086 0-.773.243-1.37.727-1.793.484-.423 1.16-.638 2.028-.645H156v7.889h-1.562zm-2.308-5.332c0 .44.102.76.306.96.207.198.517.297.929.297h1.073v-2.498h-1.073c-.824 0-1.235.414-1.235 1.241zM58.045 28.762h-1.146V23.79H54.68v4.973h-1.142v-5.97h4.507v5.97zm5.511-5.969v5.97H62.41v-4.974h-1.477l-.091 2.107c-.038.71-.122 1.271-.251 1.681-.13.407-.319.707-.567.898-.249.189-.589.284-1.02.287h-.297v-.988l.19-.02c.287-.042.491-.22.613-.534.124-.316.203-.88.236-1.689l.095-2.738h3.715zm4.194 4.739h-2.002l-.38 1.23h-1.215l2.063-5.97h1.058l2.074 5.97h-1.214l-.384-1.23zm-1.694-.996h1.385l-.696-2.235-.689 2.235zm7.524-2.747h-1.697v4.973H70.74V23.79h-1.675v-.996h4.514v.996zm3.909-.463h.068c.434 0 .826.103 1.176.311a2.1 2.1 0 01.822.878c.196.38.293.811.293 1.295 0 .716-.213 1.301-.639 1.755-.424.454-.997.68-1.72.68v.763h-1.1v-.762h-.072c-.44 0-.835-.102-1.188-.304a2.123 2.123 0 01-.822-.86 2.686 2.686 0 01-.29-1.264c0-.478.097-.906.29-1.283a2.15 2.15 0 01.81-.881 2.239 2.239 0 011.165-.328h.107v-.78h1.1v.78zm-1.172 1.02c-.378 0-.677.129-.895.386-.215.257-.323.619-.323 1.086 0 .438.108.782.323 1.034.216.248.52.373.91.373h.057v-2.879h-.072zm1.172 0v2.879h.076c.373 0 .666-.126.88-.378.215-.254.323-.6.323-1.037 0-.456-.106-.814-.316-1.074-.21-.26-.513-.39-.906-.39h-.057zm7.661 1.567c0 .587-.096 1.102-.29 1.545a2.29 2.29 0 01-.829 1.025c-.358.24-.769.361-1.233.361-.46 0-.869-.119-1.23-.357a2.323 2.323 0 01-.837-1.016c-.197-.443-.298-.952-.3-1.526v-.295c0-.587.097-1.104.293-1.55.198-.448.476-.79.833-1.029.36-.24.772-.36 1.233-.36.462 0 .872.12 1.23.36.36.238.638.581.833 1.03.198.445.297.96.297 1.545v.267zm-1.157-.271c0-.626-.104-1.101-.312-1.427a.997.997 0 00-.89-.488.996.996 0 00-.887.484c-.208.32-.314.79-.316 1.41v.292c0 .61.104 1.082.312 1.418a.996.996 0 00.898.505.987.987 0 00.883-.484c.206-.326.31-.798.312-1.419v-.291zm3.128 1.017v2.103H85.98v-5.97h2.161c.417 0 .782.083 1.096.247.318.164.561.397.731.7.17.301.255.644.255 1.03 0 .585-.186 1.047-.56 1.386-.37.336-.883.504-1.54.504H87.12zm0-.996h1.02c.302 0 .532-.077.69-.23.16-.153.24-.372.24-.656 0-.293-.08-.529-.24-.71-.16-.18-.381-.273-.663-.278h-1.047v1.873zm5.382-2.87l1.423 4.33 1.416-4.33h1.5v5.97h-1.146V27.13l.114-2.816-1.495 4.448h-.784l-1.492-4.444.114 2.812v1.632H91.01v-5.97h1.492zm8.533 4.739h-2.002l-.38 1.23h-1.215l2.063-5.97h1.058l2.074 5.97h-1.214l-.384-1.23zm-1.694-.996h1.385l-.696-2.235-.689 2.235zm6.638.242c.033.385.138.663.315.832.178.167.436.25.773.25.373 0 .65-.132.83-.398.18-.267.284-.662.312-1.184h-1.751v-.997h1.747c-.03-.533-.142-.928-.335-1.185-.19-.26-.463-.39-.818-.39-.345 0-.604.09-.777.267-.172.175-.272.458-.3.849h-1.142c.056-.653.277-1.168.662-1.546.388-.377.907-.565 1.557-.565.462 0 .866.117 1.214.352.35.233.619.567.807 1.005.187.434.281.941.281 1.52v.39c0 .88-.204 1.579-.612 2.095-.406.514-.965.771-1.675.771-.655 0-1.18-.186-1.576-.558-.393-.374-.611-.877-.654-1.508h1.142zm5.99-.455h-.658v2.44h-1.142v-5.97h1.142v2.39h.521l1.355-2.39h1.393l-1.709 2.824 1.888 3.145h-1.363l-1.427-2.44zm7.459.451c-.043.642-.263 1.148-.662 1.517-.396.369-.918.553-1.568.553-.71 0-1.27-.257-1.678-.77-.406-.517-.609-1.225-.609-2.125v-.364c0-.574.094-1.08.282-1.517.187-.438.455-.773.803-1.005.35-.235.756-.352 1.217-.352.64 0 1.155.184 1.546.553.39.37.616.887.677 1.554h-1.142c-.028-.385-.128-.664-.3-.836-.17-.175-.43-.263-.781-.263-.38 0-.666.148-.856.443-.188.292-.284.748-.289 1.365v.451c0 .645.09 1.117.27 1.415.183.298.47.447.86.447.353 0 .616-.087.788-.259.175-.175.275-.444.301-.807h1.141zm5.264 1.988h-1.146V23.79h-2.218v4.973h-1.142v-5.97h4.506v5.97zm4.339-2.587h-2.192v1.599h2.572v.988h-3.714v-5.97h3.707v.997h-2.565v1.422h2.192v.964zm2.192.484v2.103h-1.142v-5.97h2.162c.416 0 .781.083 1.096.247.317.164.561.397.731.7.17.301.255.644.255 1.03 0 .585-.187 1.047-.56 1.386-.37.336-.884.504-1.541.504h-1.001zm0-.996h1.02c.302 0 .531-.077.689-.23.16-.153.239-.372.239-.656 0-.293-.079-.529-.239-.71-.16-.18-.381-.273-.663-.278h-1.046v1.873zm8.061-1.874h-1.698v4.973h-1.141V23.79h-1.675v-.996h4.514v.996zm3.977-.996h1.145v5.97h-1.145v-3.966l-2.219 3.965h-1.142v-5.97h1.142v3.973l2.219-3.972zm4.868 1.644a.638.638 0 00-.248-.533c-.165-.131-.383-.197-.654-.197a.936.936 0 00-.609.197.616.616 0 00-.24.504h-1.142c0-.323.084-.612.251-.87.17-.259.41-.461.72-.606a2.392 2.392 0 011.02-.217c.639 0 1.14.147 1.503.442.363.296.544.714.544 1.255 0 .265-.075.511-.224.738a1.568 1.568 0 01-.632.545c.304.115.538.29.7.525.162.233.244.522.244.87 0 .535-.196.962-.586 1.279-.389.314-.905.471-1.549.471-.404 0-.767-.074-1.089-.221a1.71 1.71 0 01-.734-.611 1.646 1.646 0 01-.248-.902h1.15c0 .213.086.392.258.537.173.142.394.213.663.213.304 0 .544-.074.719-.221a.7.7 0 00.266-.562c0-.312-.078-.534-.236-.668-.157-.137-.387-.205-.689-.205h-.681v-.964h.704c.546-.008.819-.275.819-.8zm3.238.508h.891c.652 0 1.168.17 1.549.512.383.34.575.797.575 1.374 0 .58-.191 1.046-.571 1.398-.378.35-.882.528-1.511.533h-2.082v-5.97h1.149v2.153zM156 28.762h-1.142v-5.97H156v5.97zm-4.632-2.825v1.837h.91c.292 0 .524-.086.696-.258.175-.172.263-.403.263-.693 0-.27-.084-.484-.251-.64-.165-.158-.392-.24-.681-.246h-.937z" fill="#0F4C81"/><path fill-rule="evenodd" clip-rule="evenodd" d="M22.372.393l8.089 4.55v5.95l-1.385.043V5.752l-6.681-3.758-6.242 3.745v5.139l-1.385.043V4.955L22.372.393zm5.034 13.335l-5.011 2.819-3.764-2.259-.693 1.2 4.434 2.66 5.688-3.2-.654-1.22zM7.604 9.624L0 14.186v8.63l7.604 4.563 4.979-2.8-.655-1.221-4.301 2.42-6.242-3.745V14.97l6.242-3.745 6.68 3.758v5.155l1.385-.044v-5.92l-8.088-4.55zm30.461 0l-7.604 4.562v5.043l1.384-.044V14.97l6.242-3.745 6.681 3.758v7.036l-6.68 3.758-4.16-2.496-.693 1.2 4.83 2.898 8.088-4.55v-8.656l-8.088-4.55zm-15.693 9.23l8.089 4.55v8.656l-8.088 4.55-7.605-4.563v-8.63l7.604-4.563zm.023 1.602L16.153 24.2v7.062l6.242 3.745 6.681-3.758v-7.036l-6.681-3.758z" fill="#0F4C81"/><path fill-rule="evenodd" clip-rule="evenodd" d="M7.622 18.198l7.151-4.022.453.804-7.15 4.022v7.576h-.923v-7.585l-6.699-4.02.475-.79 6.693 4.015zm14.77-9.231l7.15-4.022.453.805-7.15 4.021v7.576h-.922V9.763l-6.7-4.02.475-.791 6.694 4.015zm15.692 9.231l7.15-4.022.453.804-7.15 4.022v7.576h-.922v-7.585l-6.7-4.02.476-.79 6.693 4.015zm-15.692 9.231l7.15-4.022.453.804-7.15 4.022v7.576h-.922v-7.585l-6.7-4.02.475-.79 6.694 4.015z" fill="#0F4C81"/><path fill-rule="evenodd" clip-rule="evenodd" d="M19.374 11.752l-5.077 2.77-.442-.81 5.077-2.77.442.81zm14.308 9.231l-5.077 2.77-.442-.81 5.077-2.77.442.81zm-21.674-.337l4.937 3.012-.48.788-4.937-3.012.48-.788zM27.7 11.415l4.937 3.012-.48.788-4.937-3.012.48-.788z" fill="#0F4C81"/></svg>