<svg width="99" height="65" fill="none" xmlns="http://www.w3.org/2000/svg"><path fill-rule="evenodd" clip-rule="evenodd" d="M49.498 10.296l.27-.075C36.37 14.407 25.771 21.576 25.553 26.843c-.233 5.637 11.515 6.958 26.233 2.954 14.72-4.003 26.844-11.822 27.076-17.459.12-2.92-2.98-4.681-8.04-5.145 6.186.279 10.06 2.094 10.06 5.334 0 6.176-14.054 15.193-31.385 20.139-17.331 4.946-31.386 3.944-31.386-2.232s14.055-15.193 31.386-20.137" fill="#3C3E40"/><path fill-rule="evenodd" clip-rule="evenodd" d="M24.922 42.77L68.432.72l-3.945 33.056-7.194-8.293L24.922 42.77z" fill="#ED1941"/><path d="M7.68 56.81c0 1.777-1.27 3.493-3.468 3.493h-2.23v3.492H-.002V53.318h3.716c2.71 0 3.965 1.465 3.965 3.493zm-1.983 0c0-.982-.773-1.496-1.733-1.496H1.98v2.993h1.983c.96 0 1.733-.624 1.733-1.496zm14.189 1.745a5.52 5.52 0 01-.918 3.05 5.46 5.46 0 01-2.446 2.022 5.418 5.418 0 01-3.15.313 5.44 5.44 0 01-2.792-1.502 5.523 5.523 0 01-1.183-5.982 5.48 5.48 0 012.008-2.463 5.426 5.426 0 013.03-.925 5.443 5.443 0 013.851 1.61 5.516 5.516 0 011.6 3.877zm-1.982 0c0-.691-.204-1.366-.585-1.94a3.474 3.474 0 00-1.557-1.286 3.447 3.447 0 00-3.78.757 3.514 3.514 0 00-.752 3.805 3.488 3.488 0 001.277 1.568 3.453 3.453 0 004.383-.432 3.487 3.487 0 001.014-2.472zm11.506 2.418l.758 1.81a5.214 5.214 0 01-3.376 1.263c-3.051 0-5.544-2.465-5.544-5.489 0-3.025 2.493-5.487 5.544-5.487 1.161 0 2.494.436 3.376 1.247l-.759 1.809a3.675 3.675 0 00-2.586-1.06c-1.982 0-3.593 1.558-3.593 3.491s1.611 3.493 3.593 3.493a3.565 3.565 0 002.587-1.077zm11.75 2.822h-2.51l-3.934-4.584v4.584h-1.982V53.318h1.982v4.335l3.687-4.335h2.51l-4.463 5.004 4.71 5.473zm11.315-5.24c0 1.085-.32 2.147-.918 3.05a5.46 5.46 0 01-2.447 2.022 5.418 5.418 0 01-3.15.313 5.44 5.44 0 01-2.792-1.502 5.5 5.5 0 01-1.493-2.81 5.523 5.523 0 01.31-3.172 5.481 5.481 0 012.01-2.464 5.427 5.427 0 013.029-.924 5.442 5.442 0 013.851 1.61 5.515 5.515 0 011.6 3.877zm-1.982 0a3.51 3.51 0 00-.585-1.94 3.474 3.474 0 00-1.557-1.286 3.447 3.447 0 00-3.78.758 3.514 3.514 0 00-.752 3.806 3.488 3.488 0 001.278 1.567 3.453 3.453 0 004.382-.434 3.486 3.486 0 001.013-2.471zm11.505 2.418l.76 1.808a5.215 5.215 0 01-3.376 1.263c-3.051 0-5.544-2.464-5.544-5.488 0-3.025 2.492-5.487 5.544-5.487 1.161 0 2.492.436 3.375 1.247l-.759 1.809a3.675 3.675 0 00-2.585-1.06c-1.982 0-3.593 1.558-3.593 3.49 0 1.934 1.61 3.494 3.593 3.494a3.565 3.565 0 002.585-1.076zm14.754 2.822h-2.107l-.867-6.86-2.724 6.86h-.991l-2.726-6.86-.868 6.86h-2.106l1.487-10.477h1.982l2.726 6.736 2.726-6.736h1.982l1.486 10.477zm11.963-5.24a5.514 5.514 0 01-.918 3.05 5.46 5.46 0 01-2.447 2.022 5.418 5.418 0 01-5.942-1.189 5.5 5.5 0 01-1.492-2.81 5.523 5.523 0 01.31-3.172 5.48 5.48 0 012.008-2.463 5.426 5.426 0 013.029-.925 5.44 5.44 0 013.852 1.61 5.514 5.514 0 011.6 3.877zm-1.982 0a3.51 3.51 0 00-.586-1.94 3.474 3.474 0 00-1.557-1.286 3.447 3.447 0 00-3.78.758 3.514 3.514 0 00-.751 3.806 3.488 3.488 0 001.277 1.567 3.453 3.453 0 004.383-.433 3.488 3.488 0 001.014-2.472zm11.507 2.418L99 62.78a5.216 5.216 0 01-3.377 1.263c-3.05 0-5.544-2.464-5.544-5.488 0-3.025 2.493-5.487 5.544-5.487 1.162 0 2.493.436 3.376 1.247l-.759 1.809a3.675 3.675 0 00-2.586-1.06c-1.982 0-3.593 1.558-3.593 3.49 0 1.934 1.611 3.494 3.593 3.494a3.566 3.566 0 002.586-1.076z" fill="#3C3E40"/></svg>