<svg width="152" height="15" fill="none" xmlns="http://www.w3.org/2000/svg"><g clip-path="url(#clip0)" fill="#fff"><path d="M11.048 12.051V.245H8.946v9.886H2.103V.245H0v11.806h11.039v2.95h2.083v-2.95h-2.074zM22.34.245l-4.867 9.886h-.643V.245h-2.102v11.806h4.098l4.857-9.886h.613v9.886H26.4V.245h-4.06zm97.867 0l-4.858 9.886h-.642V.245h-2.103v11.806h4.098l4.858-9.886h.613v9.886h2.103V.245h-4.069zm15.292 11.806h2.56l-5.247-6.27 2.512-3.616h1.927V.245h-3.095l-3.261 4.762h-1.811V.245h-2.102v11.806h2.102V6.927h2.074l4.341 5.124zM111.057.225h-10.825v1.92h4.361v9.886h2.103V2.146h4.361V.226zM43.453 3.92l-2.92-2.695h-3.504v-.98h-2.054v.98H31.47l-2.88 2.694v4.154l2.92 2.694h3.504v1.264h2.102v-1.254h3.505l2.92-2.694V3.919h-.088zM32.405 8.817L30.692 7.24V4.771l1.713-1.606h2.57v5.653h-2.57zM41.36 7.21l-1.723 1.607h-2.56V3.165h2.56L41.36 4.77v2.44zm14.416-4.506L52.856.225 45.75.205v11.826h2.103V8.818h5.071l2.92-2.47V2.705h-.068zm-2.141 2.783l-1.567 1.371h-4.244V2.146h4.244l1.567 1.371v1.97zm16.353-2.793L67.165 0h-6.609l-2.92 2.694v6.859l2.92 2.694h6.61l2.92-2.694V2.694h-.098zm-2.16 6.036l-1.724 1.606H61.56L59.845 8.73V3.527L61.56 1.96h4.545l1.723 1.568V8.73zM81.883.225l-2.492 6.8h-.613l-2.492-6.8H72.13v11.806h2.103V2.146h.593l2.482 6.8 3.65-.01 2.493-6.79h.593v9.885h2.103V.225h-4.264zm69.882 10.151h-2.103v1.88h2.103v-1.88zm-2.103-1.754V2.44L147.17.225h-6.95v1.96h6.016l1.324 1.136v1.666h-6.415l-2.414 2.126v3.018l2.414 2.126h5.587l2.969-2.224-.039-1.411zm-3.894 1.714h-3.698l-1.246-1.185V8.093l1.246-1.186h5.499v2.097l-1.801 1.332zm-44.874.04h-2.102v1.88h2.102v-1.88zM98.792 2.44L96.309.225h-6.95v1.96h6.035l1.314 1.136v1.666h-6.463l-2.424 2.126v3.018l2.424 2.126h5.587l2.92-2.224.04-7.593zm-3.894 7.896h-3.709l-1.246-1.185V8.093l1.246-1.186h5.51v2.097l-1.801 1.332z"/></g><defs><clipPath id="clip0"><path fill="#fff" d="M0 0h151.765v15H0z"/></clipPath></defs></svg>