<svg width="1440" height="750" fill="none" xmlns="http://www.w3.org/2000/svg"><g opacity=".3" filter="url(#filter0_f)" fill="#fff"><path d="M950.035 587.7a12.122 12.122 0 00-8.525 14.842 12.17 12.17 0 0011.658 8.987 11.363 11.363 0 003.184-.462 12.12 12.12 0 10-6.317-23.367zm2.31-12.325a11.508 11.508 0 006.009-1.644 12.277 12.277 0 009.09 4.109 10.947 10.947 0 003.133-.411 12.113 12.113 0 008.576-14.842 12.066 12.066 0 00-10.128-8.854 12.074 12.074 0 00-4.714.329c-1.012.273-1.98.688-2.876 1.233a12.013 12.013 0 00-12.222-3.749 12.168 12.168 0 00-7.344 5.649 12.023 12.023 0 00-1.233 9.193 12.225 12.225 0 0011.709 8.987zM780.51 740.638a12.117 12.117 0 00-4.862 20.821 12.12 12.12 0 007.994 3.007 13.092 13.092 0 003.133-.411 12.118 12.118 0 008.576-14.841 12.122 12.122 0 00-14.841-8.576zm6.161-50.894a12.03 12.03 0 00-7.395 5.649 12.17 12.17 0 00-1.181 9.193c.157.507.346 1.005.565 1.489a12.067 12.067 0 00-.045 19.586 12.076 12.076 0 007.132 2.292 10.94 10.94 0 003.132-.411 12.121 12.121 0 008.577-14.842c0-.514-.36-.976-.565-1.489a12.019 12.019 0 004.571-12.942 12.064 12.064 0 00-5.63-7.327 12.063 12.063 0 00-9.161-1.198zm260.939-198.13a12.11 12.11 0 00-5.71 4.094 12.108 12.108 0 00-.89 13.419 12.11 12.11 0 005.11 4.815 12.133 12.133 0 006.93 1.167 12.065 12.065 0 006.41-2.873 12.077 12.077 0 003.74-5.947c.64-2.308.57-4.752-.18-7.023a12.211 12.211 0 00-2.36-4.128 12.024 12.024 0 00-3.75-2.906 12.156 12.156 0 00-4.59-1.238c-1.6-.106-3.2.104-4.71.62zm-816.607 220.47a11.817 11.817 0 009.244-.36 11.86 11.86 0 006.316-6.779 12.12 12.12 0 00-16.382-15.407 12.33 12.33 0 00-6.317 6.831 12.17 12.17 0 007.139 15.406v.309zm458.813 5.135a11.81 11.81 0 007.498 2.619h1.387a11.88 11.88 0 004.518-1.432 11.877 11.877 0 003.596-3.087 12.072 12.072 0 002.568-8.885 12.122 12.122 0 00-24.086 2.722 11.862 11.862 0 004.519 8.063zm124.331-90.437a12.217 12.217 0 00-1.181 9.193 13.32 13.32 0 001.078 2.619l-1.797.308a12.123 12.123 0 00-8.888 13.289 12.116 12.116 0 0012.02 10.54 13.092 13.092 0 003.133-.411 12.112 12.112 0 007.362-5.644 12.104 12.104 0 001.214-9.197c-.26-.935-.64-1.833-1.129-2.671h1.848a11.82 11.82 0 007.344-5.649 12.122 12.122 0 00-13.609-17.769 12.429 12.429 0 00-7.395 5.392zm-17.667 59.624a11.204 11.204 0 003.133-.411 12.116 12.116 0 008.345-7.824 12.128 12.128 0 00-6.511-14.937 12.105 12.105 0 00-5.805-1.037 12.12 12.12 0 00-11.284 12.134 12.119 12.119 0 0012.122 12.075zm6.111-91.105a11.813 11.813 0 006.009 1.592 11.303 11.303 0 003.184-.411 12.118 12.118 0 008.525-14.842 12.066 12.066 0 00-10.128-8.854 12.074 12.074 0 00-4.714.329 12.121 12.121 0 00-2.876 22.186zm84.687 14.071a13.41 13.41 0 003.133-.411 12.119 12.119 0 10-3.133.411zm-59.523 60.189a12.172 12.172 0 0011.709 8.988c.833-.02 1.661-.14 2.465-.36a12.068 12.068 0 0011.298 7.96 12.789 12.789 0 003.133-.41 12.134 12.134 0 007.362-5.645 12.104 12.104 0 001.214-9.197 38.358 38.358 0 01-19.412-14.945 12.122 12.122 0 00-17.769 13.609z"/><path d="M929.389 642.702a11.968 11.968 0 00-6.727 4.777c.178-1.53.073-3.079-.308-4.571a12.175 12.175 0 00-14.842-8.577 13.121 13.121 0 00-3.903 1.901c.205-1.495.1-3.016-.308-4.468a12.175 12.175 0 00-14.842-8.577 11.809 11.809 0 00-3.082 1.387c.008-.937-.113-1.87-.359-2.773a12.086 12.086 0 00-2.09-4.239 12.079 12.079 0 00-8.038-4.616 12.057 12.057 0 00-4.714.33 12.061 12.061 0 00-8.837 10.09c-.206 1.572-.1 3.169.312 4.7.285 1.09.735 2.129 1.335 3.081a11.972 11.972 0 00-13.558 5.598 12.179 12.179 0 00.052 12.108 12.168 12.168 0 0010.476 6.072c.042 1.061.214 2.114.514 3.133a12.172 12.172 0 0011.504 8.319 12.116 12.116 0 009.075-3.249 12.126 12.126 0 000-17.689 12.117 12.117 0 00-9.075-3.25 10.258 10.258 0 00-.411-2.465 11.902 11.902 0 00-1.284-2.979c.977.224 1.976.344 2.979.36a10.945 10.945 0 003.132-.411 11.952 11.952 0 003.082-1.335c.039.919.177 1.831.41 2.721a12.118 12.118 0 0011.658 8.988 12.79 12.79 0 003.133-.411 13.167 13.167 0 003.903-1.9 11.805 11.805 0 005.136 11.246 12.118 12.118 0 00-.771 8.269c.28 1.034.713 2.021 1.284 2.927a12.117 12.117 0 00-3.954 6.317 12.07 12.07 0 00-17.718 8.628 12.107 12.107 0 00-4.7-3.961 12.108 12.108 0 00-6.039-1.146 12.106 12.106 0 00-5.824 1.964 12.109 12.109 0 00-5.454 10.567 12.115 12.115 0 006.205 10.143 12.12 12.12 0 005.952 1.537 12.066 12.066 0 0011.914-10.271 11.704 11.704 0 009.86 5.135 10.912 10.912 0 003.133-.411 12.17 12.17 0 008.576-8.73 11.912 11.912 0 005.804 1.489 10.95 10.95 0 003.133-.41 12.122 12.122 0 008.576-14.791 14.107 14.107 0 00-1.284-2.979 11.662 11.662 0 002.722-3.184c.438-.778.782-1.606 1.027-2.465h.257a12.155 12.155 0 006.06 1.592 10.905 10.905 0 003.132-.411 12.002 12.002 0 007.396-5.649 12.119 12.119 0 00-13.661-17.717l.051.256z"/><path d="M948.236 626.628a12.117 12.117 0 00-8.525 14.841 12.17 12.17 0 0011.658 8.988 13.618 13.618 0 003.184-.411 12.128 12.128 0 00-6.317-23.418zm256.374-63.014c.8-1.374 1.32-2.894 1.53-4.472.22-1.578.11-3.183-.3-4.72a12.126 12.126 0 00-10.12-8.861c-2.37-.313-4.78.083-6.93 1.139a12.108 12.108 0 00-5.14 4.795 12.244 12.244 0 00-1.54 4.472 12.12 12.12 0 00.31 4.72c.7 2.574 2.22 4.848 4.34 6.471a12.14 12.14 0 007.37 2.516 13.02 13.02 0 003.13-.41 11.81 11.81 0 004.25-2.075 11.857 11.857 0 003.1-3.575zm9.55-32.457a11.992 11.992 0 006.06 1.592c1.06.016 2.11-.123 3.13-.411a11.809 11.809 0 004.25-2.074 11.825 11.825 0 003.09-3.575 12.066 12.066 0 001.55-4.472c.21-1.578.1-3.183-.31-4.72a12.535 12.535 0 00-5.65-7.344 12.027 12.027 0 00-9.2-1.181 11.889 11.889 0 00-4.25 2.074 11.825 11.825 0 00-3.09 3.575 11.873 11.873 0 00-1.54 4.472c-.21 1.578-.11 3.183.31 4.72a12.458 12.458 0 005.65 7.344zm-36.98-83.812c-.12-.209-.2-.434-.26-.668.61.57 1.28 1.069 2.01 1.49a12.062 12.062 0 006.06 1.643c1.05-.01 2.1-.148 3.13-.411a12.16 12.16 0 007.34-5.649 11.885 11.885 0 001.54-4.472 11.93 11.93 0 00-.31-4.72 12.07 12.07 0 00-2.09-4.243 11.987 11.987 0 00-3.55-3.12 12.14 12.14 0 00-9.2-1.214c-.98.277-1.93.674-2.82 1.181v-.565a12.047 12.047 0 00-5.65-7.348 12.07 12.07 0 00-9.19-1.177 11.256 11.256 0 00-4.68 2.517 12.12 12.12 0 00-6.53-5.44 12.146 12.146 0 00-8.51.194 12.175 12.175 0 00-6.28 5.733 12.181 12.181 0 00-.97 8.449c.7 2.574 2.23 4.847 4.34 6.471a12.185 12.185 0 007.37 2.516 13.17 13.17 0 003.14-.411 11.206 11.206 0 004.67-2.516c.9 1.588 2.15 2.956 3.65 4.005a12.004 12.004 0 00-4.94 4.248 12.021 12.021 0 00-2.01 6.194c-.09 2.211.43 4.403 1.5 6.339a12.056 12.056 0 004.57 4.635c1.83 1.05 3.9 1.6 6.01 1.592 1.08.019 2.15-.12 3.19-.411a12.21 12.21 0 007.28-5.684 12.199 12.199 0 001.19-9.158zm-4.01-7.087v.565c0 .205 0 .462.26.668-.34-.303-.7-.577-1.08-.822l.82-.411zm48.28 132.292a12.13 12.13 0 00-4.26 2.079 12.18 12.18 0 00-3.12 3.555c-.8 1.38-1.32 2.904-1.52 4.484-.21 1.581-.1 3.186.32 4.724.68 2.569 2.2 4.839 4.31 6.456a12.007 12.007 0 007.35 2.48c1.08.019 2.15-.12 3.18-.411 1.63-.328 3.17-.985 4.52-1.93a12.109 12.109 0 003.39-3.566 12.298 12.298 0 001.69-4.616c.24-1.638.14-3.308-.29-4.907a12.126 12.126 0 00-10.69-8.939c-1.65-.138-3.31.063-4.88.591zm-113.91 6.522c1.06-.01 2.11-.148 3.13-.411a12.178 12.178 0 004.25-2.09 12.214 12.214 0 003.12-3.554c.79-1.378 1.31-2.9 1.52-4.478.21-1.578.1-3.182-.31-4.719-.4-1.542-1.1-2.987-2.07-4.249a11.916 11.916 0 00-3.58-3.095 11.97 11.97 0 00-9.19-1.233 12.337 12.337 0 00-7.35 5.649c-.79 1.378-1.31 2.9-1.51 4.478a12.18 12.18 0 0011.99 13.702zm11.2 127.875a11.932 11.932 0 00-4.47-1.543 11.94 11.94 0 00-4.72.311c-3.1.841-5.74 2.876-7.33 5.658a12.127 12.127 0 00-1.2 9.183 12.176 12.176 0 0011.66 8.988c1.07-.011 2.14-.149 3.18-.411a12.495 12.495 0 007.35-5.649 12.24 12.24 0 001.18-9.193 11.866 11.866 0 00-5.65-7.344zm98.55-212.561c1.08.019 2.15-.119 3.19-.411a12.233 12.233 0 004.24-2.089 12.231 12.231 0 003.12-3.555c.79-1.378 1.31-2.9 1.52-4.478.21-1.578.1-3.182-.31-4.719a12.46 12.46 0 00-5.65-7.344 12.214 12.214 0 00-9.19-1.181 11.809 11.809 0 00-4.25 2.074 11.825 11.825 0 00-3.09 3.575 12.043 12.043 0 00-.07 12.01 12.096 12.096 0 004.35 4.436 12.101 12.101 0 005.99 1.682h.15zm-25.17-31.48a11.806 11.806 0 00-4.44-1.542 11.907 11.907 0 00-4.7.309 12.047 12.047 0 00-7.39 5.649 12.193 12.193 0 00-1.18 9.193c.4 1.541 1.1 2.987 2.07 4.249a11.81 11.81 0 003.58 3.095 11.985 11.985 0 006 1.643c1.08-.01 2.15-.148 3.19-.411a12.313 12.313 0 007.34-5.649c.8-1.378 1.31-2.9 1.52-4.478.2-1.578.09-3.18-.34-4.715a11.69 11.69 0 00-2.07-4.249 11.794 11.794 0 00-3.58-3.094zm-11.75-149.908a12.145 12.145 0 006.06 1.592c1.05.015 2.11-.123 3.13-.411 1.62-.328 3.16-.984 4.52-1.93a12.13 12.13 0 005.07-8.182c.24-1.638.14-3.308-.28-4.907a12.286 12.286 0 00-2.21-4.391 12.238 12.238 0 00-3.77-3.152 12.133 12.133 0 00-9.6-.805 11.89 11.89 0 00-4.25 2.075 11.81 11.81 0 00-3.09 3.574 11.885 11.885 0 00-1.54 4.472c-.22 1.579-.11 3.184.31 4.721a12.46 12.46 0 005.65 7.344zm-540.986 394.72a12.171 12.171 0 00-7.344 5.649 12.015 12.015 0 00-1.181 8.988 12.173 12.173 0 0011.709 8.987 13.092 13.092 0 003.133-.411 12.12 12.12 0 002.927-22.186 12.034 12.034 0 00-9.244-1.027zm-11.916-59.983a12.38 12.38 0 006.009 1.592 13.513 13.513 0 003.184-.411 12.068 12.068 0 10-9.577-21.874 12.068 12.068 0 00.384 20.693zm-137.735 111.34a13.516 13.516 0 003.133-.411 12.123 12.123 0 007.84-14.626 12.123 12.123 0 00-14.106-8.741 12.067 12.067 0 00-9.049 13.287 12.067 12.067 0 0012.182 10.491zM339.57 748.803a12.74 12.74 0 006.061 1.592 13.084 13.084 0 003.132-.411 11.82 11.82 0 007.344-5.649 12.03 12.03 0 001.233-9.193 12.119 12.119 0 00-5.645-7.362 12.114 12.114 0 00-13.44.876 12.11 12.11 0 00-4.641 8.032 12.114 12.114 0 00.307 4.719 12.436 12.436 0 005.649 7.396zm849.22-224.784c1.2-2.07 1.77-4.453 1.61-6.844a12.07 12.07 0 00-15.22-10.874 12.149 12.149 0 00-6.95 4.971 12.166 12.166 0 00-1.94 8.318 12.117 12.117 0 004.03 7.533 12.11 12.11 0 007.99 3.007c1.06-.006 2.12-.162 3.13-.462a11.922 11.922 0 004.25-2.081 12.02 12.02 0 003.1-3.568zm245.58 32.714c1.06.015 2.11-.123 3.13-.411a12.041 12.041 0 006.57-4.519c.92.25 1.88.371 2.83.359 1.31.022 2.61-.187 3.85-.616a11.826 11.826 0 006.99-6.06 12.05 12.05 0 001.21-6.934 12.053 12.053 0 00-8.81-10.181 12.075 12.075 0 00-7.04.219 10.818 10.818 0 01-5.23 4.092 10.82 10.82 0 01-6.63.273 11.732 11.732 0 00-4.25 2.075 11.717 11.717 0 00-3.1 3.574 11.885 11.885 0 00-1.54 4.472c-.21 1.579-.11 3.184.31 4.721a12.156 12.156 0 004.35 6.44 12.16 12.16 0 007.36 2.496zm7.6-41.958a11.88 11.88 0 006.01 1.643c1.08-.002 2.15-.158 3.18-.462 3.09-.829 5.73-2.84 7.35-5.598a12.423 12.423 0 001.59-6.419c.99-.036 1.97-.174 2.93-.411a11.89 11.89 0 004.25-2.075 11.81 11.81 0 003.09-3.574 11.89 11.89 0 001.54-4.473c.21-1.578.11-3.182-.31-4.72a12.088 12.088 0 00-3.71-5.962 12.127 12.127 0 00-13.34-1.76 12.147 12.147 0 00-5.13 4.795 12.41 12.41 0 00-1.59 6.471c-1.88-.018-3.73.406-5.41 1.237a11.96 11.96 0 00-4.25 3.548 11.933 11.933 0 00-2.2 5.09c-.32 1.846-.2 3.741.35 5.531a11.95 11.95 0 005.65 7.139zm-133.22 30.248a11.963 11.963 0 00-4.33-2.449c-1.6-.506-3.29-.674-4.96-.491-1.66.183-3.27.711-4.73 1.551-1.45.84-2.71 1.974-3.7 3.329a12.106 12.106 0 00-2.08 9.52c.33 1.644 1.01 3.2 1.98 4.57a12.071 12.071 0 003.65 3.383 12.532 12.532 0 006.01 1.592c1.07-.011 2.14-.148 3.18-.411a11.93 11.93 0 004.91-2.678 12.068 12.068 0 003.16-4.615c.65.616 1.37 1.151 2.15 1.592a11.817 11.817 0 006.01 1.592c1.06.016 2.12-.122 3.13-.41a12.01 12.01 0 007.4-5.649 12.193 12.193 0 001.18-9.193 12.072 12.072 0 00-4.08-6.22 12.147 12.147 0 00-6.95-2.662c-2.54-.136-5.06.529-7.2 1.902a12.158 12.158 0 00-4.73 5.747zm12.64 24.446c-1.71.424-3.3 1.221-4.65 2.334a11.835 11.835 0 00-4.35 9.177c0 1.756.39 3.49 1.14 5.077-.44.496-.83 1.029-1.18 1.592a11.884 11.884 0 00-1.54 4.473c-.21 1.578-.11 3.182.31 4.72a12.148 12.148 0 004.33 6.471 12.185 12.185 0 007.37 2.516 13.17 13.17 0 003.14-.411 12.047 12.047 0 007.39-5.649 12.193 12.193 0 001.18-9.193c-.17-.601-.39-1.185-.66-1.746.43-.517.83-1.067 1.18-1.643a12.126 12.126 0 001.56-6.846 12.083 12.083 0 00-2.49-6.565 12.126 12.126 0 00-5.71-4.081 12.128 12.128 0 00-7.02-.226zm-98.76-127.978a12.137 12.137 0 00-7.33 5.659 12.077 12.077 0 00-1.19 9.183 12 12 0 0011.65 8.935 11.34 11.34 0 003.19-.41 12.22 12.22 0 004.24-2.091 12.184 12.184 0 003.11-3.558 12.092 12.092 0 001.17-9.193 12.077 12.077 0 00-14.84-8.525z"/><path d="M1229.82 474.82c.7 2.574 2.22 4.848 4.34 6.471a12.14 12.14 0 007.37 2.516 13.02 13.02 0 003.13-.41 12.145 12.145 0 007.3-5.587 12.165 12.165 0 001.28-9.101h1.38c1.01-.123 2-.382 2.93-.77a11.829 11.829 0 00-.97 8.576 12.41 12.41 0 005.65 7.395 12.11 12.11 0 004.57 1.438l-.62.873a9.32 9.32 0 00-.87 1.952 12.39 12.39 0 00-4.27-4.211 12.106 12.106 0 00-9.19-1.188c-3.1.837-5.74 2.872-7.34 5.656a11.913 11.913 0 00-1.18 9.192 12.144 12.144 0 004.33 6.471 12.191 12.191 0 007.38 2.516 13.52 13.52 0 003.13-.41 12.441 12.441 0 004.11-2.055 12.002 12.002 0 004.46 5.393 12.27 12.27 0 00-6.16 5.135 12.15 12.15 0 00-1.19 9.193 12.148 12.148 0 005.66 7.344 11.81 11.81 0 006.01 1.592 11.27 11.27 0 003.18-.411 12.048 12.048 0 007.35-5.648 12.083 12.083 0 001.51-4.479c.2-1.578.09-3.18-.33-4.715a11.802 11.802 0 00-5.14-6.881 12.417 12.417 0 003.49-2.055 11.92 11.92 0 0010.84 7.447 11.934 11.934 0 00-.29 5.539 11.916 11.916 0 002.22 5.081 12.027 12.027 0 009.68 4.787c1.05.015 2.11-.123 3.13-.411a12.14 12.14 0 007.34-5.655 12.19 12.19 0 001.24-9.187 12.364 12.364 0 00-5.65-7.344 11.737 11.737 0 00-5.81-1.541c.62-2.147.62-4.425 0-6.573a11.997 11.997 0 00-2.07-4.235 12.036 12.036 0 00-3.55-3.11 11.977 11.977 0 00-4.46-1.508 12.044 12.044 0 00-4.71.328h-.51c.06-1.159-.07-2.319-.36-3.441a12.206 12.206 0 00-3.8-5.97 12.236 12.236 0 00-6.47-2.863 12.053 12.053 0 002.15-6.921c0-2.474-.77-4.885-2.19-6.908a12.124 12.124 0 00-5.76-4.402c-2.33-.843-4.86-.95-7.25-.309l-1.13.411a12.114 12.114 0 00-3.23-14.944 13.496 13.496 0 00-2.72-1.592 12.176 12.176 0 005.57-5.86 12.145 12.145 0 00.64-8.058 12.106 12.106 0 00-3.72-5.962 12.11 12.11 0 00-18.46 3.035 11.89 11.89 0 00-1.54 4.473c-.21 1.578-.11 3.182.3 4.72a11.874 11.874 0 005.65 7.344c.42.24.87.43 1.34.565a11.914 11.914 0 00-5.27 5.023 11.993 11.993 0 00-1.36 7.148c.08.553.18 1.101.31 1.643-1.05-.007-2.11.114-3.13.36a12.049 12.049 0 00-4.21 2.196 11.992 11.992 0 00-3.05 3.64 12.091 12.091 0 00-1.43 4.531c-.17 1.589-.03 3.197.42 4.731zM269.264 714.857c1.346.507 2.772.768 4.211.77 1.77.018 3.522-.35 5.135-1.079a12.727 12.727 0 004.006-2.978 12.028 12.028 0 007.036 2.311h1.386a12.07 12.07 0 001.284-23.778 11.708 11.708 0 000-7.138 12.123 12.123 0 10-23.007 7.652c.191.509.414 1.007.668 1.489-.436.131-.865.285-1.284.462a11.867 11.867 0 00-6.317 6.779 12.118 12.118 0 006.882 15.51zm6.265-69.536a11.821 11.821 0 005.393 1.336 12.646 12.646 0 003.851-.668 12.116 12.116 0 008.189-10.669 12.119 12.119 0 00-13.631-12.827 12.117 12.117 0 00-10.152 8.82 12.121 12.121 0 00.188 7.024 11.92 11.92 0 006.162 6.984zm708.349-49.147a12.117 12.117 0 00-17.123 7.603 12.118 12.118 0 00.176 7.033 12.225 12.225 0 006.06 7.036 12.84 12.84 0 005.443 1.284 12.124 12.124 0 0011.808-9.324 12.12 12.12 0 00-6.364-13.632zm4.11-54.232a12.122 12.122 0 00-1.592 22.34 11.803 11.803 0 005.443 1.284c1.292 0 2.575-.208 3.801-.616a12.15 12.15 0 004.111-2.34 12.148 12.148 0 002.899-3.735 12.116 12.116 0 001.26-4.561 12.25 12.25 0 00-.59-4.694 12.283 12.283 0 00-2.34-4.111 12.128 12.128 0 00-12.992-3.567zm289.952 57.93a12.127 12.127 0 00-9.11-.453c-2.97 1.04-5.43 3.2-6.84 6.022a12.103 12.103 0 00-.71 9.09 12.099 12.099 0 005.82 7.013c1.69.857 3.56 1.298 5.45 1.284 1.29 0 2.57-.208 3.8-.617a12.13 12.13 0 008.26-10.638 12.1 12.1 0 00-1.56-6.862 12.16 12.16 0 00-5.11-4.839zm71.18 146.312a12.127 12.127 0 00-4.13 2.352 12.194 12.194 0 00-2.9 3.758 12.033 12.033 0 00-1.24 4.586c-.11 1.596.1 3.197.62 4.711.8 2.415 2.35 4.518 4.41 6.01 2.06 1.493 4.54 2.3 7.09 2.309a12.47 12.47 0 003.8-.616 12.14 12.14 0 007.02-6.075 12.143 12.143 0 00.66-9.255 12.133 12.133 0 00-6.08-7.014 12.117 12.117 0 00-9.25-.664v-.102z"/><path d="M1382.96 779.565a12.15 12.15 0 005.52-1.33c1.7-.873 3.18-2.138 4.3-3.692a12.253 12.253 0 002.16-5.246c.29-1.895.13-3.832-.47-5.653v-.256a12.162 12.162 0 0019.1-3.441c.53-1.158.89-2.386 1.08-3.647 1.19-.025 2.37-.233 3.49-.616a12.094 12.094 0 004.14-2.341 12.09 12.09 0 002.93-3.755 12.25 12.25 0 001.25-4.592c.11-1.598-.1-3.202-.62-4.719a11.884 11.884 0 00-3.69-5.135 12.108 12.108 0 005.58-5.881c1.14-2.544 1.36-5.4.63-8.088a12.174 12.174 0 00-5.6-7.344 13.08 13.08 0 00-3.59-1.335c.01-1.058-.13-2.113-.41-3.133a12.146 12.146 0 00-3.73-5.948 12.133 12.133 0 00-6.41-2.881c-2.37-.308-4.78.093-6.92 1.153a12.12 12.12 0 00-5.13 4.8 11.87 11.87 0 00-1.54 5.906 12.628 12.628 0 00-5.13 0c.56-2.085.56-4.283 0-6.368a11.874 11.874 0 00-5.65-7.344 11.983 11.983 0 00-9.2-1.232 12.972 12.972 0 00-3.69 1.797 12.674 12.674 0 00-2.83-2.362 12.214 12.214 0 00-9.19-1.181 22.072 22.072 0 00-7.26 7.791 22.183 22.183 0 00-2.76 10.286 12.128 12.128 0 0012.02 10.733h.77c0 1.021.12 2.039.36 3.03.02.154.02.309 0 .462a12.07 12.07 0 00-.06 12.011 12.096 12.096 0 004.35 4.436 12.075 12.075 0 005.98 1.682c1.3.018 2.58-.191 3.8-.616 2.47-.812 4.6-2.403 6.09-4.533a11.954 11.954 0 002.13-7.279c.63.505 1.32.936 2.05 1.284 1.67.851 3.52 1.291 5.4 1.284 1.31-.004 2.6-.212 3.85-.617.85-.27 1.66-.65 2.41-1.129a11.819 11.819 0 005.45 3.081c-1 1.555-1.65 3.307-1.9 5.136-1.17-.006-2.33.167-3.45.513a12.074 12.074 0 00-8.33 10.685c-.1 1.6.11 3.205.63 4.722v.359a12.131 12.131 0 00-10.96-3.054 12.116 12.116 0 00-8.66 7.378 12.14 12.14 0 00-.78 5.812c.23 1.972.93 3.858 2.05 5.495a12.172 12.172 0 004.38 3.893c1.76.919 3.72 1.392 5.7 1.378l.36-.359zm-721.903 12.684a12.22 12.22 0 008.165 3.185 12.482 12.482 0 003.8-.617 12.017 12.017 0 006.523-5.135 12.023 12.023 0 005.135 1.232h1.387a11.975 11.975 0 008.114-4.468c2-2.524 2.922-5.735 2.568-8.936a11.966 11.966 0 00-4.16-7.703 9.661 9.661 0 001.746-.462 11.87 11.87 0 005.598-3.852 12.12 12.12 0 009.398 4.519 12.45 12.45 0 003.8-.616 12.12 12.12 0 007.652-15.406 11.92 11.92 0 00-6.06-7.036 12.212 12.212 0 00-6.984-1.181 12.278 12.278 0 001.418-12.961 12.276 12.276 0 00-17.566-5.05 12.27 12.27 0 00-5.683 11.734 12.286 12.286 0 002.572 6.277 9.609 9.609 0 00-1.746.41 12.119 12.119 0 00-7.703 15.407 11.614 11.614 0 003.646 5.136c-.93.189-1.842.464-2.722.821a10.665 10.665 0 00-.308-1.232 12.111 12.111 0 00-7.087-7.447c.247-1.85.053-3.733-.565-5.495a12.118 12.118 0 00-15.406-7.395c-1.101.42-2.137.991-3.082 1.695a12.218 12.218 0 00-7.189-6.882 12.078 12.078 0 00-9.252.521 12.091 12.091 0 00-3.769 2.848 12.078 12.078 0 00-2.386 4.078 11.455 11.455 0 00-.565 5.135h-1.541a11.969 11.969 0 00-8.217 4.93 12.124 12.124 0 003.048 17.821 12.13 12.13 0 006.453 1.849h1.335a10.286 10.286 0 003.287-.925c-.12 1.647.072 3.303.565 4.879a12.324 12.324 0 003.133 5.136 12.068 12.068 0 00-1.027 9.808c.265.687.574 1.356.924 2.003a12.067 12.067 0 007.395 21.672 11.203 11.203 0 003.133-.41 12.122 12.122 0 008.525-14.842c-.26-.935-.64-1.833-1.13-2.671a12.166 12.166 0 004.828-10.374zm427.223-297.297a12.131 12.131 0 001.55-6.847 12.237 12.237 0 00-2.49-6.561 12.195 12.195 0 00-5.7-4.095c-2.26-.775-4.7-.868-7.02-.266a12.144 12.144 0 00-7.33 5.659 12.122 12.122 0 00-1.19 9.183 12 12 0 005.13 6.984 12.065 12.065 0 00-2.5 20.454c2.17 1.72 4.87 2.64 7.64 2.605 1.07.019 2.15-.12 3.18-.411a11.825 11.825 0 007.35-5.649 12.089 12.089 0 001.47-4.568c.17-1.607.02-3.232-.45-4.779a12.337 12.337 0 00-5.13-6.933 11.99 11.99 0 005.49-4.776zm12.02 19.926a12.22 12.22 0 004.35 6.461c2.11 1.622 4.7 2.51 7.36 2.527 1.06-.007 2.11-.145 3.14-.411 3.1-.855 5.75-2.88 7.39-5.649a12.195 12.195 0 001.18-9.193c-.4-1.542-1.1-2.987-2.07-4.249a11.797 11.797 0 00-3.58-3.095 11.952 11.952 0 00-9.19-1.232c-3.1.842-5.74 2.875-7.34 5.655a12.187 12.187 0 00-1.24 9.186zm-59.88-.565a12.027 12.027 0 00-9.19-1.182 12.082 12.082 0 00-4.24 2.09 11.945 11.945 0 00-3.12 3.555c-.8 1.378-1.32 2.9-1.53 4.478-.2 1.578-.1 3.181.31 4.719a12.271 12.271 0 005.65 7.344 12.019 12.019 0 006.06 1.592c1.06.016 2.11-.123 3.13-.411a11.809 11.809 0 004.25-2.074 11.857 11.857 0 003.1-3.575 12.05 12.05 0 001.54-4.472c.21-1.578.11-3.183-.31-4.72a12.326 12.326 0 00-5.65-7.344zm-61.473 20.748a12.171 12.171 0 007.344-5.649 12.03 12.03 0 001.233-9.193 12.171 12.171 0 00-14.842-8.576l-.77.308a10.575 10.575 0 00-1.952-5.136 8.82 8.82 0 001.284-1.797 12.03 12.03 0 001.233-9.193 12.123 12.123 0 00-14.842-8.576 12.12 12.12 0 00-8.577 14.842c.358 1.26.913 2.456 1.644 3.543-.469.569-.898 1.17-1.284 1.798a12.168 12.168 0 00-1.181 9.192 11.96 11.96 0 003.287 5.547 12.066 12.066 0 00-6.812 16.951 12.069 12.069 0 004.706 4.926 11.803 11.803 0 006.009 1.592 11.054 11.054 0 003.184-.41 12.023 12.023 0 008.833-12.993 12.38 12.38 0 008.371 3.389c1.063-.06 2.115-.25 3.132-.565zm39.293-25.781a12.232 12.232 0 00-5.65-7.344 12.056 12.056 0 00-9.2-1.233 12.187 12.187 0 00-7.34 5.65 12.115 12.115 0 00-.057 12.023 12.125 12.125 0 0010.327 6.157c1.08-.007 2.14-.145 3.19-.411 1.54-.401 3-1.103 4.27-2.066a12.145 12.145 0 003.17-3.546 12.16 12.16 0 001.56-4.487 12.23 12.23 0 00-.27-4.743zm42.11 77.753c-3.1.836-5.74 2.867-7.35 5.649-.79 1.378-1.31 2.9-1.51 4.478a12.177 12.177 0 0011.99 13.702 13.5 13.5 0 003.18-.411 12.146 12.146 0 007.36-5.663 12.132 12.132 0 001.19-9.205 12.09 12.09 0 00-5.66-7.354 12.117 12.117 0 00-9.2-1.196zm240.96 4.211c.8-1.373 1.33-2.894 1.54-4.472.21-1.579.11-3.184-.31-4.721a12.329 12.329 0 00-5.65-7.344 12.221 12.221 0 00-9.21-1.171 12.21 12.21 0 00-7.38 5.639 12.12 12.12 0 00-1.59 6.054 12.1 12.1 0 001.64 6.041 12.058 12.058 0 004.43 4.418 12.138 12.138 0 006.05 1.616c1.06.015 2.11-.123 3.13-.411a11.825 11.825 0 007.35-5.649zm-35.64-30.3a12.111 12.111 0 007.06-5.292 12.083 12.083 0 001.6-8.681 12.1 12.1 0 00-4.71-7.464 12.11 12.11 0 00-8.52-2.289c.34-1.995.17-4.044-.49-5.959a12.067 12.067 0 00-3.27-5.003 12.11 12.11 0 00-11.24-2.802 12.082 12.082 0 00-4.24 2.09 11.945 11.945 0 00-3.12 3.555c-.8 1.378-1.32 2.9-1.52 4.478-.21 1.578-.11 3.182.3 4.719a11.866 11.866 0 005.65 7.344 9.554 9.554 0 007.45 1.438c-.38 1.69-.38 3.445 0 5.136a12.106 12.106 0 004.33 6.481 12.103 12.103 0 007.38 2.506c1.12.054 2.24-.033 3.34-.257zm-260.28-229.971c.88 3.082 2.9 5.711 5.65 7.344a12.2 12.2 0 006.06 1.592c1.06.015 2.12-.123 3.14-.411a12.068 12.068 0 007.28-5.505 12.04 12.04 0 001.34-9.029 11.973 11.973 0 004.76-3.674 11.96 11.96 0 002.38-5.519 11.493 11.493 0 003.39 5.495 11.97 11.97 0 00-.51 7.498c-.97-.004-1.94.117-2.88.36a12.144 12.144 0 00-7.33 5.659 12.077 12.077 0 00-1.19 9.183 12.156 12.156 0 0011.66 8.987 13.5 13.5 0 003.18-.411 12.207 12.207 0 007.26-5.607 12.266 12.266 0 001.32-9.081c1.18-.03 2.36-.237 3.49-.616a11.706 11.706 0 004.62-2.876c.93.224 1.87.345 2.82.36 1.06.012 2.12-.127 3.14-.411h.25c.46.484.96.931 1.49 1.335-.79.762-1.48 1.625-2.05 2.568a12.553 12.553 0 00-1.28 3.287 12.116 12.116 0 00-7.66 14.533 12.22 12.22 0 004.34 6.394 12.205 12.205 0 007.32 2.491c1.07-.01 2.14-.148 3.19-.411a12.104 12.104 0 008.31-7.909 12.088 12.088 0 004.24 3.742c1.68.893 3.56 1.371 5.47 1.394 1.06.015 2.11-.123 3.13-.411a11.746 11.746 0 004.25-2.074 11.857 11.857 0 003.1-3.575 11.398 11.398 0 001.54-4.417c.98.305 2 .461 3.03.462h.36c.02.084.02.173 0 .257a12.152 12.152 0 0011.5 8.269c1.99.002 3.94-.489 5.69-1.431a12.037 12.037 0 004.33-3.962h1.23c1.29 0 2.57-.208 3.8-.616a12.045 12.045 0 004.15-2.33 11.929 11.929 0 002.93-3.757 12.085 12.085 0 001.25-4.598c.11-1.6-.11-3.205-.63-4.722a12.339 12.339 0 00-2.62-4.365c1.6-1.157 2.9-2.67 3.8-4.417a12.151 12.151 0 001.31-6.431 12.181 12.181 0 00-2.23-6.173 12.18 12.18 0 00-5.1-4.121 12.192 12.192 0 00-6.51-.872c-2.2.31-4.28 1.221-6.01 2.631a12.16 12.16 0 00-4.2 11.918c.45 2.181 1.5 4.195 3.02 5.822a11.607 11.607 0 00-2.92 3.03 8.745 8.745 0 00-1.65 0 12.106 12.106 0 00-3.87-5.774 12.093 12.093 0 00-6.4-2.7c.38-1.422.5-2.901.36-4.365a12.12 12.12 0 00-1.94-5.357 12.029 12.029 0 00-4.2-3.858 12.003 12.003 0 00-11.06-.286c.56-2.162.5-4.441-.18-6.569a11.733 11.733 0 00-3.68-5.448 12.063 12.063 0 00-2.57-16.621 12.046 12.046 0 00-8.76-2.342 12.05 12.05 0 00-7.92 4.429 16.394 16.394 0 00-18.72-8.081 16.38 16.38 0 00-12.1 16.4 12.453 12.453 0 005.65 7.396h.41c-1.24.95-2.29 2.136-3.08 3.492a13.944 13.944 0 00-1.44 4.16v-.36a12.067 12.067 0 00-14.92-8.294 12.066 12.066 0 00-7.23 5.742 12.043 12.043 0 00-1.06 9.177 12.163 12.163 0 00-6.21 5.87 12.163 12.163 0 00-.83 8.51zm-57.462 32.148c1.827 1.051 3.9 1.6 6.008 1.592 1.076.019 2.149-.12 3.184-.411a11.82 11.82 0 007.344-5.649 11.973 11.973 0 001.233-9.193 12.124 12.124 0 00-13.689-8.784 12.113 12.113 0 00-9.051 6.958 12.12 12.12 0 004.971 15.487zM888.356 531.26a12.23 12.23 0 006.06 1.643 13.092 13.092 0 003.133-.411 12.12 12.12 0 002.927-22.185 12.023 12.023 0 00-9.193-1.233 12.173 12.173 0 00-7.343 5.649 12.006 12.006 0 00-1.233 9.193 12.174 12.174 0 005.649 7.344zm109.902-223.244a13.057 13.057 0 003.132-.41c3.1-.843 5.74-2.876 7.35-5.655 1.6-2.78 2.04-6.082 1.23-9.187a12.158 12.158 0 00-5.65-7.344 12.096 12.096 0 00-4.474-1.539 12.123 12.123 0 00-13.608 13.595 12.114 12.114 0 004.026 7.533 12.114 12.114 0 007.994 3.007zm62.292-57.467a12.074 12.074 0 00-4.23 2.092 12.048 12.048 0 00-3.11 3.557 11.86 11.86 0 00-1.23 9.09 11.98 11.98 0 002.08 4.267c.97 1.27 2.18 2.333 3.57 3.128a11.755 11.755 0 006 1.592 11.34 11.34 0 003.19-.41c2.95-.968 5.41-3.03 6.88-5.761a12.088 12.088 0 001.04-8.918 12.12 12.12 0 00-5.39-7.182 12.11 12.11 0 00-8.85-1.506l.05.051zm68.46 202.291a11.994 11.994 0 00-9.19-1.233 11.732 11.732 0 00-4.25 2.075c-1.27.97-2.32 2.186-3.1 3.574a12.166 12.166 0 00-.06 12.024 12.162 12.162 0 004.35 4.449 12.103 12.103 0 005.98 1.707 13.17 13.17 0 003.14-.411 12.188 12.188 0 007.34-5.649 12.06 12.06 0 001.54-4.473c.21-1.578.11-3.182-.31-4.72a12.157 12.157 0 00-5.44-7.343zm30.35 26.654a12.105 12.105 0 00-5.27-1.615c-1.86-.127-3.72.177-5.44.886-1.72.71-3.26 1.807-4.49 3.205a12.083 12.083 0 00-2.6 4.861 12.212 12.212 0 00-.18 5.51 12.007 12.007 0 002.28 5.02c1.14 1.476 2.6 2.67 4.27 3.491 1.67.82 3.51 1.244 5.37 1.238a13.02 13.02 0 003.13-.41 11.81 11.81 0 004.25-2.075 11.857 11.857 0 003.1-3.575 12.05 12.05 0 001.54-4.472c.21-1.578.11-3.183-.31-4.72a12.326 12.326 0 00-5.65-7.344zm-21.06-75.852a11.683 11.683 0 00-2.07-4.249 11.797 11.797 0 00-3.58-3.095 11.97 11.97 0 00-9.19-1.233 12.144 12.144 0 00-7.33 5.659 12.078 12.078 0 00-1.19 9.183c.47 1.91 1.4 3.674 2.72 5.136-2.86.909-5.28 2.85-6.78 5.443a12.112 12.112 0 004.47 16.537 11.8 11.8 0 006.01 1.592c1.07.015 2.14-.123 3.18-.411a12.034 12.034 0 008.45-8.257c.58-1.985.65-4.087.18-6.104a11.954 11.954 0 00-2.83-5.411 11.925 11.925 0 006.95-5.676 11.914 11.914 0 001.01-8.909v-.205zm-17.15-17.513a12.178 12.178 0 004.25-2.09 12.214 12.214 0 003.12-3.554c.79-1.378 1.31-2.9 1.52-4.478a12.115 12.115 0 00-2.4-8.958 12.074 12.074 0 00-12.75-4.286 12.061 12.061 0 00-7.06 4.917 12.067 12.067 0 0010.19 18.86c1.06.016 2.11-.123 3.13-.411zM1104 414.683a11.81 11.81 0 004.25-2.075 11.81 11.81 0 003.09-3.574 11.89 11.89 0 001.54-4.473c.21-1.578.11-3.182-.3-4.72a12.105 12.105 0 00-5.65-7.362 12.124 12.124 0 00-16.56 4.43 12.116 12.116 0 00-1.21 9.197l.31.874c-2.4-.97-5.05-1.133-7.55-.463a12.13 12.13 0 00-6.82 5.001 12.114 12.114 0 002.07 15.712 12.116 12.116 0 007.88 3.065c1.08.015 2.15-.123 3.18-.411a12.048 12.048 0 007.35-5.648 12.083 12.083 0 001.51-4.479c.2-1.578.09-3.18-.33-4.715a8.04 8.04 0 00-.31-.821c1.4.575 2.9.871 4.42.873 1.05-.01 2.11-.148 3.13-.411zm1.8 48.994a12.125 12.125 0 00-1.92-14.625 12.14 12.14 0 00-14.63-1.94 12.116 12.116 0 00-5.66 13.618c.68 2.578 2.2 4.857 4.31 6.485a12.108 12.108 0 007.37 2.521 11.27 11.27 0 003.18-.41 12.07 12.07 0 007.35-5.649zm28.35-81.965a12.046 12.046 0 003.37 5.138 12.148 12.148 0 005.46 2.822 12.079 12.079 0 00-3.48 5.868c-.57 2.249-.49 4.615.24 6.817a12.18 12.18 0 004.4 5.975 12.109 12.109 0 007.06 2.293c1.3-.004 2.6-.212 3.85-.616a12.078 12.078 0 004.36-2.619v.976a12.177 12.177 0 0011.66 8.987 11.03 11.03 0 003.13-.462 11.284 11.284 0 006.01-3.749c.01 1.253.2 2.498.57 3.697.8 2.411 2.35 4.506 4.41 5.99a12.154 12.154 0 007.09 2.279 10.75 10.75 0 003.8-.617c-.12 1.529.07 3.067.57 4.52.8 2.416 2.34 4.518 4.41 6.01 2.06 1.493 4.54 2.3 7.09 2.309 1.29.004 2.58-.222 3.8-.667a11.718 11.718 0 004.12-2.308 11.665 11.665 0 002.86-3.752 12.059 12.059 0 001.16-6.915 12.051 12.051 0 00-2.86-6.4 12.09 12.09 0 00-5.92-3.745c-2.31-.637-4.74-.58-7.01.164.09-1.529-.1-3.061-.57-4.52a12.12 12.12 0 00-3.47-5.211 12.106 12.106 0 00-5.62-2.768 12.078 12.078 0 00-11.45 3.922c.01-1.038-.11-2.073-.36-3.081a12.123 12.123 0 00-14.84-8.525 11.936 11.936 0 00-5.14 2.876 6.173 6.173 0 00-.36-1.695 12.052 12.052 0 00-3.37-5.138 12.148 12.148 0 00-5.46-2.822 12.16 12.16 0 002.89-4.189c.65-1.584.96-3.29.91-5.004l1.18-.308.62-.257c.04.97.18 1.934.41 2.876a11.847 11.847 0 004.29 6.478c2.11 1.62 4.7 2.485 7.37 2.458 1.06.016 2.11-.123 3.13-.411 1.55-.402 3-1.109 4.27-2.079 1.27-.97 2.33-2.184 3.12-3.57a12.05 12.05 0 001.57-6.845 12.11 12.11 0 00-8.21-10.646 12.117 12.117 0 00-7.02-.227c-.43.123-.86.278-1.28.463a14.654 14.654 0 00-.56-3.544 12.244 12.244 0 00-2.36-4.131 12.081 12.081 0 00-3.75-2.915 12.182 12.182 0 00-9.3-.657 12.054 12.054 0 00-6.14 4.569 12.015 12.015 0 00-2.13 7.345c-.4.042-.8.128-1.18.257a12.094 12.094 0 00-6.8 6.152 12.104 12.104 0 00-.54 9.152zM225.559 773.043a13.718 13.718 0 002.825-.359 12.065 12.065 0 002.516 18.899 12.227 12.227 0 006.06 1.643h.873c1.3.483 2.671.744 4.057.77a13.092 13.092 0 003.133-.411 11.908 11.908 0 006.265-4.159 12.272 12.272 0 005.855 1.54 10.912 10.912 0 003.133-.411 11.812 11.812 0 007.344-5.649 12.005 12.005 0 001.538-4.472 12.005 12.005 0 00-.306-4.72 10.978 10.978 0 00-1.181-2.774 12.048 12.048 0 005.392 1.284 11.167 11.167 0 003.133-.411 12.013 12.013 0 008.679-14.02 7.78 7.78 0 001.541 0 11.962 11.962 0 006.573-1.951 12.43 12.43 0 005.803 5.135 12.124 12.124 0 004.56 16.423 12.108 12.108 0 006.02 1.603 13.401 13.401 0 003.132-.411 12.116 12.116 0 008.525-14.841 11.804 11.804 0 00-5.649-7.344l-1.438-.668a12.217 12.217 0 001.541-7.292 12.48 12.48 0 00-4.519-8.115h-.308a12.02 12.02 0 003.954-10.271 12.17 12.17 0 00-13.404-10.682 11.969 11.969 0 00-8.114 4.468 12.225 12.225 0 00-2.568 8.936c.105.678.26 1.348.462 2.003a11.92 11.92 0 00-7.703-.514 12.071 12.071 0 00-8.679 13.918 11.124 11.124 0 00-4.314.257 11.921 11.921 0 00-1.027-5.958 12.071 12.071 0 00-6.779-6.316l-.925-.257c.127-.37.23-.747.309-1.13a12.518 12.518 0 003.03-2.67 12.073 12.073 0 00-3.897-18.333 12.067 12.067 0 00-6.939-1.234 11.963 11.963 0 00-8.115 4.468 12.274 12.274 0 00-2.259 4.827 11.712 11.712 0 00-5.136 5.958 11.91 11.91 0 00-.462 6.676 12.226 12.226 0 00-9.912 6.779 13.083 13.083 0 00-4.827.565 12.12 12.12 0 00-8.217 10.836c0 .359-.462.667-.616.976a12.114 12.114 0 00.514 11.807 12.124 12.124 0 004.411 4.222 12.131 12.131 0 005.911 1.534l.205-.154zm12.017-11.452c.257-.411.514-.771.719-1.181h.925a11.46 11.46 0 005.135-1.13 11.714 11.714 0 004.109-3.082 12.173 12.173 0 009.911 5.136c.92.01 1.837-.111 2.722-.36a12.12 12.12 0 00.36 4.058c.264.974.662 1.907 1.181 2.773a11.962 11.962 0 00-8.525-.924 12.112 12.112 0 00-6.265 4.159 12.228 12.228 0 00-6.728-1.489 12.075 12.075 0 00-6.882-.36 11.858 11.858 0 003.338-7.6zM1418.65 607.42c1.06-.013 2.11-.151 3.14-.41a12.32 12.32 0 007.34-5.649c.8-1.378 1.31-2.9 1.51-4.478a11.91 11.91 0 00-.33-4.715c-.36-1.45-1-2.812-1.9-4.006 1.33.528 2.74.807 4.16.822 2.74.03 5.41-.872 7.56-2.558a12.04 12.04 0 004.31-6.72c.64-2.664.35-5.464-.82-7.94a12.11 12.11 0 00-5.6-5.687 11.836 11.836 0 00-9.25-.668 12.096 12.096 0 00-4.14 2.342 12.059 12.059 0 00-2.92 3.755 11.883 11.883 0 00-1.25 4.591 12 12 0 00.61 4.719c.41 1.16 1 2.251 1.74 3.236a11.805 11.805 0 00-7.29-.36 12.094 12.094 0 00-6.94 4.971 12.12 12.12 0 00-1.95 8.318 12.165 12.165 0 004.03 7.533 12.11 12.11 0 007.99 3.007v-.103zm-11.34 33.896a12.112 12.112 0 00-.36 7.292 11.399 11.399 0 003.29 5.547c-2.2.762-4.12 2.136-5.55 3.96a12.054 12.054 0 00-2.54 6.329c-.22 2.309.23 4.633 1.28 6.696a12.11 12.11 0 004.7 4.944 12.532 12.532 0 006.01 1.592c1.07-.007 2.14-.145 3.18-.411 1-.273 1.95-.688 2.83-1.233a10.248 10.248 0 006.01 4.879 12.053 12.053 0 004.36 4.3 12.05 12.05 0 005.91 1.606c1.06.012 2.11-.126 3.13-.411 3.1-.842 5.74-2.875 7.34-5.655a12.19 12.19 0 001.24-9.187 12.502 12.502 0 00-5.65-7.344 13.69 13.69 0 00-1.95-.872c-.5-.83-1.11-1.59-1.8-2.26.33-.362.62-.758.87-1.181a11.885 11.885 0 001.54-4.472c.22-1.579.11-3.184-.31-4.721a12.122 12.122 0 00-3.99-6.144 12.164 12.164 0 00-6.79-2.741 12.071 12.071 0 00-3.24-5.124 12.069 12.069 0 00-5.34-2.887c.9-2.612.9-5.451 0-8.063a12.108 12.108 0 00-8.86-8.171 12.113 12.113 0 00-11.53 3.515 12.097 12.097 0 00-2.79 11.724 12.024 12.024 0 003.24 5.328 12.14 12.14 0 005.46 3.011l.31.154z"/><path d="M1373.41 675.159a12.088 12.088 0 00-1.29 5.964 12.079 12.079 0 0012.13 11.548c1.27.014 2.53-.177 3.75-.565.94 2.173 2.5 4.024 4.48 5.328a12.212 12.212 0 006.66 2.016c1.06-.006 2.11-.161 3.13-.462a12.04 12.04 0 004.56-1.897 12.125 12.125 0 003.43-3.56 12.207 12.207 0 001.72-4.63 12.07 12.07 0 00-.27-4.932 12.071 12.071 0 00-2.22-4.415 12.07 12.07 0 00-3.79-3.164 12.116 12.116 0 00-9.64-.769l-.67.257a12.062 12.062 0 00-10.73-7.394c-2.31-.076-4.59.513-6.58 1.696a12.1 12.1 0 00-4.62 4.979h-.05zm-27.17 14.277a11.88 11.88 0 006.01 1.643c1.08-.01 2.15-.148 3.19-.411a12.47 12.47 0 007.34-5.649c.8-1.378 1.31-2.9 1.51-4.478.21-1.578.09-3.18-.33-4.715a12.225 12.225 0 00-3.03-5.135c.2-1.597.1-3.218-.31-4.776a3.963 3.963 0 00-.3-.822c.9 1.14 2.02 2.099 3.28 2.825a12.216 12.216 0 006.06 1.643c1.06-.01 2.11-.148 3.13-.411a12.01 12.01 0 007.4-5.649 12.107 12.107 0 00.39-11.429 12.12 12.12 0 00-22.68 2.607c-.45 1.944-.41 3.968.1 5.895.08.298.19.59.31.873a12.866 12.866 0 00-3.34-2.876 12.028 12.028 0 00-5.39-1.541 12.127 12.127 0 006.7-5.76 12.204 12.204 0 001.01-8.773 11.866 11.866 0 00-5.65-7.344 12.12 12.12 0 00-6.37-1.592c.4-1.689.4-3.448 0-5.136-.6-2.24-1.82-4.262-3.54-5.823a12.063 12.063 0 00-18.13 2.177 12.155 12.155 0 00-3.49-5.653 12.105 12.105 0 00-12.54-2.368 12.075 12.075 0 00-5.3 3.994 12.058 12.058 0 00-2.41 6.189c-.21 2.246.21 4.506 1.22 6.525a12.133 12.133 0 004.47 4.906 12.124 12.124 0 006.39 1.813 10.89 10.89 0 003.13-.41 12.011 12.011 0 006.83-5.136c.7 2.56 2.22 4.821 4.32 6.435a12.147 12.147 0 007.34 2.501h.31a11.99 11.99 0 00.84 7.305 11.97 11.97 0 004.96 5.431c1.68.915 3.54 1.442 5.44 1.541a11.912 11.912 0 00-6.52 5.135 12.276 12.276 0 00-1.59 5.855c-1.6-.114-3.2.078-4.72.565a12.12 12.12 0 00-8.27 10.638 12.18 12.18 0 001.56 6.862 12.169 12.169 0 005.11 4.84c1.67.851 3.52 1.291 5.4 1.284 1.3-.004 2.6-.212 3.85-.617 2.01-.73 3.78-1.99 5.13-3.646.38.253.77.476 1.18.668z"/><path d="M1305.62 662.526a12.13 12.13 0 00-8.26 10.637 12.1 12.1 0 001.56 6.863 12.103 12.103 0 005.11 4.839c1.68.829 3.52 1.268 5.39 1.284 1.31-.004 2.61-.212 3.85-.616a12.14 12.14 0 007.02-6.075 12.143 12.143 0 00.66-9.255 12.117 12.117 0 00-15.33-7.677zm-96.91-26.5a12.144 12.144 0 00-5.71 4.083 12.17 12.17 0 00-2.49 6.566 12.21 12.21 0 001.57 6.845 12.134 12.134 0 005.1 4.825 12.132 12.132 0 006.93 1.186 12.12 12.12 0 10-5.4-23.505zM964.672 381.404a12.221 12.221 0 005.136 6.574l-.411.257a12.223 12.223 0 00-16.588 4.416 12.273 12.273 0 00-1.181 9.193 12.03 12.03 0 005.649 7.395 12.534 12.534 0 006.009 1.592 11.308 11.308 0 003.184-.411 11.646 11.646 0 003.697-1.746 30.814 30.814 0 0111.299 6.163 15.375 15.375 0 00-3.082.565 12.116 12.116 0 00-7.703 15.406 12.222 12.222 0 006.06 7.036 12.626 12.626 0 005.444 1.284 11.45 11.45 0 002.927-.411 12.905 12.905 0 00-.411 2.825 11.818 11.818 0 00-10.271 3.184 12.108 12.108 0 00-3.261-4.709 12.108 12.108 0 00-5.059-2.686 12.067 12.067 0 00-15.098-15.715 12.065 12.065 0 00-8.37 11.917 12.066 12.066 0 009.191 11.296 12.27 12.27 0 00-.359 7.343 11.712 11.712 0 003.287 5.547 11.609 11.609 0 00-6.523 5.135 11.97 11.97 0 00-1.232 9.193 12.167 12.167 0 0011.709 8.987 11.011 11.011 0 003.133-.462 11.953 11.953 0 002.26-.821 12.111 12.111 0 004.827 5.135 11.857 11.857 0 006.008 1.643h.617a12.066 12.066 0 0012.017 13.507 12.796 12.796 0 003.133-.411 12.113 12.113 0 008.576-14.842 11.828 11.828 0 00-2.074-4.249 11.827 11.827 0 00-3.575-3.095 11.668 11.668 0 00-6.625-1.592 12 12 0 00-.359-4.467 12.173 12.173 0 00-3.595-5.906c.936.007 1.869-.114 2.773-.36a11.828 11.828 0 004.249-2.074 11.827 11.827 0 003.095-3.575 12.177 12.177 0 001.592-5.803c.409.049.823.049 1.232 0-.065 1.46.126 2.92.565 4.314a12.159 12.159 0 004.416 6.01c2.06 1.493 4.54 2.3 7.09 2.309 1.29 0 2.57-.208 3.8-.616a12.195 12.195 0 007.03-6.06 12.098 12.098 0 00-.39-11.538 12.17 12.17 0 00-4.18-4.239 12.134 12.134 0 00-5.7-1.735c.06-1.227-.06-2.455-.36-3.647a11.857 11.857 0 00-3.69-5.957c.4-1.228.63-2.508.66-3.8a11.956 11.956 0 004.94-3.87 11.851 11.851 0 002.3-5.836c1.29.47 2.64.714 4.01.719 1.92-.001 3.81-.457 5.51-1.33a12.084 12.084 0 006.46-8.938c.3-1.895.13-3.832-.47-5.653a11.394 11.394 0 00-2.56-4.314h2.26c.56 0 .87.668 1.33.925a11.837 11.837 0 006.01 1.592c.56.05 1.13.05 1.69 0a11.92 11.92 0 00.52 5.135 11.783 11.783 0 002.3 4.142 11.823 11.823 0 003.76 2.894c1.12.53 2.31.893 3.54 1.079a12.245 12.245 0 004.57 4.724c1.83 1.051 3.9 1.6 6.01 1.592 1.08.019 2.15-.119 3.18-.41 3.1-.843 5.74-2.876 7.35-5.655a12.14 12.14 0 001.23-9.187c0-.462-.36-.925-.56-1.387a12.256 12.256 0 007.24 2.414c1.06.018 2.11-.12 3.13-.411a12.01 12.01 0 007.4-5.649 12.124 12.124 0 001.26-8.88 12.094 12.094 0 00-5.22-7.297 12.387 12.387 0 006.01 1.592 13.5 13.5 0 003.18-.411 12.146 12.146 0 007.36-5.663 12.13 12.13 0 001.19-9.204 12.09 12.09 0 00-5.66-7.355 12.117 12.117 0 00-9.2-1.196 12.365 12.365 0 00-6.94 5.135 11.962 11.962 0 00-9.14-1.181 11.89 11.89 0 00-4.25 2.075 11.81 11.81 0 00-3.09 3.574 11.88 11.88 0 00-1.54 4.472c-.22 1.579-.11 3.184.31 4.721.79 2.88 2.62 5.366 5.13 6.984l-.51.719a11.758 11.758 0 00-1.54 4.446c-.21 1.57-.11 3.167.31 4.696 0 .513.36.975.51 1.438a11.311 11.311 0 00-5.14-2.26 12.241 12.241 0 00-5.13-5.136 12.091 12.091 0 00-7.09-1.129c.17-1.374.08-2.767-.26-4.109.44-.072.87-.175 1.29-.308a16.971 16.971 0 005.87-6.407 16.868 16.868 0 001.92-8.474c-.1-2.944-.97-5.809-2.53-8.313a16.902 16.902 0 00-6.31-5.968 16.959 16.959 0 00-16.8.35 16.88 16.88 0 00-6.06 6.226 16.866 16.866 0 00-2.18 8.412 13.3 13.3 0 001.39 3.184h-.52a12.366 12.366 0 00-4.83 2.67c-.04-.762-.16-1.519-.35-2.259a12.538 12.538 0 00-5.65-7.344 11.402 11.402 0 00-4.57-1.489c1.2-.03 2.39-.238 3.54-.617 1.51-.496 2.9-1.287 4.1-2.328a11.88 11.88 0 002.88-3.732 12.134 12.134 0 00.66-9.251 12.152 12.152 0 00-6.05-7.028 12.258 12.258 0 00-9.24-.668 12.122 12.122 0 00-7.655 15.407 12.07 12.07 0 0010.835 8.217c-1.24-.085-2.49.037-3.7.359a12.137 12.137 0 00-7.359 5.645 12.135 12.135 0 00-1.522 4.477 12.138 12.138 0 00.308 4.72 12.026 12.026 0 002.626 4.847 11.99 11.99 0 004.517 3.164 12.264 12.264 0 00-5.14 5.136 12.468 12.468 0 00-1.078 3.492 12.023 12.023 0 00-9.296-7.96 11.79 11.79 0 00-3.543-3.235 12.228 12.228 0 004.365-4.777 12.122 12.122 0 00-4.382-15.676 12.114 12.114 0 00-11.397-.812 12.116 12.116 0 00-6.561 14.896l.154-.462zm134.088-105.382a12.099 12.099 0 003.97 7.652 12.11 12.11 0 008.05 3.081h1.39c1.58-.169 3.12-.656 4.51-1.433 1.4-.776 2.62-1.826 3.6-3.086.99-1.24 1.73-2.662 2.17-4.187.44-1.524.57-3.121.4-4.698a11.99 11.99 0 00-1.43-4.517 11.92 11.92 0 00-3.09-3.597 12.026 12.026 0 00-8.89-2.568 12.194 12.194 0 00-8.08 4.485c-2 2.499-2.93 5.685-2.6 8.868zm-45.6-48.993a12.134 12.134 0 003.96 7.652 12.129 12.129 0 008.05 3.081h1.39c1.58-.172 3.11-.656 4.51-1.425a12.075 12.075 0 003.61-3.054 11.972 11.972 0 002.15-4.21c.43-1.532.55-3.135.36-4.715a12.095 12.095 0 00-4.7-7.595 12.106 12.106 0 00-8.62-2.317 12.108 12.108 0 00-7.87 4.22 12.095 12.095 0 00-2.84 8.466v-.103zm-15.41-61.679a12.139 12.139 0 007.5 2.619h1.59c3.19-.38 6.11-2.003 8.11-4.519 2-2.509 2.92-5.706 2.57-8.892-.36-3.185-1.96-6.1-4.47-8.107a12.253 12.253 0 00-8.93-2.567 11.884 11.884 0 00-8.12 4.519 12.056 12.056 0 00-2.16 4.186 12.027 12.027 0 00-.4 4.698 12.202 12.202 0 004.31 8.063zm68.2 130.752a12.115 12.115 0 003.09 13.156 12.097 12.097 0 006.35 3.092c2.37.378 4.81.039 6.99-.973a12.107 12.107 0 005.27-4.708 12.106 12.106 0 001.74-6.844 12.124 12.124 0 00-2.36-6.655 12.112 12.112 0 00-5.68-4.207 12.116 12.116 0 00-15.4 7.139zm-79.04 261.196a12.21 12.21 0 00-9.19-1.233c-3.1.854-5.75 2.88-7.39 5.649a12.154 12.154 0 00.05 12.108 12.167 12.167 0 0010.47 6.072c1.06-.013 2.11-.151 3.14-.411a12.132 12.132 0 005.96-3.716 12.111 12.111 0 00-3.04-18.469z"/><path d="M1081.71 439.333c-.4-1.541-1.1-2.987-2.08-4.249a11.773 11.773 0 00-3.57-3.095 12.02 12.02 0 00-4.47-1.532 12.1 12.1 0 00-4.72.302 12.218 12.218 0 00-4.24 2.09 12.192 12.192 0 00-3.11 3.557v.411a11.884 11.884 0 00-3.33-2.568 12.291 12.291 0 00-9.25-.668 13.309 13.309 0 00-3.44 1.901 12.185 12.185 0 001.13-8.988 12.459 12.459 0 00-5.65-7.343 12.215 12.215 0 00-9.19-1.182 11.854 11.854 0 00-7.35 5.649 11.934 11.934 0 00-1.45 8.243 11.93 11.93 0 004.33 7.164c-.83.857-1.54 1.825-2.1 2.876a12.037 12.037 0 00-1.25 7.521 11.995 11.995 0 003.53 6.756 12.03 12.03 0 006.89 3.273 11.98 11.98 0 007.46-1.527 12.16 12.16 0 00-2.31 3.441c-1.27-.018-2.54.173-3.75.565-2.28.74-4.29 2.143-5.77 4.029a12.098 12.098 0 00-2.54 6.563 12.18 12.18 0 001.55 6.864 12.075 12.075 0 005.12 4.832c1.68.874 3.55 1.332 5.44 1.336 1.3.007 2.59-.219 3.81-.668a11.852 11.852 0 004.13-2.313 11.776 11.776 0 002.9-3.747v-.411a12.5 12.5 0 003.8-.616 12.157 12.157 0 005.49-3.818 12.227 12.227 0 002.63-6.145 12.01 12.01 0 002.2-1.695 12.288 12.288 0 007.04 2.208c1.92-.001 3.81-.456 5.51-1.329a12.084 12.084 0 006.46-8.939c.29-1.894.13-3.832-.47-5.652-.34-.961-.81-1.876-1.38-2.722a12.228 12.228 0 002.19-4.957c.34-1.797.28-3.649-.19-5.417zM927.284 689.384a12.122 12.122 0 00-13.857.437 12.117 12.117 0 00-4.38 13.155 12.11 12.11 0 006.117 7.361 11.862 11.862 0 006.009 1.644 13.618 13.618 0 003.184-.411 12.122 12.122 0 008.525-14.842 11.908 11.908 0 00-5.598-7.344zm-38.412 24.343a12.122 12.122 0 00-17.769 13.609 12.12 12.12 0 0011.709 8.988 11.245 11.245 0 003.133-.411 12.12 12.12 0 008.576-14.791 12.429 12.429 0 00-5.649-7.395zm-11.505 36.822a12.006 12.006 0 00-9.193-1.233 12.174 12.174 0 00-7.344 5.649 12.016 12.016 0 00-1.232 9.193 11.82 11.82 0 005.649 7.344 12.02 12.02 0 006.009 1.643 13.527 13.527 0 003.184-.411 12.118 12.118 0 007.721-17.049 12.12 12.12 0 00-4.794-5.136zm562.703-154.478c-3.1.841-5.74 2.872-7.34 5.649a11.89 11.89 0 00-1.54 4.473c-.21 1.578-.11 3.182.3 4.72.7 2.574 2.23 4.847 4.34 6.471a12.185 12.185 0 007.37 2.516 13.17 13.17 0 003.14-.411 11.764 11.764 0 004.24-2.074 11.72 11.72 0 003.1-3.575 11.873 11.873 0 001.54-4.472c.21-1.578.11-3.183-.31-4.721a12.155 12.155 0 00-5.65-7.344 12.178 12.178 0 00-9.19-1.232zm9.3 141.074a12.161 12.161 0 00-5.27-1.616c-1.86-.126-3.72.177-5.45.887-1.72.71-3.25 1.807-4.48 3.205a12.077 12.077 0 00-2.6 4.861 11.936 11.936 0 00-.18 5.51 12.013 12.013 0 002.28 5.02 12.057 12.057 0 004.26 3.49c1.68.821 3.51 1.244 5.38 1.239 1.06.016 2.11-.123 3.13-.411a12.136 12.136 0 007.34-5.625 12.133 12.133 0 001.24-9.165 12.448 12.448 0 00-5.65-7.395zm-133.94-22.699a11.978 11.978 0 00-4.47-1.539 12.025 12.025 0 00-4.72.307 11.809 11.809 0 00-4.25 2.074 11.857 11.857 0 00-3.1 3.575 12.162 12.162 0 00-1.62 6.004c-.01 2.109.53 4.184 1.57 6.02a12.058 12.058 0 004.34 4.449 12.143 12.143 0 005.98 1.707c1.08-.011 2.15-.148 3.19-.411a12.474 12.474 0 007.34-5.649c.8-1.375 1.32-2.894 1.53-4.471.22-1.576.11-3.179-.3-4.716a12.052 12.052 0 00-2.09-4.239 12.053 12.053 0 00-3.55-3.111h.15zm43.29-113.291c1.06.018 2.12-.12 3.14-.411a12.132 12.132 0 005.96-3.716 12.156 12.156 0 002.9-6.4 12.2 12.2 0 00-1.14-6.934 12.16 12.16 0 00-4.8-5.135 11.873 11.873 0 00-4.47-1.517 11.984 11.984 0 00-4.72.335c-3.09.829-5.73 2.84-7.34 5.598a12.135 12.135 0 00-1.59 5.998c0 2.103.54 4.171 1.57 6.002a12.24 12.24 0 004.33 4.446c1.8 1.083 3.86 1.68 5.96 1.734h.2zm-191.5-244.864a12.062 12.062 0 006.06 1.643c1.05-.01 2.11-.148 3.13-.411a12.139 12.139 0 007.36-5.663 12.13 12.13 0 001.19-9.204 12.126 12.126 0 00-14.87-8.551 12.316 12.316 0 00-7.34 5.649 12.067 12.067 0 00-1.54 4.473c-.21 1.578-.11 3.182.31 4.72.4 1.546 1.11 2.994 2.09 4.256a11.818 11.818 0 003.61 3.088zm40.11 23.726a12.109 12.109 0 004.33 6.482 12.096 12.096 0 007.38 2.505c1.04.016 2.08-.123 3.08-.411a12.028 12.028 0 007.39-5.649 12.146 12.146 0 00.4-11.429 12.22 12.22 0 00-3.81-4.499 12.186 12.186 0 00-5.49-2.169c-1.97-.261-3.99-.03-5.85.673a12.148 12.148 0 00-4.85 3.357 12.163 12.163 0 00-2.69 5.246c-.45 1.943-.41 3.968.11 5.894zm-190.69-147.904a12.285 12.285 0 004.35 6.461 12.214 12.214 0 007.36 2.526 13.17 13.17 0 003.14-.411 12.193 12.193 0 007.34-5.655 12.14 12.14 0 001.23-9.187c-.4-1.541-1.1-2.986-2.07-4.248a11.783 11.783 0 00-3.58-3.095 11.934 11.934 0 00-4.47-1.544 11.97 11.97 0 00-4.72.311 12.14 12.14 0 00-7.34 5.655 12.19 12.19 0 00-1.24 9.187zm18.49 26.653a12.013 12.013 0 00-9.19-1.232 12.08 12.08 0 00-7.34 5.625 12.133 12.133 0 00-1.24 9.165 11.98 11.98 0 002.08 4.267 11.977 11.977 0 003.57 3.128 11.881 11.881 0 006.01 1.644c1.07-.011 2.14-.149 3.18-.411a12.156 12.156 0 005.97-3.717c1.57-1.8 2.58-4.027 2.89-6.4.32-2.373-.08-4.785-1.14-6.933a12.073 12.073 0 00-4.79-5.136zm47.97-12.89a12.2 12.2 0 004.33 6.471 12.191 12.191 0 007.38 2.516c1.05-.01 2.11-.148 3.13-.41a12.318 12.318 0 007.34-5.65 11.885 11.885 0 001.54-4.472c.21-1.578.11-3.183-.3-4.72a11.866 11.866 0 00-5.65-7.344 12.148 12.148 0 00-6.85-1.595 12.115 12.115 0 00-10.92 15.204zM817.845 676.7a12.168 12.168 0 00-8.576 14.841 12.222 12.222 0 0011.709 8.988 13.092 13.092 0 003.133-.411 12.142 12.142 0 004.242-2.09 12.144 12.144 0 003.12-3.555 12.14 12.14 0 001.522-4.478 12.134 12.134 0 00-2.398-8.961 12.115 12.115 0 00-12.752-4.334zm41.34 26.961a12.113 12.113 0 00-10.696-8.271 12.124 12.124 0 00-4.71.619 11.923 11.923 0 00-7.036 6.06 12.066 12.066 0 004.925 16.003 12.073 12.073 0 005.911 1.51 11.091 11.091 0 003.8-.617 12.169 12.169 0 007.806-15.304zm-43.447 39.236a12.493 12.493 0 003.801-.617 12.223 12.223 0 007.703-15.406 12.581 12.581 0 00-1.746-3.287 12.32 12.32 0 003.389-3.698 11.954 11.954 0 001.182-9.192 12.128 12.128 0 00-5.496-7.903 12.123 12.123 0 00-9.523-1.405 12.118 12.118 0 00-7.543 5.981 12.129 12.129 0 00-.805 9.592c.341 1.44.989 2.789 1.9 3.954a12.116 12.116 0 00-4.365 13.558 12.17 12.17 0 0011.503 8.423z"/></g><defs><filter id="filter0_f" x="-681" y="-949" width="3267" height="2536.78" filterUnits="userSpaceOnUse" color-interpolation-filters="sRGB"><feFlood flood-opacity="0" result="BackgroundImageFix"/><feBlend in="SourceGraphic" in2="BackgroundImageFix" result="shape"/><feGaussianBlur stdDeviation="52.5" result="effect1_foregroundBlur"/></filter></defs></svg>