<svg width="216" height="44" viewBox="0 0 216 44" fill="none" xmlns="http://www.w3.org/2000/svg">
<path d="M161.756 9.77777L154.779 23.1265L147.998 9.77777H143.444L152.584 26.7316L152.224 27.2838C151.274 28.7778 150.16 29.3949 148.817 29.3949C148.129 29.3949 147.408 29.2325 146.589 28.9726L145.541 32.2855C146.688 32.7726 147.834 33 148.915 33C151.7 33 154.222 31.441 155.991 28.1282L165.95 9.77777H161.756Z" fill="white"/>
<path d="M172.056 9.77777V32.5128H176.249V13.3504H188.14V32.5128H192.333V9.77777H172.056Z" fill="white"/>
<rect x="0.944458" y="0.5" width="214.111" height="43" rx="2.5" stroke="white"/>
<path fill-rule="evenodd" clip-rule="evenodd" d="M3.44446 0C1.7876 0 0.444458 1.34315 0.444458 3V41C0.444458 42.6569 1.7876 44 3.44446 44H123.889V0H3.44446ZM103.111 29.2264C101.06 31.6776 97.9669 33 94.3376 33C87.584 33 82.5346 28.1298 82.5346 21.3889C82.5346 14.648 87.584 9.77777 94.3692 9.77777C97.9669 9.77777 101.06 11.1001 103.111 13.5514L100.46 16.0994C98.8506 14.3255 96.8623 13.4546 94.5585 13.4546C89.9825 13.4546 86.6688 16.7444 86.6688 21.3889C86.6688 26.0333 89.9825 29.3231 94.5585 29.3231C96.8623 29.3231 98.8506 28.4523 100.46 26.6461L103.111 29.2264ZM44.55 32.6775H48.842L38.8694 10.1003H34.8299L24.8888 32.6775H29.1177L31.2953 27.4525H42.3409L44.55 32.6775ZM32.6838 24.1626L36.8181 14.2932L40.9838 24.1626H32.6838ZM55.2593 32.6775H59.0779L70.9441 16.6799V32.6775H74.9836V10.1003H71.165L59.2989 26.1301V10.1003H55.2593V32.6775Z" fill="white"/>
</svg>
