<svg width="100" height="100" viewBox="0 0 100 100" fill="none" xmlns="http://www.w3.org/2000/svg">
<path d="M50.01 66.3033C50.3542 66.3033 50.6906 66.405 50.9769 66.5956C51.2631 66.7865 51.486 67.0573 51.6179 67.3744C51.7496 67.6915 51.7839 68.0404 51.7169 68.3769C51.6498 68.7135 51.4839 69.0227 51.2406 69.2652C50.9973 69.5079 50.6871 69.6731 50.3496 69.7402C50.0119 69.8071 49.6621 69.7727 49.3439 69.6414C49.026 69.51 48.7544 69.2877 48.5631 69.0023C48.3719 68.7171 48.2698 68.3817 48.2698 68.0383C48.271 67.5785 48.4548 67.1381 48.781 66.8129C49.1071 66.4879 49.5489 66.3046 50.01 66.3033ZM58.9069 65.8033C58.8754 65.5921 58.7856 65.3937 58.6475 65.2304C58.5094 65.0673 58.3283 64.9456 58.1248 64.8792C57.9212 64.8127 57.7031 64.8042 57.495 64.8544C57.2867 64.9044 57.0967 65.0115 56.946 65.1633L54.3581 67.7383C54.2077 67.8894 54.1021 68.0787 54.0527 68.2858C54.0035 68.4929 54.0127 68.7096 54.0789 68.9119C54.1454 69.114 54.2667 69.2942 54.4291 69.4321C54.5917 69.57 54.7892 69.6604 55 69.6935L56.5548 69.9385L56.4444 69.2435L58.8317 69.6185L58.4556 67.2433L59.1477 67.3533L58.9069 65.8033ZM41.0881 55.8027C41.1119 56.0179 41.1958 56.2223 41.3304 56.3921C41.465 56.5621 41.6446 56.6908 41.8492 56.764C42.0535 56.8369 42.2744 56.851 42.4867 56.805C42.6987 56.7587 42.8935 56.6542 43.0489 56.5029L45.6369 53.9027C45.7877 53.7523 45.8937 53.5631 45.9431 53.3562C45.9927 53.1494 45.9835 52.9329 45.9171 52.7308C45.8506 52.5287 45.7292 52.3492 45.5664 52.2117C45.4035 52.0744 45.2058 51.9846 44.9948 51.9525L43.4402 51.7075L43.5454 52.4027L41.1633 52.0275L41.5394 54.4027L40.8423 54.2927L41.0881 55.8027ZM56.8808 64.3931L51.971 61.1481C53.75 59.5575 55.7031 58.1721 57.7935 57.0179C56.7579 56.7727 55.8387 56.1794 55.1906 55.3377C55.1906 55.3377 52.4073 58.8379 50.4162 59.9879C53.1946 57.0929 54.4585 54.6827 54.975 54.1777C55.6621 53.5027 57.0914 54.2977 57.2066 55.0327C56.3894 54.7927 56.0983 55.2277 56.5698 55.6827C57.2419 56.3429 58.4004 56.7779 58.9219 56.2677C59.4435 55.7577 59.0573 54.1927 57.8337 52.9977C56.61 51.8025 55.1104 51.3225 54.4835 51.9325C53.8567 52.5427 52.6479 55.3827 49.5385 58.6679L46.9256 54.7377L43.1292 57.2329L47.8385 60.3479C45.7258 62.071 43.3679 63.4715 40.8423 64.5031C41.57 64.8746 42.2689 65.299 42.9337 65.7733C45.1025 64.385 47.1873 62.8706 49.1775 61.2381C47.6729 63.4281 44.1623 65.9183 42.7481 66.9733C42.101 67.4383 42.2467 68.5033 43.0389 69.2935C43.8314 70.0835 44.7392 70.1535 45.3058 69.6035C45.9929 68.9335 47.2567 66.0583 50.321 62.7831L53.0492 66.8783L56.8808 64.3931ZM31.5944 33.5367C33.139 32.1617 35.3758 32.1617 36.6698 32.5917C35.7356 31.6637 34.5814 30.986 33.3146 30.6215C32.8204 30.9408 32.4079 31.3706 32.1092 31.8767C31.8106 32.3825 31.6344 32.951 31.5944 33.5367ZM38.1894 76.4088C37.7881 76.2337 37.1862 75.8637 36.785 74.5587C36.121 74.4569 35.4933 74.1904 34.9596 73.7837C33.9564 72.7835 34.4581 71.6335 34.7187 70.7835C33.6306 69.4885 33.8612 68.3433 34.5833 67.6233C35.1271 67.1746 35.7542 66.8371 36.429 66.6302C37.1037 66.4235 37.8127 66.3515 38.5152 66.4183V63.9531C36.1331 63.2131 33.786 63.4181 31.9504 65.2733C29.8942 67.3483 29.3977 69.0335 26.795 70.0485C27.7979 71.7535 29.5683 71.8535 31.0729 71.8085C30.7565 72.9948 30.0071 74.0202 28.9714 74.6838C29.9746 75.6838 31.795 76.0487 33.3998 75.6337C33.3564 76.6079 33.1177 77.5633 32.6977 78.444C33.7112 78.7081 34.7817 78.6546 35.7633 78.2904C36.7452 77.9262 37.5904 77.2692 38.1844 76.4088H38.1894ZM28.2342 65.0983C29.6937 63.4681 30.7419 60.3779 31.3285 56.7779C33.4852 56.7779 36.8452 57.8579 38.5102 60.3829V51.4175C36.5014 51.9185 34.4177 52.049 32.3617 51.8025C28.9465 51.3025 27.0306 48.8025 27.0306 45.8023C27.0381 44.9762 27.2177 44.161 27.5579 43.4079C27.8981 42.6548 28.3915 41.9802 29.0067 41.4271C29.0719 41.3812 29.1237 41.3187 29.1567 41.2463C29.1896 41.1737 29.2023 41.0935 29.1937 41.0144C29.185 40.9352 29.155 40.8598 29.1071 40.796C29.0594 40.7323 28.995 40.6827 28.9212 40.6521C28.7508 40.5671 28.6606 40.4821 28.49 40.3971C17.8228 33.7067 8.18869 18.0959 7.15556 16.3958C7.1406 16.3761 7.12127 16.3602 7.09908 16.3492C7.07689 16.3382 7.05246 16.3325 7.02769 16.3325C7.00292 16.3325 6.97848 16.3382 6.95629 16.3492C6.9341 16.3602 6.91477 16.3761 6.89979 16.3958C3.62992 19.226 3.28387 24.8962 6.72929 29.2615C8.96604 32.1767 13.7806 35.3517 18.6854 38.0969C18.6001 38.5969 18.6001 39.1269 18.5099 39.6421C8.52471 37.5019 2.08024 30.5315 1.04712 29.4165C1.03215 29.3969 1.01282 29.3808 0.990631 29.3698C0.968444 29.3587 0.944007 29.3531 0.919232 29.3531C0.894459 29.3531 0.870021 29.3587 0.847834 29.3698C0.825646 29.3808 0.806313 29.3969 0.791346 29.4165C-1.09937 33.0217 0.535573 37.9169 4.23173 39.9671C7.41635 41.7671 12.4917 42.7971 18.7757 43.5721C18.8609 43.9973 18.9462 44.4273 19.0314 44.9423C12.9263 45.7431 6.71867 44.7908 1.13739 42.1971C1.04712 42.1121 0.961861 42.1971 0.876604 42.2821C0.4453 46.1423 2.85758 49.2325 7.07031 50.0025C11.2881 50.6025 20.2351 48.4575 20.2351 48.4575C20.3981 48.875 20.5996 49.2769 20.8369 49.6575C14.9842 53.0027 6.63902 52.6577 5.43537 52.5777C5.39129 52.581 5.34989 52.6 5.31864 52.6312C5.28737 52.6625 5.26831 52.7037 5.26485 52.7477C5.35012 56.7779 9.30706 57.8929 12.8327 57.4629C15.8418 57.0379 20.0595 55.0627 22.9833 52.8327C23.2777 53.1685 23.5944 53.4844 23.9312 53.7777C21.0927 58.4079 14.4677 60.2779 12.2309 60.4681C12.1456 60.4681 12.0604 60.5531 12.1456 60.6381C13.6101 63.1381 16.7897 63.8981 20.3203 62.2681C22.3817 61.2381 24.9644 58.6629 26.7698 55.7677L28.0587 56.2677C26.9404 61.8431 21.4387 65.1883 20.4909 65.7033C20.4056 65.7033 20.4056 65.8733 20.4909 65.8733C22.1258 67.6683 25.9123 67.7583 28.2342 65.0983ZM37.111 11.9206L35.3908 9.8655L33.6506 11.9206L35.3708 14.0007L37.111 11.9206ZM17.4818 24.4462C18.4246 23.7562 21.7798 21.871 20.9221 25.4462C21.329 25.3175 21.6867 25.0681 21.9475 24.7312C22.2083 24.3944 22.3598 23.9862 22.3817 23.5612C22.3817 21.246 19.202 20.216 19.202 17.9859C19.202 14.7257 24.4477 14.7257 24.2773 15.2408C23.3294 18.1559 25.1348 21.846 30.125 22.016V21.356C25.9123 21.356 24.0165 16.8959 27.2865 13.8107C25.4808 8.31042 22.8129 13.8107 20.5761 15.2658C19.2872 16.0408 15.7616 15.6108 15.5008 17.1559C15.1597 19.556 19.2872 19.471 17.4818 24.4462ZM63.3302 32.5917C64.1883 32.316 65.1019 32.2581 65.9879 32.4231C66.8741 32.5881 67.7052 32.9708 68.4056 33.5367C68.3673 32.9523 68.1933 32.3848 67.8975 31.879C67.6014 31.3729 67.1917 30.9425 66.7004 30.6215C65.4281 30.9837 64.2685 31.6615 63.3302 32.5917ZM68.0496 65.2733C66.2089 63.4181 63.8669 63.2131 61.4796 63.9531V66.4233C62.9002 66.2892 64.3162 66.7227 65.4166 67.6283C66.1337 68.3483 66.3644 69.4935 65.2812 70.7885C65.5269 71.6335 66.0233 72.7885 65.0354 73.7887C64.5025 74.1969 63.8744 74.4635 63.21 74.5637C62.8087 75.8687 62.2069 76.2387 61.8106 76.4137C62.4048 77.2752 63.251 77.9327 64.2337 78.2969C65.2166 78.6612 66.2881 78.7142 67.3023 78.449C66.8823 77.5683 66.6435 76.6129 66.6002 75.6387C68.205 76.0537 70.0304 75.6837 71.0285 74.6888C69.9912 74.0271 69.2412 73.0008 68.9271 71.8135C70.4316 71.8585 72.2171 71.7585 73.205 70.0535C70.6023 69.0335 70.1006 67.3483 68.0496 65.2733ZM98.8575 42.1971C93.2762 44.7902 87.0687 45.7425 80.9635 44.9423C81.0487 44.4423 81.1391 43.9973 81.2244 43.5721C87.5033 42.7971 92.5785 41.7671 95.7683 39.9671C99.4643 37.9069 101.099 33.0217 99.2087 29.4165C99.1931 29.3967 99.1733 29.3808 99.1508 29.3698C99.1281 29.3587 99.1033 29.3531 99.0783 29.3531C99.0531 29.3531 99.0283 29.3587 99.0056 29.3698C98.9831 29.3808 98.9633 29.3967 98.9479 29.4165C97.9148 30.5315 91.4652 37.4819 81.4852 39.6271C81.3998 39.1269 81.3998 38.5969 81.3146 38.0819C86.2193 35.3367 91.0339 32.1617 93.2706 29.2465C96.711 24.8712 96.37 19.211 93.1002 16.3808C93.0848 16.3611 93.065 16.3451 93.0423 16.3341C93.0198 16.3231 92.995 16.3174 92.9698 16.3174C92.9446 16.3174 92.9198 16.3231 92.8973 16.3341C92.8746 16.3451 92.8548 16.3611 92.8393 16.3808C91.8112 18.0959 82.1721 33.7067 71.505 40.3821C71.3344 40.4671 71.2492 40.5521 71.0787 40.6371C71.005 40.6677 70.9406 40.7173 70.8929 40.781C70.845 40.8448 70.815 40.9202 70.8062 40.9994C70.7977 41.0785 70.8104 41.1587 70.8433 41.2313C70.8762 41.3037 70.9281 41.3662 70.9933 41.4121C71.6085 41.9652 72.1019 42.6398 72.4421 43.3929C72.7823 44.146 72.9619 44.9612 72.9694 45.7873C72.9694 48.7875 71.0535 51.2875 67.6383 51.7875C65.5806 52.034 63.4952 51.9035 61.4848 51.4025V60.3679C63.1748 57.8429 66.4998 56.7629 68.6664 56.7629C69.2731 60.3629 70.3012 63.4531 71.7658 65.0833C74.0877 67.7433 77.8741 67.6533 79.5091 65.8533C79.5944 65.8533 79.5944 65.6833 79.5091 65.6833C78.5612 65.1833 73.0546 61.8231 71.9362 56.2477L73.2302 55.7477C75.0356 58.6629 77.6133 61.2481 79.6796 62.2481C83.1902 63.8781 86.39 63.1031 87.8494 60.6181C87.9396 60.5331 87.8493 60.4479 87.7641 60.4479C85.5273 60.2729 78.9073 58.3879 76.0687 53.7577C76.4041 53.4644 76.7191 53.1485 77.0116 52.8127C79.9354 55.0427 84.1531 57.0179 87.1623 57.4429C90.6729 57.8729 94.6498 56.7579 94.7352 52.7277C94.7314 52.6829 94.7116 52.641 94.6793 52.6098C94.6471 52.5783 94.6046 52.56 94.5596 52.5577C93.356 52.6427 85.0308 52.9827 79.1631 49.6375C79.4004 49.2569 79.6019 48.855 79.765 48.4375C79.765 48.4375 88.7119 50.5825 92.9296 49.9825C97.1425 49.2125 99.5496 46.1223 99.1183 42.2621C99.0281 42.1971 98.9429 42.1121 98.8575 42.1971ZM66.3394 11.9206L64.6191 9.8655L62.8989 11.9206L64.6191 14.0007L66.3394 11.9206ZM75.7277 15.2658C75.5573 14.7657 80.8031 14.7657 80.8031 18.0109C80.8031 20.241 77.6183 21.271 77.6183 23.5862C77.6406 24.0119 77.7929 24.4204 78.0546 24.7573C78.3162 25.0944 78.6752 25.3433 79.0829 25.4712C78.2202 21.871 81.5904 23.7562 82.5233 24.4712C80.7177 19.471 84.8452 19.581 84.5041 17.1809C84.2435 15.6358 80.7177 16.0658 79.4289 15.2908C77.1921 13.8357 74.5241 8.34542 72.7185 13.8357C75.9835 16.9209 74.0927 21.381 69.88 21.381V22.066C74.855 21.871 76.6656 18.1809 75.7277 15.2658ZM32.1912 22.216H38.6406C44.0621 22.216 46.4694 18.8709 47.2417 16.0408H52.7583C53.5356 18.8709 55.9429 22.216 61.3594 22.216H67.8037C68.36 21.4577 68.85 20.653 69.2681 19.811C70.2712 17.1559 69.0075 15.8658 67.1166 15.8658L64.6091 18.0959L62.0312 15.9508C60.1356 15.9508 58.8466 17.1559 59.8798 19.896C60.0504 20.241 60.3814 20.756 60.6521 21.186C58.3302 20.841 55.4062 19.296 54.8046 15.9508C55.6017 14.7412 56.3204 13.4819 56.956 12.1806C58.5006 8.32042 56.5248 6.68033 53.686 6.68033L49.995 11.0005L46.2987 6.71033C43.4602 6.71033 41.4792 8.34042 43.0289 12.2106C43.6646 13.5119 44.3831 14.7712 45.1804 15.9808C44.5785 19.326 41.6698 20.871 39.3277 21.216C39.5885 20.786 39.9296 20.271 40.1052 19.926C41.1381 17.1859 39.8444 15.9808 37.9535 15.9808L35.3708 18.1259L32.8633 15.8958C30.9725 15.8958 29.6785 17.1859 30.7117 19.841C31.1362 20.6732 31.6312 21.4677 32.1912 22.216ZM52.4073 2.91515L49.995 0L47.5877 2.91515L49.995 6.00029L52.4073 2.91515ZM70.0406 29.5015C70.5712 29.5448 71.0787 29.7367 71.5048 30.0552C71.9306 30.3737 72.2577 30.8058 72.4477 31.3015C73.0496 30.8015 73.6514 29.0715 73.3956 27.8715C72.3625 22.371 59.6292 25.9812 53.1796 23.6663C53.0092 25.2113 55.1556 27.7815 57.1364 28.7265C53.6962 31.7267 50.6169 37.7269 49.995 45.0223C49.3931 37.7319 46.2987 31.7267 42.8583 28.7265C44.8344 27.7815 46.9858 25.2262 46.8154 23.6663C40.3608 26.0012 27.6325 22.386 26.5792 27.8765C26.3185 29.0765 26.9202 30.7915 27.5271 31.3067C27.7173 30.8108 28.0442 30.3787 28.4702 30.0602C28.896 29.7417 29.4037 29.5498 29.9344 29.5065C36.4542 28.5065 42.2717 35.5719 42.2717 41.6371C42.3079 43.2129 41.9864 44.7765 41.3317 46.2113C40.6771 47.6458 39.7056 48.9146 38.4902 49.9225L49.975 47.1173L61.4596 49.9225C60.2452 48.914 59.2748 47.6452 58.6208 46.2104C57.9669 44.7758 57.6464 43.2125 57.6831 41.6371C57.7033 35.5719 63.5158 28.5015 70.0406 29.5015ZM52.8335 80.279C53.9519 77.189 55.3712 74.0037 57.7885 74.0037C58.9721 74.0037 60.0252 75.1337 60.7977 75.2587C60.9591 75.2944 61.1277 75.2794 61.2802 75.2158C61.4329 75.1523 61.5621 75.0433 61.6502 74.9037C61.9237 74.4456 62.0948 73.934 62.1516 73.4037C62.7469 73.3558 63.3325 73.2262 63.8919 73.0187C64.0454 72.9644 64.1748 72.8579 64.2573 72.7181C64.34 72.5781 64.3704 72.4137 64.3433 72.2535C64.251 71.6494 64.0542 71.0656 63.7617 70.5285C64.1379 70.2092 64.4464 69.8181 64.6694 69.3785C64.7402 69.2315 64.7589 69.065 64.7225 68.906C64.686 68.7471 64.5966 68.605 64.4687 68.5033C63.6229 67.9035 62.5881 67.6283 61.555 67.7283H61.5098V69.5035C61.5344 69.9077 61.4741 70.3127 61.3327 70.6925C61.1914 71.0723 60.9721 71.4185 60.6889 71.709C60.4056 71.9994 60.0648 72.2275 59.6879 72.379C59.311 72.5304 58.9067 72.6019 58.5006 72.5885H55.1304C54.1231 72.5656 53.126 72.7962 52.2319 73.2596C51.3377 73.7227 50.5752 74.4035 50.015 75.2387C49.456 74.4035 48.6946 73.7227 47.801 73.2596C46.9077 72.7962 45.9114 72.5654 44.9046 72.5885H41.5144C41.1085 72.601 40.7046 72.5292 40.3281 72.3775C39.9517 72.2256 39.611 71.9975 39.3279 71.7073C39.0448 71.4169 38.8254 71.071 38.6837 70.6917C38.5423 70.3123 38.4814 69.9077 38.5052 69.5035V67.7483H38.4652C37.4346 67.6444 36.4006 67.9123 35.5512 68.5033C35.4244 68.6058 35.3358 68.7479 35.3002 68.9069C35.2648 69.0658 35.2844 69.2321 35.3558 69.3785C35.5771 69.8192 35.8858 70.2104 36.2635 70.5285C35.9708 71.0656 35.7739 71.6494 35.6817 72.2535C35.6548 72.4137 35.6852 72.5781 35.7677 72.7181C35.8502 72.8579 35.9796 72.9644 36.1331 73.0187C36.6925 73.2267 37.2781 73.3562 37.8733 73.4037C37.9302 73.934 38.1012 74.4456 38.3748 74.9037C38.4629 75.0433 38.5921 75.1523 38.7448 75.2158C38.8973 75.2794 39.066 75.2944 39.2275 75.2587C39.9948 75.1337 41.0429 74.0037 42.2364 74.0037C44.6537 74.0037 46.0681 77.189 47.1864 80.279C41.6698 81.5642 34.7992 85.2542 33.425 89.2794C32.9233 90.8246 34.6285 92.8796 36.78 93.3096C36.8654 93.3096 36.9506 93.3096 36.9506 93.2246C38.0689 87.3044 44.5235 82.8442 47.8785 82.0742C48.0492 82.5042 47.9637 82.4192 48.1344 82.8442C44.5235 84.5642 40.9927 88.1644 39.9596 92.4546C39.5333 94.4248 41.6848 96.2248 43.4702 96.6548C43.5556 96.6548 43.6408 96.6548 43.6408 96.5698C43.9869 91.1646 46.3942 86.5344 48.5456 84.3892C48.6308 84.8192 48.6308 85.2492 48.716 85.5894C48.716 85.5894 46.4794 91.7646 46.4794 96.2248C46.4794 98.285 49.5787 99.725 49.99 100C50.4212 99.745 53.5006 98.285 53.5006 96.2248C53.5006 91.7646 51.2637 85.5894 51.2637 85.5894C51.3492 85.2492 51.3492 84.8192 51.4344 84.3892C53.5858 86.5344 55.9931 91.1646 56.3392 96.5698C56.3392 96.6548 56.4244 96.6548 56.5096 96.6548C58.3152 96.2248 60.4667 94.4248 60.0202 92.4546C58.9871 88.1644 55.4614 84.5642 51.8506 82.8442C52.021 82.4192 51.9358 82.5042 52.1064 82.0742C55.4614 82.8442 61.916 87.3044 63.0344 93.2246C63.0344 93.3096 63.1196 93.3096 63.2048 93.3096C65.3564 92.8796 67.0766 90.8096 66.56 89.2794C65.221 85.2542 58.3402 81.5642 52.8335 80.279Z" fill="white"/>
</svg>
