<svg width="43" height="49" fill="none" xmlns="http://www.w3.org/2000/svg"><path fill-rule="evenodd" clip-rule="evenodd" d="M23.677 41.3l-.912.935c.197.138.43.212.674.21.69 0 1.209-.626 1.18-1.331-.03-.799-.673-1.476-1.458-1.476-.58 0-1.081.371-1.317.888.06.203.095.423.095.649a.488.488 0 01-.676.468.486.486 0 01-.295-.468c0-.226.034-.446.095-.65-.236-.517-.737-.887-1.317-.887-.786 0-1.428.677-1.46 1.476-.027.705.49 1.33 1.181 1.332.242.002.479-.072.676-.212l-.913-.934a.718.718 0 011.033 0l1.19 1.256 1.19-1.256a.718.718 0 011.034 0zm-.884-4.308a.501.501 0 00-.485-.515.5.5 0 00-.485.515h-.004v.823h.745c.104-.205.229-.585.229-.823z" fill="#BD9A7A"/><path fill-rule="evenodd" clip-rule="evenodd" d="M23.935 44.88a.364.364 0 00.46.054c.195-.13.158-.46 0-.617a.361.361 0 00-.51 0c-.323-.327-.053-.885.401-.824a1.083 1.083 0 01.931 1.094 1.073 1.073 0 01-1.842.756l-1.889-1.93-1.887 1.93a1.073 1.073 0 01-1.54-.01 1.106 1.106 0 01-.018-1.5c.169-.185.398-.306.646-.34.455-.061.727.497.402.824a.36.36 0 00-.509 0c-.158.159-.195.487.002.617a.365.365 0 00.458-.054l1.965-1.953-.327-.301c-.329.252-.726.39-1.146.39a1.9 1.9 0 01-1.893-1.908c0-1.2.97-2.178 2.163-2.178.678 0 1.384.436 1.684.955.303-.52 1.009-.955 1.686-.955 1.194 0 2.165.978 2.165 2.178a1.903 1.903 0 01-1.895 1.908c-.42 0-.817-.136-1.146-.39l-.326.301 1.965 1.953zm-2.806 2.398h.72V44.99h-.72v2.287zm-.483-11.517c.308 0 .49.141.49.141v-.456l-.355.029v-.728l.378.028-.025-.383h.71l-.025.383.378-.028v.727l-.353-.028v.456s.18-.14.488-.14c.664 0 1.204.543 1.204 1.21 0 .578-.396 1.2-.44 1.269l-.107.163h-3.002l-.106-.163c-.045-.069-.44-.69-.44-1.268 0-.668.54-1.212 1.203-1.212h.002zm.842-2.934c-3.363.002-6.091 2.748-6.091 6.137v6.7l6.091 3.278 6.094-3.278v-6.702c0-3.388-2.73-6.135-6.094-6.136v.001z" fill="#BD9A7A"/><path fill-rule="evenodd" clip-rule="evenodd" d="M21.21 37.815v-.823h-.007c0-.282-.216-.515-.484-.515-.267 0-.484.233-.484.515 0 .238.123.616.226.823h.748zm16.697-1.703c1.4-2.29 2.54-4.729 3.401-7.272-.838-.85-1.434-1.688-1.812-2.578-.126 0-3.883 7.569-1.59 9.85zm-1.642-1.702c-2.758 2.163-7.38 5.41-7.38 10.334a45.397 45.397 0 005.86-4.9c.846-.845 1.756-1.992 2.543-3.177l-.118-.119c-.547-.543-.819-1.292-.905-2.138zm.048-29.06v.722c1.668 0 2.127 2.56 4.3 2.56.958 0 2.036-.8 2.036-2.249h-.727s-.056.82-1.088.82c-1.839 0-2.192-1.853-4.52-1.853h-.001zm-12.91 11.977a2.01 2.01 0 10-4.02.01 2.01 2.01 0 004.02-.012v.002zM3.531 26.262c-.378.89-.973 1.727-1.812 2.578.876 2.576 2.061 5.111 3.401 7.271 2.294-2.28-1.464-9.848-1.589-9.848z" fill="#BD9A7A"/><path fill-rule="evenodd" clip-rule="evenodd" d="M6.52 34.41c-.088.846-.36 1.595-.905 2.138l-.119.119C6.282 37.852 7.193 39 8.04 39.844a45.142 45.142 0 005.862 4.9c0-4.925-4.623-8.17-7.381-10.334zm12.886-10.943c.455-.41.825-.76 1.246-1.17.57.102 1.154.102 1.724 0 .42.41.789.76 1.244 1.17a6.42 6.42 0 001-.46 68.498 68.498 0 01-2.331-2.216c-.51.12-1.041.12-1.551 0a69.33 69.33 0 01-2.33 2.217c.318.18.651.334.998.459zM2.14 8.636c2.136 0 2.586-2.53 4.226-2.53v-.713c-2.289 0-2.636 1.83-4.443 1.83-1.015 0-1.071-.81-1.071-.81H.136c0 1.43 1.06 2.223 2.002 2.223h.002zM37.532 28.39a8.004 8.004 0 01-1.402-2.127l-.01.019c-1.215 2.554-2.045 4.839-1.847 8.857.376-.306 2.054-1.642 2.054-1.642.055-1.702.643-3.63 1.206-5.107zM8.635 35.14c.197-4.018-.633-6.302-1.849-8.859l-.009-.017c-.317.73-.78 1.428-1.401 2.129.562 1.476 1.149 3.4 1.204 5.105 0 0 1.68 1.335 2.055 1.642z" fill="#BD9A7A"/><path fill-rule="evenodd" clip-rule="evenodd" d="M5.96 2.327V1.6h2.222c-.875.879-1.857 1.093-2.221.727v-.001zM36.79 1.6v.727c-.366.366-1.346.152-2.222-.727h2.222zm.362 11.607a6.624 6.624 0 00-4.595 1.883l-.755-.538c.838-.416 1.727-1.253 2.006-1.856l-.511-.514c-.648.65-2.266.643-2.266-1.012 0-3.497 5.412-4.021 5.412-2.504h.724c0-2.892-2.174-1.993-2.174-1.993l-.513-.512c3.124-3.136 5.231-1.384 5.231.24h.724c.427-.43 1.649-2.657.282-4.03-.79-.795-1.918-.771-3.203-.771 0 0-.006-1.539-1.704-1.539-2.813 0-5.503 2.237-7.47.259l-.512.513s.63 1.949 2.24 1.949v.727c-.594 0-4.246 1.565-4.246 5.157h-.72V3.512h.72V1.6c-3 0-4.448 1.91-4.448 1.91S19.925 1.6 16.926 1.6v1.91h.723v5.156h-.723c0-3.593-3.65-5.155-4.243-5.155v-.728c1.608 0 2.238-1.95 2.238-1.95l-.51-.513C12.44 2.299 9.752.062 6.938.062c-1.697 0-1.701 1.539-1.701 1.539-1.29 0-2.414-.024-3.204.772-1.367 1.37-.144 3.6.282 4.03h.723c0-1.625 2.107-3.377 5.23-.24l-.51.511s-2.175-.898-2.175 1.993h.722c0-1.517 5.415-.995 5.415 2.504 0 1.655-1.62 1.663-2.267 1.012l-.512.512c.279.605 1.168 1.44 2.006 1.858l-.755.537a6.625 6.625 0 00-4.595-1.882c-5.483 0-6.414 7.664-4.193 14.787 1.29-1.418 1.85-2.802 1.85-4.539v-2.96c.398 0 .721.325.721.727v2.233c0 .591-.06 1.143-.182 1.672.271.567.922 1.966 1.16 2.52 1.076-1.3 1.549-2.596 1.549-4.192v-1.99c.4 0 .722.327.722.728v1.262c0 .573-.104 1.307-.222 1.84l.33.692c.279.582.544 1.158.786 1.756 1.133-1.331 1.634-2.651 1.634-4.288v-1.015c.399 0 .722.323.722.727v.288c0 1.948-.626 3.487-2.067 5.058.088.243.17.491.243.748l7.23-7.466a7.097 7.097 0 01-1.104-1.933.552.552 0 01.516-.743 6.32 6.32 0 001.097 2.149l2.049-2.113a3.451 3.451 0 012.227-5.158l-.511-1.028V6.284h2.44v6.686l-.51 1.028A3.439 3.439 0 0124.53 16a3.45 3.45 0 01-.217 3.156l9.79 10.11c.074-.252.155-.502.242-.75-1.443-1.57-2.07-3.109-2.07-5.06v-.29c0-.4.323-.727.724-.727v1.017c0 1.637.5 2.96 1.635 4.293.243-.6.51-1.18.789-1.761l.326-.683c-.118-.535-.222-1.274-.222-1.849v-1.262c0-.4.322-.727.72-.727v1.99c0 1.595.472 2.892 1.548 4.19.377-.844.764-1.684 1.161-2.519a7.375 7.375 0 01-.182-1.672v-2.235c0-.4.323-.727.722-.727v2.962c0 1.737.56 3.121 1.85 4.54 2.22-7.123 1.29-14.788-4.194-14.788z" fill="#BD9A7A"/><path fill-rule="evenodd" clip-rule="evenodd" d="M8.907 30.02c.058.238.112.486.16.739a57.074 57.074 0 008.46-5.78 8.464 8.464 0 003.925.96c1.412 0 2.75-.348 3.925-.96a56.868 56.868 0 008.464 5.783c.047-.254.1-.5.158-.738-.978-.588-4.664-2.884-8.881-6.557a7.021 7.021 0 01-3.666 1.027 7.026 7.026 0 01-3.666-1.027c-4.212 3.667-7.893 5.961-8.88 6.554z" fill="#BD9A7A"/><path fill-rule="evenodd" clip-rule="evenodd" d="M24.72 29.058v-1.38h3.067a57.123 57.123 0 01-.979-.685h-10.71c-.332.238-.658.466-.978.686h3.072v1.38c.4 0 .725-.306.725-.687v-.693h5.077v.694c0 .38.326.687.727.687v-.002zm8.672 6.693v-.006h-3.74a9.067 9.067 0 00-1.197-2.187h4.18v.737c0 .401.322.728.72.728v-2.198h-5.501a9.038 9.038 0 00-3.07-2.187h4.059v.74c0 .4.323.729.722.729v-1.469h2.391a57.91 57.91 0 01-1.178-.727h-19.02c-.424.267-.817.51-1.179.727h2.398v1.47a.724.724 0 00.72-.73v-.74h4.05a9.05 9.05 0 00-3.065 2.189H9.18v2.198c.4 0 .722-.327.722-.73v-.737h4.178a9.03 9.03 0 00-1.196 2.187H9.15v.01c.27.23.543.47.813.719h2.675a9.2 9.2 0 00-.35 2.506c.163.216.319.435.467.658h.976v-.653c0-4.2 3.38-7.618 7.535-7.622 4.158.004 7.537 3.422 7.537 7.62v.654h.976c.15-.223.305-.441.467-.655 0-.87-.125-1.71-.352-2.508h2.675c.274-.25.549-.49.82-.723" fill="#BD9A7A"/></svg>