<svg width="272" height="63" viewBox="0 0 272 63" fill="none" xmlns="http://www.w3.org/2000/svg">
<path d="M101.356 24.3994H96.1577V28.0751H102.258V30.3465H93.4504V16.6238H102.24V18.9141H96.1577V22.1845H101.356V24.3994Z" fill="white"/>
<path d="M116.029 33.7207H113.529V30.3465H105.606V33.7112H103.043L102.899 28.0751H103.892C104.427 27.6102 104.839 26.9284 105.128 26.0299C105.423 25.1251 105.621 24.0067 105.723 22.6746L106.102 16.6238H114.712V28.0751H116.246L116.029 33.7207ZM106.996 28.0751H112.004V18.9141H108.674L108.449 22.5238C108.268 24.9429 107.784 26.7933 106.996 28.0751Z" fill="white"/>
<path d="M125.55 16.6238H128.266V30.3465H125.55V21.2326L120.289 30.3465H117.581V16.6238H120.289V25.7566L125.55 16.6238Z" fill="white"/>
<path d="M141.306 30.3465H138.599V24.4654H133.32V30.3465H130.612V16.6238H133.32V22.1845H138.599V16.6238H141.306V30.3465Z" fill="white"/>
<path d="M151.26 27.5191H146.513L145.611 30.3465H142.732L147.623 16.6238H150.132L155.05 30.3465H152.171L151.26 27.5191ZM147.244 25.2288H150.529L148.877 20.0922L147.244 25.2288Z" fill="white"/>
<path d="M162.351 30.3465V25.3984H160.149L157.775 30.3465H154.852L157.658 24.4936C156.304 23.7145 155.628 22.505 155.628 20.865C155.628 19.5204 156.049 18.4805 156.891 17.7454C157.733 17.0102 158.909 16.6364 160.419 16.6238H165.067V30.3465H162.351ZM158.335 21.0724C158.335 21.839 158.512 22.395 158.867 22.7406C159.228 23.0862 159.767 23.259 160.483 23.259H162.351V18.9141H160.483C159.051 18.9141 158.335 19.6335 158.335 21.0724Z" fill="white"/>
<path d="M171.79 16.6238H174.497V28.0751H179.758V16.6238H182.475V28.0751H184.271L184.09 33.6547H181.563V30.3465H171.79V16.6238Z" fill="white"/>
<path d="M193.809 16.6238H196.526V30.3465H193.809V21.2326L188.548 30.3465H185.841V16.6238H188.548V25.7566L193.809 16.6238Z" fill="white"/>
<path d="M206.588 17.8491H206.75C207.779 17.8491 208.708 18.0878 209.539 18.5654C210.375 19.0366 211.025 19.7089 211.488 20.5823C211.951 21.4557 212.183 22.4484 212.183 23.5606C212.183 25.2068 211.677 26.5514 210.667 27.5945C209.662 28.6375 208.302 29.159 206.588 29.159V30.912H203.98V29.159H203.808C202.767 29.159 201.829 28.9265 200.993 28.4615C200.156 27.9903 199.507 27.3306 199.043 26.4823C198.586 25.6341 198.357 24.6664 198.357 23.5794C198.357 22.4798 198.586 21.4965 199.043 20.6294C199.501 19.7623 200.141 19.0869 200.965 18.6031C201.79 18.113 202.71 17.8616 203.727 17.8491H203.98V16.0583H206.588V17.8491ZM203.808 20.1959C202.912 20.1959 202.205 20.4912 201.687 21.0818C201.176 21.6724 200.92 22.505 200.92 23.5794C200.92 24.5848 201.176 25.3764 201.687 25.9545C202.199 26.5263 202.918 26.8122 203.844 26.8122H203.98V20.1959H203.808ZM206.588 20.1959V26.8122H206.768C207.652 26.8122 208.347 26.5232 208.853 25.9451C209.364 25.3607 209.62 24.5659 209.62 23.5606C209.62 22.5113 209.37 21.6882 208.871 21.0912C208.371 20.4943 207.655 20.1959 206.723 20.1959H206.588Z" fill="white"/>
<path d="M216.668 25.5115V30.3465H213.96V16.6238H219.086C220.073 16.6238 220.939 16.8123 221.685 17.1893C222.437 17.5663 223.015 18.1035 223.418 18.801C223.821 19.4921 224.022 20.2807 224.022 21.1666C224.022 22.5113 223.58 23.5731 222.696 24.3523C221.818 25.1251 220.599 25.5115 219.041 25.5115H216.668ZM216.668 23.2213H219.086C219.802 23.2213 220.347 23.0453 220.72 22.6935C221.099 22.3416 221.288 21.839 221.288 21.1855C221.288 20.5132 221.099 19.9697 220.72 19.555C220.341 19.1403 219.817 18.9266 219.149 18.9141H216.668V23.2213Z" fill="white"/>
<path d="M236.683 23.7962C236.683 25.1471 236.455 26.3315 235.998 27.3494C235.54 28.3673 234.885 29.1527 234.03 29.7056C233.182 30.2586 232.207 30.535 231.107 30.535C230.018 30.535 229.046 30.2617 228.192 29.7151C227.337 29.1684 226.676 28.3893 226.206 27.3777C225.737 26.3598 225.499 25.1911 225.493 23.8716V23.193C225.493 21.8421 225.725 20.6546 226.188 19.6304C226.658 18.5999 227.316 17.8114 228.165 17.2647C229.019 16.7118 229.994 16.4353 231.088 16.4353C232.183 16.4353 233.155 16.7118 234.003 17.2647C234.858 17.8114 235.516 18.5999 235.98 19.6304C236.449 20.6546 236.683 21.839 236.683 23.1836V23.7962ZM233.94 23.1742C233.94 21.7353 233.693 20.642 233.2 19.8943C232.707 19.1466 232.003 18.7727 231.088 18.7727C230.18 18.7727 229.479 19.1434 228.986 19.8848C228.492 20.62 228.243 21.7007 228.237 23.127V23.7962C228.237 25.1974 228.483 26.2844 228.977 27.0572C229.47 27.8301 230.18 28.2165 231.107 28.2165C232.015 28.2165 232.713 27.8458 233.2 27.1044C233.687 26.3566 233.934 25.2696 233.94 23.8433V23.1742Z" fill="white"/>
<path d="M238.651 30.3465V16.6238H243.253C244.847 16.6238 246.057 16.9443 246.881 17.5852C247.705 18.2198 248.117 19.1528 248.117 20.3844C248.117 21.0567 247.952 21.6505 247.621 22.1657C247.29 22.6746 246.83 23.0485 246.24 23.2873C246.914 23.4632 247.443 23.8182 247.828 24.3523C248.219 24.8864 248.415 25.5398 248.415 26.3127C248.415 27.6322 248.012 28.6312 247.206 29.3098C246.4 29.9884 245.251 30.334 243.759 30.3465H238.651ZM241.358 24.3711V28.0751H243.677C244.315 28.0751 244.811 27.918 245.166 27.6039C245.527 27.2834 245.708 26.8436 245.708 26.2844C245.708 25.0277 245.085 24.39 243.84 24.3711H241.358ZM241.358 22.373H243.361C244.727 22.3479 245.41 21.7793 245.41 20.6671C245.41 20.0451 245.235 19.599 244.887 19.3288C244.544 19.0523 243.999 18.9141 243.253 18.9141H241.358V22.373Z" fill="white"/>
<path d="M257.872 27.5191H253.126L252.223 30.3465H249.345L254.236 16.6238H256.744L261.663 30.3465H258.784L257.872 27.5191ZM253.857 25.2288H257.141L255.49 20.0922L253.857 25.2288Z" fill="white"/>
<path d="M268.963 30.3465V25.3984H266.761L264.388 30.3465H261.464L264.271 24.4936C262.917 23.7145 262.24 22.505 262.24 20.865C262.24 19.5204 262.661 18.4805 263.504 17.7454C264.346 17.0102 265.522 16.6364 267.032 16.6238H271.68V30.3465H268.963ZM264.947 21.0724C264.947 21.839 265.125 22.395 265.48 22.7406C265.841 23.0862 266.379 23.259 267.095 23.259H268.963V18.9141H267.095C265.663 18.9141 264.947 19.6335 264.947 21.0724Z" fill="white"/>
<path d="M101.289 49.3495H99.2961V40.6987H95.4365V49.3495H93.4504V38.9657H101.289V49.3495Z" fill="white"/>
<path d="M110.875 38.9657V49.3495H108.882V40.6987H106.313L106.155 44.3644C106.088 45.6006 105.943 46.5753 105.718 47.2884C105.493 47.9969 105.164 48.5175 104.731 48.8503C104.299 49.1784 103.707 49.3448 102.957 49.3495H102.441V47.6308L102.772 47.5951C103.27 47.5238 103.626 47.2147 103.838 46.668C104.054 46.1164 104.191 45.137 104.248 43.7297L104.413 38.9657H110.875Z" fill="white"/>
<path d="M118.17 47.21H114.688L114.026 49.3495H111.914L115.502 38.9657H117.343L120.951 49.3495H118.839L118.17 47.21ZM115.224 45.477H117.634L116.423 41.5901L115.224 45.477Z" fill="white"/>
<path d="M128.312 40.6987H125.36V49.3495H123.374V40.6987H120.461V38.9657H128.312V40.6987Z" fill="white"/>
<path d="M135.111 39.8928H135.231C135.985 39.8928 136.667 40.0735 137.276 40.4348C137.89 40.7914 138.366 41.3001 138.706 41.961C139.046 42.6219 139.216 43.3731 139.216 44.2146C139.216 45.4603 138.845 46.4778 138.104 47.267C137.367 48.0563 136.369 48.4509 135.111 48.4509V49.7774H133.198V48.4509H133.072C132.309 48.4509 131.62 48.275 131.007 47.9232C130.393 47.5666 129.917 47.0674 129.577 46.4255C129.241 45.7836 129.074 45.0514 129.074 44.2289C129.074 43.3969 129.241 42.6528 129.577 41.9967C129.912 41.3405 130.382 40.8294 130.987 40.4633C131.592 40.0925 132.267 39.9023 133.013 39.8928H133.198V38.5378H135.111V39.8928ZM133.072 41.6686C132.415 41.6686 131.896 41.8921 131.517 42.339C131.141 42.7859 130.954 43.4159 130.954 44.2289C130.954 44.9896 131.141 45.5887 131.517 46.0261C131.892 46.4588 132.419 46.6751 133.099 46.6751H133.198V41.6686H133.072ZM135.111 41.6686V46.6751H135.244C135.893 46.6751 136.402 46.4564 136.773 46.019C137.148 45.5768 137.336 44.9754 137.336 44.2146C137.336 43.4206 137.153 42.7978 136.786 42.3461C136.42 41.8944 135.895 41.6686 135.211 41.6686H135.111Z" fill="white"/>
<path d="M148.438 44.3929C148.438 45.4152 148.27 46.3114 147.935 47.0816C147.599 47.8518 147.118 48.4462 146.492 48.8646C145.869 49.283 145.154 49.4922 144.347 49.4922C143.548 49.4922 142.835 49.2853 142.208 48.8717C141.582 48.458 141.096 47.8685 140.752 47.103C140.408 46.3328 140.233 45.4484 140.229 44.45V43.9365C140.229 42.9143 140.399 42.0157 140.739 41.2407C141.083 40.461 141.566 39.8643 142.188 39.4506C142.815 39.0322 143.53 38.823 144.333 38.823C145.137 38.823 145.849 39.0322 146.472 39.4506C147.098 39.8643 147.582 40.461 147.921 41.2407C148.266 42.0157 148.438 42.9119 148.438 43.9294V44.3929ZM146.425 43.9222C146.425 42.8335 146.244 42.0062 145.882 41.4404C145.521 40.8746 145.004 40.5917 144.333 40.5917C143.667 40.5917 143.153 40.8722 142.791 41.4333C142.429 41.9895 142.246 42.8073 142.241 43.8866V44.3929C142.241 45.4532 142.422 46.2757 142.784 46.8605C143.146 47.4453 143.667 47.7377 144.347 47.7377C145.013 47.7377 145.525 47.4572 145.882 46.8962C146.24 46.3304 146.421 45.5079 146.425 44.4286V43.9222Z" fill="white"/>
<path d="M151.867 45.6909V49.3495H149.881V38.9657H153.641C154.365 38.9657 155.001 39.1083 155.548 39.3936C156.1 39.6788 156.523 40.0853 156.819 40.6131C157.115 41.1361 157.263 41.7328 157.263 42.4032C157.263 43.4206 156.938 44.2242 156.289 44.8137C155.645 45.3985 154.751 45.6909 153.608 45.6909H151.867ZM151.867 43.9579H153.641C154.167 43.9579 154.566 43.8248 154.84 43.5585C155.118 43.2923 155.257 42.9119 155.257 42.4174C155.257 41.9087 155.118 41.4974 154.84 41.1836C154.562 40.8698 154.178 40.7082 153.688 40.6987H151.867V43.9579Z" fill="white"/>
<path d="M161.228 38.9657L163.704 46.4968L166.167 38.9657H168.775V49.3495H166.782V46.5111L166.981 41.6115L164.379 49.3495H163.016L160.42 41.6187L160.619 46.5111V49.3495H158.633V38.9657H161.228Z" fill="white"/>
<path d="M176.071 47.21H172.588L171.926 49.3495H169.814L173.403 38.9657H175.243L178.851 49.3495H176.739L176.071 47.21ZM173.125 45.477H175.534L174.323 41.5901L173.125 45.477Z" fill="white"/>
<path d="M184.67 45.8977C184.728 46.5681 184.911 47.0507 185.22 47.3455C185.529 47.6355 185.977 47.7805 186.564 47.7805C187.212 47.7805 187.693 47.5499 188.007 47.0887C188.32 46.6228 188.501 45.9358 188.55 45.0277H185.504V43.2946H188.543C188.49 42.3675 188.296 41.6805 187.96 41.2336C187.629 40.7819 187.155 40.556 186.537 40.556C185.937 40.556 185.487 40.7106 185.187 41.0196C184.886 41.3239 184.712 41.816 184.664 42.4959H182.678C182.775 41.3596 183.159 40.4633 183.829 39.8072C184.505 39.1511 185.407 38.823 186.537 38.823C187.34 38.823 188.044 39.0275 188.649 39.4364C189.258 39.8405 189.726 40.4229 190.052 41.1836C190.379 41.9396 190.542 42.8216 190.542 43.8295V44.507C190.542 46.038 190.187 47.2528 189.477 48.1514C188.77 49.0452 187.799 49.4922 186.564 49.4922C185.425 49.4922 184.511 49.1688 183.823 48.5222C183.139 47.8709 182.759 46.996 182.684 45.8977H184.67Z" fill="white"/>
<path d="M195.09 45.1061H193.945V49.3495H191.959V38.9657H193.945V43.1235H194.852L197.209 38.9657H199.632L196.659 43.8794L199.943 49.3495H197.573L195.09 45.1061Z" fill="white"/>
<path d="M208.066 45.8906C207.991 47.0079 207.607 47.8875 206.914 48.5294C206.226 49.1712 205.316 49.4922 204.187 49.4922C202.951 49.4922 201.978 49.0452 201.267 48.1514C200.561 47.2528 200.208 46.0214 200.208 44.4571V43.8224C200.208 42.8239 200.371 41.9444 200.698 41.1836C201.024 40.4229 201.49 39.8405 202.095 39.4364C202.704 39.0275 203.41 38.823 204.213 38.823C205.325 38.823 206.221 39.144 206.901 39.7858C207.581 40.4277 207.973 41.3287 208.079 42.4888H206.093C206.045 41.8184 205.87 41.3334 205.57 41.0339C205.275 40.7296 204.822 40.5774 204.213 40.5774C203.551 40.5774 203.055 40.8342 202.724 41.3477C202.397 41.8564 202.229 42.648 202.22 43.7225V44.507C202.22 45.6291 202.377 46.4493 202.69 46.9675C203.008 47.4857 203.507 47.7449 204.187 47.7449C204.8 47.7449 205.257 47.5951 205.557 47.2956C205.862 46.9913 206.036 46.523 206.08 45.8906H208.066Z" fill="white"/>
<path d="M217.222 49.3495H215.229V40.6987H211.37V49.3495H209.383V38.9657H217.222V49.3495Z" fill="white"/>
<path d="M224.769 44.8494H220.956V47.6308H225.431V49.3495H218.97V38.9657H225.418V40.6987H220.956V43.1734H224.769V44.8494Z" fill="white"/>
<path d="M228.582 45.6909V49.3495H226.596V38.9657H230.356C231.08 38.9657 231.716 39.1083 232.263 39.3936C232.815 39.6788 233.238 40.0853 233.534 40.6131C233.83 41.1361 233.978 41.7328 233.978 42.4032C233.978 43.4206 233.653 44.2242 233.004 44.8137C232.36 45.3985 231.466 45.6909 230.323 45.6909H228.582ZM228.582 43.9579H230.356C230.881 43.9579 231.281 43.8248 231.555 43.5585C231.833 43.2923 231.972 42.9119 231.972 42.4174C231.972 41.9087 231.833 41.4974 231.555 41.1836C231.276 40.8698 230.893 40.7082 230.403 40.6987H228.582V43.9579Z" fill="white"/>
<path d="M242.604 40.6987H239.651V49.3495H237.665V40.6987H234.752V38.9657H242.604V40.6987Z" fill="white"/>
<path d="M249.522 38.9657H251.514V49.3495H249.522V42.4531L245.662 49.3495H243.676V38.9657H245.662V45.8763L249.522 38.9657Z" fill="white"/>
<path d="M257.989 41.8255C257.989 41.4309 257.846 41.1218 257.559 40.8984C257.272 40.6702 256.892 40.556 256.42 40.556C255.996 40.556 255.643 40.6702 255.361 40.8984C255.083 41.1218 254.944 41.4142 254.944 41.7756H252.958C252.958 41.2145 253.103 40.7106 253.395 40.2636C253.69 39.812 254.107 39.4601 254.646 39.2081C255.189 38.9561 255.78 38.8302 256.42 38.8302C257.532 38.8302 258.404 39.0869 259.035 39.6004C259.666 40.1139 259.982 40.8413 259.982 41.7827C259.982 42.2439 259.851 42.6718 259.591 43.0664C259.335 43.4611 258.969 43.7772 258.492 44.015C259.022 44.2146 259.428 44.5189 259.71 44.9278C259.993 45.332 260.134 45.8359 260.134 46.4398C260.134 47.3716 259.794 48.1133 259.114 48.6649C258.439 49.2116 257.541 49.485 256.42 49.485C255.718 49.485 255.087 49.3567 254.527 49.0999C253.966 48.8384 253.54 48.4842 253.249 48.0373C252.962 47.5856 252.819 47.0626 252.819 46.4683H254.818C254.818 46.8391 254.968 47.1506 255.268 47.4025C255.568 47.6498 255.952 47.7734 256.42 47.7734C256.95 47.7734 257.367 47.645 257.671 47.3883C257.98 47.1315 258.135 46.8059 258.135 46.4112C258.135 45.8692 257.998 45.4817 257.724 45.2487C257.451 45.011 257.051 44.8922 256.526 44.8922H255.341V43.2162H256.566C257.515 43.2019 257.989 42.7384 257.989 41.8255Z" fill="white"/>
<path d="M263.623 42.7098H265.172C266.306 42.7098 267.204 43.007 267.866 43.6013C268.533 44.1909 268.866 44.9873 268.866 45.9905C268.866 46.9984 268.535 47.8091 267.873 48.4224C267.215 49.031 266.339 49.34 265.245 49.3495H261.623V38.9657H263.623V42.7098ZM271.68 49.3495H269.694V38.9657H271.68V49.3495ZM263.623 44.4357V47.6308H265.205C265.713 47.6308 266.116 47.481 266.417 47.1815C266.721 46.8819 266.873 46.4802 266.873 45.9762C266.873 45.5055 266.728 45.1346 266.436 44.8636C266.15 44.5879 265.755 44.4452 265.251 44.4357H263.623Z" fill="white"/>
<path fill-rule="evenodd" clip-rule="evenodd" d="M39.2394 0.00161743L53.3085 7.91549V18.2651L50.9 18.3407V9.3241L39.2784 2.78697L28.4206 9.30163V18.2399L26.0121 18.3155V7.93796L39.2394 0.00161743ZM47.9947 23.1979L39.2784 28.1008L32.7305 24.1721L31.5261 26.2582L39.2394 30.8862L49.1332 25.3209L47.9947 23.1979Z" fill="white"/>
<path fill-rule="evenodd" clip-rule="evenodd" d="M13.5502 16.0587L0.322998 23.995V39.0069L13.5502 46.9432L22.2104 42.0719L21.072 39.9488L13.5893 44.1579L2.7315 37.6432V25.3587L13.5893 18.844L25.2109 25.3812V34.3474L27.6194 34.2717V23.9726L13.5502 16.0587Z" fill="white"/>
<path fill-rule="evenodd" clip-rule="evenodd" d="M66.5357 16.0583L53.3085 23.9946V32.7665L55.717 32.6909V25.3583L66.5748 18.8436L78.1963 25.3808V37.6203L66.5748 44.1575L59.3383 39.8156L58.1339 41.9017L66.5357 46.9428L80.6048 39.029V23.9722L66.5357 16.0583Z" fill="white"/>
<path fill-rule="evenodd" clip-rule="evenodd" d="M39.2394 32.115L53.3085 40.0289V55.0856L39.2394 62.9995L26.0121 55.0632V40.0513L39.2394 32.115ZM39.2784 34.9003L28.4206 41.415V53.6995L39.2784 60.2142L50.9 53.677V41.4375L39.2784 34.9003Z" fill="white"/>
<path fill-rule="evenodd" clip-rule="evenodd" d="M13.5819 30.9737L26.0206 23.9769L26.8078 25.3763L14.3717 32.3716V45.5503H12.766V32.3567L1.11329 25.365L1.9394 23.9882L13.5819 30.9737Z" fill="white"/>
<path fill-rule="evenodd" clip-rule="evenodd" d="M39.2726 14.917L51.7113 7.92019L52.4985 9.31965L40.0624 16.315V29.4936H38.4567V16.3L26.804 9.30835L27.6301 7.9315L39.2726 14.917Z" fill="white"/>
<path fill-rule="evenodd" clip-rule="evenodd" d="M66.5689 30.9737L79.0076 23.9769L79.7948 25.3763L67.3587 32.3716V45.5503H65.7531V32.3567L54.1003 25.365L54.9264 23.9882L66.5689 30.9737Z" fill="white"/>
<path fill-rule="evenodd" clip-rule="evenodd" d="M39.2726 47.0303L51.7113 40.0336L52.4985 41.433L40.0624 48.4283V61.607H38.4567V48.4133L26.804 41.4217L27.6301 40.0449L39.2726 47.0303Z" fill="white"/>
<path fill-rule="evenodd" clip-rule="evenodd" d="M34.0237 19.7615L25.1926 24.5786L24.4237 23.1689L33.2549 18.3519L34.0237 19.7615Z" fill="white"/>
<path fill-rule="evenodd" clip-rule="evenodd" d="M58.9116 35.8182L50.0804 40.6352L49.3116 39.2256L58.1427 34.4086L58.9116 35.8182Z" fill="white"/>
<path fill-rule="evenodd" clip-rule="evenodd" d="M21.2113 35.2309L29.7986 40.4704L28.9623 41.8411L20.375 36.6016L21.2113 35.2309Z" fill="white"/>
<path fill-rule="evenodd" clip-rule="evenodd" d="M48.5077 19.1742L57.0949 24.4138L56.2586 25.7844L47.6714 20.5449L48.5077 19.1742Z" fill="white"/>
</svg>
