<svg width="137" height="88" fill="none" xmlns="http://www.w3.org/2000/svg"><path fill-rule="evenodd" clip-rule="evenodd" d="M68.497 13.958l.37-.104C50.415 19.62 35.814 29.497 35.514 36.751c-.322 7.765 15.862 9.586 36.138 4.07 20.276-5.515 36.978-16.286 37.298-24.05.166-4.023-4.104-6.45-11.076-7.088 8.522.383 13.86 2.884 13.86 7.347 0 8.508-19.361 20.93-43.236 27.743-23.875 6.813-43.236 5.433-43.236-3.075 0-8.507 19.361-20.928 43.236-27.74" fill="#fff"/><path fill-rule="evenodd" clip-rule="evenodd" d="M34.641 58.692L94.58.767l-5.433 45.535-9.91-11.424L34.64 58.692z" fill="#ED1941"/><path d="M10.89 78.034c0 2.447-1.75 4.81-4.778 4.81H3.04v4.81H.31v-14.43h5.118c3.734 0 5.462 2.018 5.462 4.81zm-2.731 0c0-1.354-1.066-2.062-2.389-2.062H3.04v4.123h2.73c1.324 0 2.389-.86 2.389-2.061zm19.547 2.402c0 1.495-.44 2.957-1.265 4.201a7.52 7.52 0 01-3.37 2.786 7.463 7.463 0 01-4.34.431 7.495 7.495 0 01-3.846-2.068 7.577 7.577 0 01-2.056-3.871 7.609 7.609 0 01.427-4.37 7.55 7.55 0 012.766-3.393 7.475 7.475 0 014.173-1.274c1.99.003 3.898.8 5.306 2.217a7.598 7.598 0 012.204 5.34zm-2.732 0c0-.951-.28-1.881-.805-2.672a4.786 4.786 0 00-2.145-1.771 4.75 4.75 0 00-5.207 1.043 4.841 4.841 0 00-1.036 5.242c.361.879.973 1.63 1.76 2.159a4.756 4.756 0 004.484.448 4.768 4.768 0 001.553-1.043 4.804 4.804 0 001.396-3.406zm15.851 3.332l1.044 2.492A7.183 7.183 0 0137.22 88c-4.204 0-7.638-3.394-7.638-7.56 0-4.167 3.434-7.559 7.637-7.559 1.6 0 3.436.6 4.651 1.718l-1.045 2.491a5.062 5.062 0 00-3.563-1.46c-2.73 0-4.95 2.146-4.95 4.81 0 2.663 2.22 4.812 4.95 4.812a4.909 4.909 0 003.563-1.484zm16.185 3.887h-3.456l-5.42-6.314v6.314h-2.73V73.223h2.73v5.97l5.08-5.97h3.456l-6.146 6.893 6.487 7.539zm15.587-7.219a7.6 7.6 0 01-1.265 4.201 7.522 7.522 0 01-3.37 2.786 7.464 7.464 0 01-4.34.431 7.495 7.495 0 01-3.846-2.069 7.576 7.576 0 01-2.056-3.871 7.607 7.607 0 01.428-4.37 7.55 7.55 0 012.767-3.393 7.475 7.475 0 014.173-1.273c1.99.003 3.898.8 5.306 2.217a7.597 7.597 0 012.203 5.34zm-2.73 0c0-.952-.281-1.882-.806-2.672a4.786 4.786 0 00-2.145-1.772 4.749 4.749 0 00-5.208 1.044 4.84 4.84 0 00-1.035 5.243c.362.879.974 1.63 1.76 2.159a4.756 4.756 0 006.037-.597 4.805 4.805 0 001.396-3.405zm15.85 3.331l1.046 2.492a7.184 7.184 0 01-4.65 1.74c-4.203 0-7.638-3.395-7.638-7.561 0-4.167 3.435-7.559 7.638-7.559 1.6 0 3.434.601 4.65 1.718l-1.046 2.492a5.062 5.062 0 00-3.561-1.46c-2.73 0-4.95 2.145-4.95 4.809 0 2.663 2.22 4.812 4.95 4.812a4.908 4.908 0 003.561-1.483zm20.324 3.888h-2.902l-1.194-9.45-3.753 9.45h-1.365l-3.756-9.45-1.195 9.45h-2.901l2.048-14.432h2.73L97.51 82.5l3.755-9.278h2.73l2.047 14.432zm16.479-7.219a7.6 7.6 0 01-1.264 4.201 7.52 7.52 0 01-3.371 2.786 7.461 7.461 0 01-4.339.431 7.492 7.492 0 01-3.846-2.068 7.603 7.603 0 01-1.629-8.24 7.548 7.548 0 012.766-3.394 7.474 7.474 0 014.173-1.274c1.99.002 3.899.8 5.306 2.216a7.595 7.595 0 012.204 5.342zm-2.731 0a4.82 4.82 0 00-.806-2.672 4.78 4.78 0 00-2.145-1.772 4.749 4.749 0 00-5.207 1.044 4.833 4.833 0 00-1.035 5.243 4.8 4.8 0 001.76 2.159 4.757 4.757 0 006.037-.597 4.811 4.811 0 001.397-3.405h-.001zm15.853 3.331l1.045 2.492a7.185 7.185 0 01-4.65 1.74c-4.203 0-7.638-3.395-7.638-7.561 0-4.167 3.435-7.559 7.638-7.559 1.6 0 3.434.601 4.65 1.718l-1.045 2.492a5.064 5.064 0 00-3.562-1.46c-2.731 0-4.95 2.145-4.95 4.809 0 2.663 2.219 4.812 4.95 4.812a4.908 4.908 0 001.93-.377 4.942 4.942 0 001.632-1.106z" fill="#fff"/></svg>