<svg width="48" height="48" fill="none" xmlns="http://www.w3.org/2000/svg"><g id="Iconly/Light/Category"><g id="Category" fill-rule="evenodd" clip-rule="evenodd" stroke="#00F" stroke-width="1.5" stroke-linecap="round" stroke-linejoin="round"><path id="Stroke 1" d="M6 13c0-5.25.056-7 7-7s7 1.75 7 7 .022 7-7 7-7-1.75-7-7z"/><path id="Stroke 3" d="M28 13c0-5.25.056-7 7-7s7 1.75 7 7 .022 7-7 7-7-1.75-7-7z"/><path id="Stroke 5" d="M6 35c0-5.25.056-7 7-7s7 1.75 7 7 .022 7-7 7-7-1.75-7-7z"/><path id="Stroke 7" d="M28 35c0-5.25.056-7 7-7s7 1.75 7 7 .022 7-7 7-7-1.75-7-7z"/></g></g></svg>