<svg width="48" height="48" fill="none" xmlns="http://www.w3.org/2000/svg"><g id="Iconly/Light/3 User"><g id="3 User" stroke="#00F" stroke-width="1.5" stroke-linecap="round" stroke-linejoin="round"><path id="Stroke 1" d="M35.775 21.793a5.751 5.751 0 004.944-5.682 5.75 5.75 0 00-4.812-5.672"/><path id="Stroke 3" d="M39.457 28.5c2.702.405 4.588 1.35 4.588 3.3 0 1.343-.888 2.215-2.324 2.763"/><path id="Stroke 5" fill-rule="evenodd" clip-rule="evenodd" d="M23.773 29.328c-6.427 0-11.918.974-11.918 4.864 0 3.888 5.456 4.89 11.918 4.89 6.428 0 11.917-.964 11.917-4.856s-5.454-4.898-11.916-4.898z"/><path id="Stroke 7" fill-rule="evenodd" clip-rule="evenodd" d="M23.773 23.776a7.638 7.638 0 10-7.638-7.638 7.607 7.607 0 007.582 7.638h.056z"/><path id="Stroke 9" d="M11.77 21.793a5.75 5.75 0 01-4.944-5.682 5.75 5.75 0 014.812-5.672"/><path id="Stroke 11" d="M8.088 28.5c-2.702.405-4.588 1.35-4.588 3.3 0 1.343.888 2.215 2.324 2.763"/></g></g></svg>