<svg width="48" height="48" fill="none" xmlns="http://www.w3.org/2000/svg"><g id="Iconly/Light/Setting"><g id="Setting" stroke="#00F" stroke-width="1.5" stroke-linecap="round" stroke-linejoin="round"><path id="Path_33946" fill-rule="evenodd" clip-rule="evenodd" d="M41.613 15.247l-1.245-2.16a3.826 3.826 0 00-5.217-1.41v0a3.808 3.808 0 01-5.218-1.354 3.661 3.661 0 01-.512-1.831v0a3.826 3.826 0 00-3.826-3.936h-2.508a3.808 3.808 0 00-3.808 3.826v0a3.826 3.826 0 01-3.826 3.771 3.661 3.661 0 01-1.83-.512v0a3.826 3.826 0 00-5.218 1.41l-1.337 2.196a3.826 3.826 0 001.392 5.218v0a3.826 3.826 0 010 6.627v0a3.808 3.808 0 00-1.392 5.199v0l1.264 2.178a3.826 3.826 0 005.217 1.483v0a3.79 3.79 0 015.2 1.391c.328.555.505 1.186.512 1.83v0A3.826 3.826 0 0023.087 43h2.508a3.826 3.826 0 003.826-3.808v0a3.808 3.808 0 013.826-3.826 3.899 3.899 0 011.83.513v0a3.826 3.826 0 005.218-1.392v0l1.318-2.196a3.808 3.808 0 00-1.391-5.218v0a3.807 3.807 0 01-1.392-5.217c.332-.58.813-1.06 1.392-1.392v0a3.826 3.826 0 001.391-5.199v0-.018z"/><circle id="Ellipse_737" cx="24.35" cy="23.778" r="5.272"/></g></g></svg>