<svg width="44" height="44" viewBox="0 0 44 44" fill="none" xmlns="http://www.w3.org/2000/svg">
<path d="M41.7656 4.67499H2.23438C2.07483 4.67499 1.92182 4.73837 1.80901 4.85118C1.69619 4.964 1.63281 5.11701 1.63281 5.27655V38.7262C1.63354 38.8852 1.69724 39.0375 1.80998 39.1498C1.92271 39.262 2.07531 39.325 2.23438 39.325H41.7656C41.9252 39.325 42.0782 39.2616 42.191 39.1488C42.3038 39.036 42.3672 38.883 42.3672 38.7234V5.27518C42.3668 5.11587 42.3033 4.96321 42.1905 4.85069C42.0777 4.73818 41.9249 4.67499 41.7656 4.67499ZM2.83594 5.87811H41.1641V9.53458H2.83594V5.87811ZM2.83594 38.1246V10.7377H41.1641V38.1219L2.83594 38.1246Z" fill="#0000FF"/>
<path d="M28.5168 6.66634C28.3112 6.66634 28.1102 6.7273 27.9393 6.84152C27.7683 6.95574 27.6351 7.11809 27.5564 7.30804C27.4777 7.49798 27.4572 7.70699 27.4973 7.90863C27.5374 8.11027 27.6364 8.2955 27.7818 8.44087C27.9271 8.58625 28.1124 8.68525 28.314 8.72536C28.5156 8.76547 28.7247 8.74489 28.9146 8.66621C29.1045 8.58753 29.2669 8.4543 29.3811 8.28335C29.4953 8.11241 29.5563 7.91143 29.5563 7.70584C29.5563 7.43014 29.4468 7.16574 29.2518 6.9708C29.0569 6.77585 28.7925 6.66634 28.5168 6.66634Z" fill="#0000FF"/>
<path d="M32.5848 6.66634C32.3792 6.66627 32.1782 6.72718 32.0072 6.84136C31.8362 6.95554 31.7029 7.11786 31.6241 7.3078C31.5454 7.49774 31.5248 7.70676 31.5649 7.90842C31.6049 8.11009 31.7039 8.29534 31.8493 8.44075C31.9946 8.58616 32.1798 8.6852 32.3815 8.72534C32.5832 8.76547 32.7922 8.74491 32.9821 8.66624C33.1721 8.58757 33.3345 8.45434 33.4487 8.28339C33.563 8.11243 33.6239 7.91144 33.6239 7.70584C33.6239 7.4302 33.5145 7.16585 33.3196 6.97092C33.1247 6.77599 32.8604 6.66643 32.5848 6.66634Z" fill="#0000FF"/>
<path d="M36.6524 6.66634C36.4468 6.66627 36.2458 6.72718 36.0748 6.84136C35.9038 6.95554 35.7705 7.11786 35.6918 7.3078C35.613 7.49774 35.5924 7.70676 35.6325 7.90842C35.6726 8.11009 35.7715 8.29534 35.9169 8.44075C36.0623 8.58616 36.2475 8.6852 36.4491 8.72534C36.6508 8.76547 36.8598 8.74491 37.0498 8.66624C37.2397 8.58757 37.4021 8.45434 37.5163 8.28339C37.6306 8.11243 37.6916 7.91144 37.6916 7.70584C37.6916 7.56934 37.6648 7.43418 37.6126 7.30806C37.5603 7.18195 37.4838 7.06735 37.3873 6.97082C37.2908 6.87429 37.1762 6.79771 37.0501 6.74547C36.924 6.69323 36.7889 6.66634 36.6524 6.66634Z" fill="#0000FF"/>
<path d="M31.013 21.3813H28.9481C28.8715 21.2076 28.7898 21.0385 28.703 20.8742L30.0735 19.5034C30.1734 19.4036 30.235 19.272 30.2476 19.1314C30.2602 18.9908 30.2229 18.8502 30.1423 18.7344C29.3336 17.5765 28.288 16.604 27.0746 15.8813C26.9597 15.8131 26.8253 15.7851 26.6927 15.8018C26.5601 15.8185 26.4369 15.8788 26.3424 15.9734L24.8987 17.4171C24.788 17.3713 24.6763 17.3283 24.5635 17.2882V15.3003C24.5635 15.163 24.5165 15.0298 24.4304 14.9229C24.3442 14.8159 24.224 14.7417 24.0898 14.7125C22.7118 14.4162 21.2865 14.4162 19.9085 14.7125C19.7743 14.7417 19.6541 14.8159 19.5679 14.9229C19.4818 15.0298 19.4348 15.163 19.4348 15.3003V17.2906C19.322 17.3307 19.2103 17.3737 19.0996 17.4195L17.6559 15.9758C17.5615 15.8811 17.4382 15.8207 17.3056 15.804C17.173 15.7873 17.0386 15.8153 16.9237 15.8837C15.7104 16.6064 14.6647 17.5789 13.8561 18.7368C13.7754 18.8526 13.7381 18.9932 13.7507 19.1338C13.7633 19.2744 13.8249 19.406 13.9248 19.5058L15.2967 20.8742C15.2096 21.0385 15.1279 21.2076 15.0516 21.3813H12.9867C12.8548 21.3813 12.7265 21.4247 12.6217 21.5047C12.5168 21.5848 12.4412 21.6971 12.4065 21.8244C12.1751 22.6737 12.0582 23.5501 12.0586 24.4303C12.0591 24.9577 12.1006 25.4841 12.1827 26.005C12.205 26.1467 12.2772 26.2757 12.3861 26.3689C12.495 26.462 12.6337 26.5133 12.777 26.5134H14.702C14.7815 26.7902 14.8768 27.0622 14.9873 27.3281L14.4473 27.8675C14.4349 27.8802 14.4233 27.8929 14.4129 27.9067L13.5436 28.7764C13.4491 28.871 13.3888 28.9945 13.3722 29.1273C13.3557 29.2601 13.3838 29.3946 13.4522 29.5096C14.176 30.7197 15.1473 31.7631 16.3025 32.5717C16.4184 32.6526 16.5591 32.69 16.6999 32.6774C16.8406 32.6649 16.9725 32.6031 17.0722 32.5029L18.4424 31.1324C18.7622 31.3022 19.0938 31.4485 19.4348 31.5704V33.5603C19.4348 33.6977 19.4818 33.8308 19.5679 33.9378C19.6541 34.0447 19.7743 34.1189 19.9085 34.1481C21.2863 34.4461 22.712 34.4461 24.0898 34.1481C24.224 34.1189 24.3442 34.0447 24.4304 33.9378C24.5165 33.8308 24.5635 33.6977 24.5635 33.5603V31.5717C24.9045 31.4499 25.2361 31.3035 25.5559 31.1338L26.9261 32.5043C27.0258 32.6045 27.1577 32.6662 27.2984 32.6788C27.4392 32.6914 27.5799 32.654 27.6958 32.5731C28.851 31.7645 29.8223 30.721 30.5462 29.5109C30.6145 29.3959 30.6427 29.2614 30.6261 29.1287C30.6095 28.9959 30.5492 28.8724 30.4547 28.7777L29.5868 27.9098C29.5754 27.896 29.5634 27.8826 29.5524 27.8699L29.0123 27.3281C29.1227 27.0619 29.2178 26.7895 29.297 26.5124H31.2227C31.366 26.5123 31.5046 26.461 31.6136 26.3678C31.7225 26.2746 31.7947 26.1456 31.817 26.004C31.8991 25.4831 31.9406 24.9566 31.9411 24.4293C31.9415 23.549 31.8245 22.6726 31.5932 21.8233C31.5583 21.6963 31.4826 21.5842 31.3777 21.5043C31.2729 21.4244 31.1448 21.3812 31.013 21.3813ZM30.6936 25.3103H28.8267C28.6892 25.3104 28.5558 25.3575 28.4488 25.4439C28.3418 25.5302 28.2676 25.6506 28.2386 25.785C28.1323 26.275 27.9686 26.7507 27.7511 27.2023C27.6973 27.3147 27.6797 27.4409 27.7007 27.5637C27.7217 27.6865 27.7802 27.7997 27.8683 27.8878L28.6648 28.6835C28.6756 28.6972 28.687 28.7103 28.6992 28.7227L29.2629 29.2868C28.7522 30.0453 28.1268 30.7199 27.4091 31.2864L26.0812 29.9585C25.9857 29.8631 25.8609 29.8026 25.7268 29.7867C25.5928 29.7708 25.4573 29.8004 25.3421 29.8709C24.8598 30.1677 24.3394 30.3978 23.7953 30.5549C23.67 30.5913 23.5599 30.6674 23.4816 30.7717C23.4033 30.876 23.361 31.003 23.3611 31.1334V33.0615C22.4592 33.2039 21.5405 33.2039 20.6386 33.0615V31.1334C20.6386 31.0027 20.596 30.8756 20.5173 30.7712C20.4386 30.6668 20.328 30.5909 20.2024 30.5549C19.6582 30.3978 19.1378 30.1677 18.6555 29.8709C18.5403 29.8004 18.4048 29.7708 18.2708 29.7867C18.1367 29.8026 18.0119 29.8631 17.9164 29.9585L16.5892 31.2864C15.8715 30.7201 15.2461 30.0457 14.7354 29.2875L15.2991 28.7234C15.3115 28.711 15.3232 28.698 15.3335 28.6846L16.1303 27.8884C16.2184 27.8004 16.277 27.6872 16.298 27.5644C16.319 27.4416 16.3014 27.3153 16.2475 27.203C16.03 26.7513 15.8664 26.2756 15.7601 25.7857C15.7312 25.6514 15.6572 25.5309 15.5504 25.4444C15.4436 25.358 15.3104 25.3106 15.173 25.3103H13.3061C13.2765 25.0154 13.2617 24.7211 13.2617 24.4303C13.2614 23.8097 13.3274 23.1909 13.4587 22.5844H15.4548C15.577 22.5847 15.6964 22.5479 15.7971 22.4787C15.8978 22.4096 15.975 22.3114 16.0186 22.1973C16.1647 21.8113 16.3461 21.4396 16.5607 21.087C16.6313 20.9718 16.661 20.8362 16.6451 20.7021C16.6292 20.568 16.5686 20.4431 16.473 20.3476L15.1451 19.0194C15.7119 18.3006 16.3878 17.6751 17.1482 17.1655L18.5424 18.5625C18.6307 18.6509 18.7444 18.7096 18.8676 18.7303C18.9909 18.7511 19.1175 18.7329 19.2299 18.6784C19.5429 18.527 19.8682 18.4025 20.2024 18.3064C20.3282 18.2705 20.4389 18.1945 20.5176 18.09C20.5964 17.9854 20.6388 17.8581 20.6386 17.7272V15.7991C21.5405 15.6571 22.4591 15.6571 23.3611 15.7991V17.7272C23.3611 17.8578 23.4036 17.9849 23.4822 18.0893C23.5609 18.1936 23.6714 18.2695 23.797 18.3054C24.1311 18.4015 24.4564 18.5259 24.7694 18.6773C24.8818 18.7321 25.0085 18.7504 25.1318 18.7296C25.255 18.7088 25.3687 18.6501 25.4569 18.5615L26.8529 17.1655C27.6133 17.6751 28.2891 18.3006 28.8559 19.0194L27.528 20.3476C27.4325 20.4431 27.3719 20.568 27.356 20.7021C27.3401 20.8362 27.3698 20.9718 27.4404 21.087C27.6549 21.4396 27.8364 21.8113 27.9825 22.1973C28.0259 22.3112 28.103 22.4092 28.2034 22.4784C28.3039 22.5475 28.4229 22.5845 28.5448 22.5844H30.541C30.6723 23.1909 30.7383 23.8097 30.738 24.4303C30.738 24.7211 30.7232 25.0154 30.6936 25.3103Z" fill="#0000FF"/>
<path d="M22.0001 20.0234C21.1284 20.0234 20.2763 20.2818 19.5514 20.766C18.8266 21.2503 18.2617 21.9386 17.9281 22.7439C17.5945 23.5493 17.5072 24.4354 17.6772 25.2904C17.8472 26.1453 18.267 26.9307 18.8834 27.547C19.4998 28.1634 20.2851 28.5832 21.14 28.7532C21.995 28.9233 22.8812 28.836 23.6865 28.5023C24.4918 28.1687 25.1801 27.6038 25.6644 26.879C26.1486 26.1541 26.407 25.302 26.407 24.4303C26.4057 23.2619 25.941 22.1418 25.1148 21.3156C24.2886 20.4894 23.1685 20.0247 22.0001 20.0234ZM22.0001 27.6344C21.3664 27.6345 20.7469 27.4466 20.2199 27.0946C19.6929 26.7426 19.2822 26.2422 19.0397 25.6567C18.7971 25.0712 18.7336 24.427 18.8572 23.8054C18.9808 23.1839 19.2859 22.6129 19.734 22.1648C20.1821 21.7167 20.753 21.4115 21.3745 21.2878C21.9961 21.1642 22.6403 21.2276 23.2258 21.4701C23.8113 21.7126 24.3117 22.1233 24.6638 22.6502C25.0159 23.1771 25.2038 23.7966 25.2038 24.4303C25.203 25.2798 24.8652 26.0942 24.2646 26.6949C23.664 27.2956 22.8496 27.6335 22.0001 27.6344Z" fill="#0000FF"/>
</svg>
