<svg width="48" height="48" viewBox="0 0 48 48" fill="none" xmlns="http://www.w3.org/2000/svg">
<g id="Iconly/Light/3 User">
<g id="3 User">
<path id="Stroke 1" d="M35.7754 21.7934C38.5654 21.4014 40.7134 19.0094 40.7194 16.1114C40.7194 13.2554 38.6374 10.8874 35.9074 10.4394" stroke="#0000FF" stroke-width="1.5" stroke-linecap="round" stroke-linejoin="round"/>
<path id="Stroke 3" d="M39.457 28.5006C42.159 28.9046 44.045 29.8506 44.045 31.8006C44.045 33.1426 43.157 34.0146 41.721 34.5626" stroke="#0000FF" stroke-width="1.5" stroke-linecap="round" stroke-linejoin="round"/>
<path id="Stroke 5" fill-rule="evenodd" clip-rule="evenodd" d="M23.7735 29.3276C17.3455 29.3276 11.8555 30.3016 11.8555 34.1916C11.8555 38.0796 17.3115 39.0816 23.7735 39.0816C30.2015 39.0816 35.6895 38.1176 35.6895 34.2256C35.6895 30.3336 30.2355 29.3276 23.7735 29.3276Z" stroke="#0000FF" stroke-width="1.5" stroke-linecap="round" stroke-linejoin="round"/>
<path id="Stroke 7" fill-rule="evenodd" clip-rule="evenodd" d="M23.7733 23.7758C27.9913 23.7758 31.4113 20.3578 31.4113 16.1378C31.4113 11.9198 27.9913 8.4998 23.7733 8.4998C19.5553 8.4998 16.1353 11.9198 16.1353 16.1378C16.1193 20.3418 19.5133 23.7618 23.7173 23.7758H23.7733Z" stroke="#0000FF" stroke-width="1.5" stroke-linecap="round" stroke-linejoin="round"/>
<path id="Stroke 9" d="M11.7699 21.7934C8.97793 21.4014 6.83193 19.0094 6.82593 16.1114C6.82593 13.2554 8.90793 10.8874 11.6379 10.4394" stroke="#0000FF" stroke-width="1.5" stroke-linecap="round" stroke-linejoin="round"/>
<path id="Stroke 11" d="M8.088 28.5006C5.386 28.9046 3.5 29.8506 3.5 31.8006C3.5 33.1426 4.388 34.0146 5.824 34.5626" stroke="#0000FF" stroke-width="1.5" stroke-linecap="round" stroke-linejoin="round"/>
</g>
</g>
</svg>
