<svg width="45" height="42" viewBox="0 0 45 42" fill="none" xmlns="http://www.w3.org/2000/svg">
<path d="M16.5 34.0883L29.8655 33.5932C29.9528 33.59 30.0348 33.5598 30.1014 33.5035C30.6458 33.0429 33.1858 30.8235 32.898 29.7441M32.898 29.7441C32.898 29.4941 33.5 29.0883 30 28.5883C26.7638 28.1259 21.3904 28.0911 20.5986 28.0885C20.5314 28.0882 20.4672 28.0702 20.4082 28.038C10.1767 22.4462 6.41002 23.1829 1.60603 27.9819C1.53833 28.0495 1.49625 28.1407 1.48943 28.2362L1.03404 34.6117C1.0163 34.8601 1.22651 35.0641 1.47545 35.056C7.09089 34.8737 17.6267 41.0883 22 41.0883C26.5 41.0883 31.9563 39.5924 36.5 35.5883C40.4984 32.0647 42.9255 24.2897 43.6601 21.6452C43.7544 21.3058 43.3902 21.0447 43.0927 21.2331C38.0682 24.4155 39.5643 26.1729 32.898 29.7441Z" stroke="#0000FF" stroke-width="1.2" stroke-linecap="round"/>
<path d="M15.5 5.58826C22.2474 8.12663 23.6202 14.3717 23 28.5883C24.1116 20.0402 25.5324 15.6882 29.5 14.0883" stroke="#0000FF" stroke-width="1.2" stroke-linecap="round"/>
<path d="M12.4999 7.58827C11.2888 5.81321 11.4043 2.45807 11.4743 1.40964C11.4869 1.22113 11.6336 1.07447 11.822 1.06029C13.285 0.950148 19.3059 0.684291 20.9999 3.58827C22.1704 5.59484 21.3516 9.24599 21.0791 10.2977C21.0342 10.4711 20.8777 10.5861 20.6988 10.5778C19.3954 10.5177 14.2282 10.1212 12.4999 7.58827Z" stroke="#0000FF" stroke-width="1.2" stroke-linecap="round"/>
<path d="M33.4533 16.2723C34.6356 14.6168 34.5312 11.4972 34.4623 10.4919C34.4494 10.3035 34.3013 10.1579 34.1129 10.1444C32.6642 10.0407 26.7635 9.79597 25.1015 12.5177C23.9568 14.3924 24.7485 17.7965 25.0199 18.8016C25.0661 18.9726 25.2214 19.0862 25.3984 19.0784C26.6808 19.0218 31.7556 18.6492 33.4533 16.2723Z" stroke="#0000FF" stroke-width="1.2" stroke-linecap="round"/>
</svg>
