<svg width="48" height="48" viewBox="0 0 48 48" fill="none" xmlns="http://www.w3.org/2000/svg">
<g id="Iconly/Light/Category">
<g id="Category">
<path id="Stroke 1" fill-rule="evenodd" clip-rule="evenodd" d="M6 13C6 7.74957 6.05622 6 13 6C19.9438 6 20 7.74957 20 13C20 18.2504 20.0221 20 13 20C5.97785 20 6 18.2504 6 13Z" stroke="#0000FF" stroke-width="1.5" stroke-linecap="round" stroke-linejoin="round"/>
<path id="Stroke 3" fill-rule="evenodd" clip-rule="evenodd" d="M28 13C28 7.74957 28.0562 6 35 6C41.9438 6 42 7.74957 42 13C42 18.2504 42.0221 20 35 20C27.9779 20 28 18.2504 28 13Z" stroke="#0000FF" stroke-width="1.5" stroke-linecap="round" stroke-linejoin="round"/>
<path id="Stroke 5" fill-rule="evenodd" clip-rule="evenodd" d="M6 35C6 29.7496 6.05622 28 13 28C19.9438 28 20 29.7496 20 35C20 40.2504 20.0221 42 13 42C5.97785 42 6 40.2504 6 35Z" stroke="#0000FF" stroke-width="1.5" stroke-linecap="round" stroke-linejoin="round"/>
<path id="Stroke 7" fill-rule="evenodd" clip-rule="evenodd" d="M28 35C28 29.7496 28.0562 28 35 28C41.9438 28 42 29.7496 42 35C42 40.2504 42.0221 42 35 42C27.9779 42 28 40.2504 28 35Z" stroke="#0000FF" stroke-width="1.5" stroke-linecap="round" stroke-linejoin="round"/>
</g>
</g>
</svg>
