<svg width="44" height="44" viewBox="0 0 44 44" fill="none" xmlns="http://www.w3.org/2000/svg">
<path d="M41.7656 4.67499H2.23438C2.07486 4.67508 1.9219 4.73849 1.80911 4.85128C1.69631 4.96408 1.6329 5.11703 1.63281 5.27655V38.7262C1.63363 38.8852 1.69736 39.0375 1.81007 39.1497C1.92279 39.2619 2.07533 39.3249 2.23438 39.325H41.7656C41.9251 39.3249 42.0781 39.2615 42.1909 39.1487C42.3037 39.0359 42.3671 38.8829 42.3672 38.7234V5.27518C42.3667 5.1159 42.3032 4.96329 42.1904 4.8508C42.0777 4.7383 41.9249 4.67508 41.7656 4.67499ZM2.83594 5.87811H41.1641V9.53458H2.83594V5.87811ZM2.83594 38.1246V10.7377H41.1641V38.1219L2.83594 38.1246Z" fill="#0000FF"/>
<path d="M28.517 6.66632C28.3114 6.66632 28.1105 6.72729 27.9395 6.84151C27.7686 6.95573 27.6353 7.11808 27.5567 7.30802C27.478 7.49796 27.4574 7.70697 27.4975 7.90862C27.5376 8.11026 27.6366 8.29548 27.782 8.44086C27.9274 8.58623 28.1126 8.68524 28.3142 8.72535C28.5159 8.76545 28.7249 8.74487 28.9148 8.66619C29.1048 8.58751 29.2671 8.45428 29.3814 8.28333C29.4956 8.11239 29.5565 7.91141 29.5565 7.70582C29.5565 7.43013 29.447 7.16573 29.2521 6.97078C29.0571 6.77584 28.7927 6.66632 28.517 6.66632Z" fill="#0000FF"/>
<path d="M32.5848 6.66632C32.3792 6.66625 32.1782 6.72716 32.0072 6.84134C31.8362 6.95552 31.7029 7.11785 31.6241 7.30778C31.5454 7.49772 31.5248 7.70674 31.5649 7.90841C31.6049 8.11007 31.7039 8.29533 31.8493 8.44074C31.9946 8.58615 32.1798 8.68518 32.3815 8.72532C32.5832 8.76546 32.7922 8.74489 32.9821 8.66623C33.1721 8.58756 33.3345 8.45432 33.4487 8.28337C33.563 8.11242 33.6239 7.91143 33.6239 7.70582C33.6239 7.43019 33.5145 7.16584 33.3196 6.9709C33.1247 6.77597 32.8604 6.66641 32.5848 6.66632Z" fill="#0000FF"/>
<path d="M36.6524 6.66632C36.4468 6.66625 36.2458 6.72716 36.0748 6.84134C35.9038 6.95552 35.7705 7.11785 35.6918 7.30778C35.613 7.49772 35.5924 7.70674 35.6325 7.90841C35.6726 8.11007 35.7715 8.29533 35.9169 8.44074C36.0623 8.58615 36.2475 8.68518 36.4491 8.72532C36.6508 8.76546 36.8598 8.74489 37.0498 8.66623C37.2397 8.58756 37.4021 8.45432 37.5163 8.28337C37.6306 8.11242 37.6916 7.91143 37.6916 7.70582C37.6916 7.56933 37.6648 7.43416 37.6126 7.30805C37.5603 7.18193 37.4838 7.06734 37.3873 6.9708C37.2908 6.87427 37.1762 6.7977 37.0501 6.74545C36.924 6.69321 36.7889 6.66632 36.6524 6.66632Z" fill="#0000FF"/>
<path d="M17.9868 19.678C17.931 19.6221 17.8647 19.5777 17.7918 19.5475C17.7188 19.5172 17.6406 19.5016 17.5616 19.5016C17.4826 19.5016 17.4044 19.5172 17.3314 19.5475C17.2585 19.5777 17.1922 19.6221 17.1364 19.678L12.8089 24.0051C12.753 24.0609 12.7087 24.1272 12.6784 24.2002C12.6481 24.2732 12.6326 24.3515 12.6326 24.4305C12.6326 24.5095 12.6481 24.5877 12.6784 24.6607C12.7087 24.7337 12.753 24.8 12.8089 24.8559L17.1364 29.1844C17.2492 29.2971 17.4021 29.3605 17.5616 29.3605C17.7211 29.3605 17.8741 29.2971 17.9868 29.1844C18.0996 29.0716 18.163 28.9186 18.163 28.7592C18.163 28.5997 18.0996 28.4467 17.9868 28.3339L14.0849 24.4303L17.9868 20.5284C18.0427 20.4726 18.0871 20.4063 18.1173 20.3334C18.1476 20.2604 18.1632 20.1822 18.1632 20.1032C18.1632 20.0242 18.1476 19.946 18.1173 19.873C18.0871 19.8001 18.0427 19.7338 17.9868 19.678Z" fill="#0000FF"/>
<path d="M26.8635 19.678C26.7507 19.5652 26.5978 19.5018 26.4383 19.5018C26.2788 19.5018 26.1258 19.5652 26.013 19.678C25.9003 19.7907 25.8369 19.9437 25.8369 20.1032C25.8369 20.2627 25.9003 20.4156 26.013 20.5284L29.915 24.4303L26.013 28.3325C25.9571 28.3884 25.9127 28.4547 25.8824 28.5277C25.8521 28.6007 25.8365 28.6789 25.8364 28.758C25.8364 28.837 25.8519 28.9153 25.8821 28.9883C25.9122 29.0614 25.9565 29.1277 26.0124 29.1837C26.0682 29.2396 26.1345 29.284 26.2075 29.3143C26.2805 29.3446 26.3587 29.3602 26.4378 29.3603C26.5168 29.3603 26.5951 29.3448 26.6681 29.3147C26.7412 29.2845 26.8076 29.2402 26.8635 29.1844L31.191 24.8559C31.2469 24.8 31.2912 24.7337 31.3215 24.6607C31.3517 24.5877 31.3673 24.5095 31.3673 24.4305C31.3673 24.3515 31.3517 24.2732 31.3215 24.2002C31.2912 24.1272 31.2469 24.0609 31.191 24.0051L26.8635 19.678Z" fill="#0000FF"/>
<path d="M24.3476 15.9249C24.1938 15.8828 24.0295 15.9034 23.8908 15.9821C23.7521 16.0608 23.6503 16.1913 23.6075 16.345L19.233 32.1963C19.2111 32.2727 19.2046 32.3527 19.2138 32.4317C19.223 32.5107 19.2478 32.587 19.2867 32.6564C19.3256 32.7257 19.3779 32.7866 19.4405 32.8356C19.5031 32.8846 19.5748 32.9207 19.6514 32.9419C19.7281 32.963 19.8081 32.9687 19.887 32.9587C19.9659 32.9487 20.042 32.9232 20.1109 32.8835C20.1799 32.8439 20.2403 32.7911 20.2887 32.728C20.337 32.6649 20.3724 32.5928 20.3928 32.516L24.7673 16.6646C24.7884 16.5885 24.7942 16.509 24.7845 16.4306C24.7748 16.3522 24.7497 16.2765 24.7108 16.2078C24.6718 16.1391 24.6197 16.0788 24.5573 16.0302C24.495 15.9817 24.4238 15.9459 24.3476 15.9249Z" fill="#0000FF"/>
</svg>
