<svg width="42" height="33" viewBox="0 0 42 33" fill="none" xmlns="http://www.w3.org/2000/svg">
<path d="M24.5 26.5H11.932C11.6989 26.5 11.5153 26.6984 11.5331 26.9307L11.9141 31.8839C11.943 32.2586 11.486 32.4627 11.2263 32.1911L1.27041 21.7827C1.12011 21.6256 1.12287 21.3771 1.27663 21.2234L10.8172 11.6828C11.0691 11.4309 11.5 11.6093 11.5 11.9657V16.1C11.5 16.3209 11.6791 16.5 11.9 16.5H29.6C29.8209 16.5 30 16.6791 30 16.9V22.5343C30 22.8907 30.4309 23.0691 30.6828 22.8172L40.7234 12.7766C40.8771 12.6229 40.8799 12.3744 40.7296 12.2173L30.6891 1.72038C30.4398 1.45975 30 1.6362 30 1.99687V7.1C30 7.32091 29.8209 7.5 29.6 7.5H17.5" stroke="#0000FF" stroke-width="1.2" stroke-linecap="round"/>
</svg>
