<svg width="42" height="39" viewBox="0 0 42 39" fill="none" xmlns="http://www.w3.org/2000/svg">
<path d="M1 6V36C1 37.1046 1.89543 38 3 38H39C40.1046 38 41 37.1046 41 36V6M1 6L6.23614 20.4321C6.52316 21.2232 7.27468 21.75 8.11623 21.75H16.2381M1 6H13.381M41 6L36.6678 20.3288C36.4126 21.1727 35.635 21.75 34.7534 21.75H26.2381M41 6H28.619M16.2381 21.75V23.5C16.2381 24.0523 16.6858 24.5 17.2381 24.5H25.2381C25.7904 24.5 26.2381 24.0523 26.2381 23.5V21.75M16.2381 21.75V20C16.2381 19.4477 16.6858 19 17.2381 19H25.2381C25.7904 19 26.2381 19.4477 26.2381 20V21.75M13.381 6V3C13.381 1.89543 14.2764 1 15.381 1H26.619C27.7236 1 28.619 1.89543 28.619 3V6M13.381 6H28.619" stroke="#0000FF" stroke-width="1.2" stroke-linecap="round"/>
</svg>
