<svg width="44" height="44" viewBox="0 0 44 44" fill="none" xmlns="http://www.w3.org/2000/svg">
<path d="M12.8334 18.4937H31.1669C31.3265 18.4937 31.4795 18.4304 31.5923 18.3175C31.7051 18.2047 31.7685 18.0517 31.7685 17.8922C31.7685 17.7326 31.7051 17.5796 31.5923 17.4668C31.4795 17.354 31.3265 17.2906 31.1669 17.2906H29.9617V8.26717C29.9617 8.10762 29.8983 7.95461 29.7855 7.8418C29.6727 7.72898 29.5197 7.6656 29.3602 7.6656H27.0189V5.58557C27.0188 5.42606 26.9554 5.2731 26.8426 5.1603C26.7298 5.04751 26.5768 4.9841 26.4173 4.98401H23.471C23.3115 4.98401 23.1585 5.04739 23.0457 5.1602C22.9329 5.27302 22.8695 5.42603 22.8695 5.58557V12.8335H21.1284V8.26717C21.1284 8.10762 21.065 7.95461 20.9522 7.8418C20.8394 7.72898 20.6864 7.6656 20.5268 7.6656H17.5819C17.4224 7.66569 17.2694 7.7291 17.1566 7.8419C17.0438 7.95469 16.9804 8.10765 16.9804 8.26717V10.5325H14.6377C14.4782 10.5325 14.3251 10.5959 14.2123 10.7087C14.0995 10.8215 14.0361 10.9745 14.0361 11.134V17.2906H12.833C12.6735 17.2906 12.5205 17.354 12.4076 17.4668C12.2948 17.5796 12.2314 17.7326 12.2314 17.8922C12.2314 18.0517 12.2948 18.2047 12.4076 18.3175C12.5205 18.4304 12.6735 18.4937 12.833 18.4937H12.8334ZM28.7586 8.86873V17.2906H27.0189V8.86873H28.7586ZM24.0726 6.18748H25.8158V17.2906H24.0726V6.18748ZM22.8695 14.037V17.2906H21.1284V14.0367L22.8695 14.037ZM18.1845 8.86873H19.9263V17.2906H18.1845V8.86873ZM15.2403 11.7356H16.9814V17.2906H15.2393L15.2403 11.7356Z" fill="#141515"/>
<path d="M20.1813 29.5931H9.10254C8.94299 29.5931 8.78998 29.6565 8.67717 29.7693C8.56435 29.8821 8.50098 30.0352 8.50098 30.1947C8.50098 30.3542 8.56435 30.5073 8.67717 30.6201C8.78998 30.7329 8.94299 30.7963 9.10254 30.7963H20.1813C20.3408 30.7963 20.4938 30.7329 20.6066 30.6201C20.7194 30.5073 20.7828 30.3542 20.7828 30.1947C20.7828 30.0352 20.7194 29.8821 20.6066 29.7693C20.4938 29.6565 20.3408 29.5931 20.1813 29.5931Z" fill="#141515"/>
<path d="M9.10254 34.053H20.1806C20.3401 34.053 20.4931 33.9896 20.6059 33.8768C20.7188 33.764 20.7821 33.611 20.7821 33.4514C20.7821 33.2919 20.7188 33.1389 20.6059 33.026C20.4931 32.9132 20.3401 32.8499 20.1806 32.8499H9.10254C8.94299 32.8499 8.78999 32.9132 8.67717 33.026C8.56436 33.1389 8.50098 33.2919 8.50098 33.4514C8.50098 33.611 8.56436 33.764 8.67717 33.8768C8.78999 33.9896 8.94299 34.053 9.10254 34.053Z" fill="#141515"/>
<path d="M9.10254 37.3099H20.1806C20.3401 37.3099 20.4931 37.2466 20.6059 37.1337C20.7188 37.0209 20.7821 36.8679 20.7821 36.7084C20.7821 36.5488 20.7188 36.3958 20.6059 36.283C20.4931 36.1702 20.3401 36.1068 20.1806 36.1068H9.10254C8.94299 36.1068 8.78999 36.1702 8.67717 36.283C8.56436 36.3958 8.50098 36.5488 8.50098 36.7084C8.50098 36.8679 8.56436 37.0209 8.67717 37.1337C8.78999 37.2466 8.94299 37.3099 9.10254 37.3099Z" fill="#141515"/>
<path d="M9.10254 24.2828H20.1813C20.3408 24.2828 20.4938 24.2195 20.6066 24.1066C20.7194 23.9938 20.7828 23.8408 20.7828 23.6813C20.7828 23.5217 20.7194 23.3687 20.6066 23.2559C20.4938 23.1431 20.3408 23.0797 20.1813 23.0797H9.10254C8.94299 23.0797 8.78998 23.1431 8.67717 23.2559C8.56435 23.3687 8.50098 23.5217 8.50098 23.6813C8.50098 23.8408 8.56435 23.9938 8.67717 24.1066C8.78998 24.2195 8.94299 24.2828 9.10254 24.2828Z" fill="#141515"/>
<path d="M9.10254 27.5392H20.1806C20.3401 27.5392 20.4931 27.4758 20.6059 27.363C20.7188 27.2502 20.7821 27.0972 20.7821 26.9376C20.7821 26.7781 20.7188 26.6251 20.6059 26.5123C20.4931 26.3994 20.3401 26.3361 20.1806 26.3361H9.10254C8.94299 26.3361 8.78999 26.3994 8.67717 26.5123C8.56436 26.6251 8.50098 26.7781 8.50098 26.9376C8.50098 27.0972 8.56436 27.2502 8.67717 27.363C8.78999 27.4758 8.94299 27.5392 9.10254 27.5392Z" fill="#141515"/>
<path d="M38.7246 1.63281H5.27499C5.11569 1.63318 4.96303 1.69672 4.85051 1.80949C4.73799 1.92227 4.6748 2.07507 4.6748 2.23438V41.7656C4.6748 41.9252 4.73818 42.0782 4.851 42.191C4.96381 42.3038 5.11682 42.3672 5.27637 42.3672H38.726C38.8855 42.3672 39.0385 42.3038 39.1514 42.191C39.2642 42.0782 39.3276 41.9252 39.3276 41.7656V2.23438C39.3276 2.15526 39.312 2.07693 39.2816 2.00385C39.2513 1.93078 39.2069 1.8644 39.1509 1.80852C39.0949 1.75264 39.0284 1.70836 38.9552 1.67821C38.8821 1.64806 38.8037 1.63263 38.7246 1.63281ZM38.1231 41.1641H5.87793V2.83594H38.1217L38.1231 41.1641Z" fill="#141515"/>
<path d="M29.4711 24.1615H29.4635C29.4583 24.1615 29.4539 24.1615 29.4487 24.1615C28.4577 24.1636 27.4825 24.4098 26.6092 24.8783C25.7359 25.3467 24.9915 26.0231 24.4416 26.8476C23.8918 27.6721 23.5535 28.6193 23.4566 29.6055C23.3598 30.5918 23.5073 31.5867 23.8862 32.5024C24.2651 33.4181 24.8638 34.2264 25.6292 34.8558C26.3947 35.4853 27.3033 35.9165 28.275 36.1113C29.2466 36.3062 30.2513 36.2588 31.2003 35.9732C32.1493 35.6877 33.0133 35.1728 33.716 34.474C33.7208 34.4695 33.7263 34.4664 33.7308 34.4616C33.7418 34.4506 33.7497 34.4382 33.7597 34.4272C34.8574 33.3079 35.4787 31.8067 35.4932 30.239C35.4932 30.2242 35.4977 30.2101 35.4977 30.195C35.4967 30.1705 35.4942 30.146 35.4901 30.1218C35.4828 29.1874 35.2568 28.2677 34.8301 27.4364C34.3239 26.451 33.5559 25.6241 32.6105 25.0465C31.6652 24.4689 30.5789 24.1629 29.4711 24.1622V24.1615ZM31.6711 34.4912C31.0435 34.8136 30.3529 34.9946 29.6479 35.0216C28.9429 35.0485 28.2406 34.9207 27.5902 34.6471C26.9399 34.3735 26.3574 33.9609 25.8836 33.4381C25.4099 32.9153 25.0564 32.295 24.848 31.621C24.6396 30.9469 24.5813 30.2354 24.6774 29.5365C24.7734 28.8375 25.0213 28.1681 25.4038 27.5752C25.7862 26.9823 26.2939 26.4804 26.8911 26.1047C27.4883 25.7291 28.1605 25.4888 28.8606 25.4007V30.1947C28.8606 30.2346 28.8646 30.2744 28.8726 30.3136C28.8785 30.3391 28.8861 30.3643 28.8953 30.3889C28.8997 30.4012 28.9018 30.414 28.907 30.426C28.9194 30.4541 28.9339 30.4812 28.9503 30.5071C28.9547 30.5143 28.9575 30.5222 28.9623 30.5291C28.9842 30.562 29.0093 30.5926 29.0372 30.6206L32.4252 34.0089C32.1897 34.1925 31.9377 34.3539 31.6724 34.4912H31.6711ZM33.275 33.1567L30.9148 30.7962H34.2547C34.1489 31.6575 33.8102 32.4737 33.275 33.1567ZM33.759 27.9861C34.0163 28.4887 34.1835 29.0327 34.253 29.5931H30.0651V25.4031C30.3619 25.44 30.6548 25.5041 30.9399 25.5946C31.5448 25.7869 32.1055 26.0973 32.5896 26.5078C33.0737 26.9183 33.4715 27.4207 33.76 27.9861H33.759Z" fill="#141515"/>
</svg>
