<svg width="44" height="44" viewBox="0 0 44 44" fill="none" xmlns="http://www.w3.org/2000/svg">
<path d="M42.1908 18.6873L31.3936 7.8901C31.3378 7.8342 31.2715 7.78984 31.1985 7.75958C31.1255 7.72932 31.0473 7.71375 30.9683 7.71375C30.8892 7.71375 30.811 7.72932 30.738 7.75958C30.665 7.78984 30.5987 7.8342 30.5429 7.8901L27.3938 11.0423C27.3258 11.1104 27.2753 11.1939 27.2464 11.2857C27.2175 11.3775 27.2111 11.4748 27.2277 11.5696C26.5362 11.6731 25.8367 11.7142 25.1377 11.6923C24.2544 11.6791 23.371 11.7227 22.4933 11.8229C21.8195 11.9034 21.1591 12.0713 20.5287 12.3224C20.1797 12.4655 19.8462 12.644 19.5336 12.8552C19.481 12.8924 19.427 12.9288 19.3734 12.9652C17.9296 12.5923 16.9826 12.3245 16.3642 12.134L16.6048 11.8934C16.7176 11.7806 16.7809 11.6277 16.7809 11.4682C16.7809 11.3087 16.7176 11.1558 16.6048 11.043L13.4561 7.89079C13.3433 7.77796 13.1904 7.71453 13.0309 7.71445C12.8713 7.71453 12.7184 7.77796 12.6056 7.89079L1.80914 18.6873C1.75324 18.7431 1.7089 18.8094 1.67864 18.8823C1.64839 18.9553 1.63281 19.0335 1.63281 19.1125C1.63281 19.1915 1.64839 19.2697 1.67864 19.3427C1.7089 19.4156 1.75324 19.4819 1.80914 19.5377L4.95789 22.6875C5.01372 22.7436 5.08007 22.788 5.15312 22.8184C5.22618 22.8487 5.30451 22.8644 5.38363 22.8644C5.46274 22.8644 5.54107 22.8487 5.61413 22.8184C5.68719 22.788 5.75353 22.7436 5.80936 22.6875L6.17408 22.3231C6.85424 23.6348 7.6811 24.8651 8.63877 25.9903C8.65552 26.0145 8.67402 26.0375 8.69411 26.059L8.71783 26.0831L8.7223 26.0865C8.73605 26.1023 8.75049 26.1171 8.76492 26.1322V26.1343C8.77042 26.1405 8.77592 26.1456 8.78177 26.1518C8.85945 26.2357 8.9368 26.3117 9.01174 26.379L9.02205 26.3894C9.04302 26.4117 9.06433 26.433 9.08599 26.4529L18.2026 35.573C18.5249 35.896 18.9312 36.1224 19.3755 36.2263C19.8198 36.3303 20.2844 36.3077 20.7166 36.1612C21.1487 36.0147 21.5312 35.7501 21.8207 35.3973C22.1101 35.0446 22.295 34.6178 22.3544 34.1653C22.615 34.2566 22.8892 34.3031 23.1653 34.3028C23.746 34.3009 24.3072 34.0932 24.7493 33.7167C25.1914 33.3402 25.4858 32.8192 25.5801 32.2462C25.9264 32.3871 26.3004 32.447 26.6733 32.4213C27.0463 32.3957 27.4085 32.285 27.7322 32.0979C28.0559 31.9108 28.3325 31.6522 28.541 31.3418C28.7494 31.0314 28.8841 30.6775 28.9348 30.3071C29.3692 30.4578 29.8371 30.4833 30.2853 30.3807C30.7335 30.2781 31.1437 30.0515 31.4693 29.7268C31.6998 29.4965 31.8817 29.2221 32.004 28.9201C32.1263 28.618 32.1866 28.2944 32.1812 27.9685C34.9831 26.3529 37.0047 23.5933 37.8317 22.3283L38.1906 22.6875C38.3034 22.8001 38.4563 22.8634 38.6157 22.8634C38.775 22.8634 38.9279 22.8001 39.0407 22.6875L42.1895 19.5388C42.2454 19.483 42.2897 19.4167 42.32 19.3437C42.3502 19.2707 42.3658 19.1925 42.3658 19.1135C42.3658 19.0346 42.3502 18.9563 42.32 18.8834C42.2897 18.8104 42.2454 18.7441 42.1895 18.6883L42.1908 18.6873ZM3.08514 19.1125L13.0315 9.16645L15.3312 11.4672L14.8122 11.9859L5.89289 20.9L5.38414 21.4084L3.08514 19.1125ZM30.6206 28.875C30.3835 29.1012 30.0686 29.2275 29.741 29.2279C29.4133 29.2283 29.0981 29.1027 28.8605 28.8771L28.4659 28.4814V28.4797L28.4298 28.4453L25.058 25.0735C25.0021 25.0176 24.9358 24.9733 24.8628 24.9431C24.7898 24.9128 24.7116 24.8973 24.6326 24.8973C24.5536 24.8973 24.4754 24.9128 24.4024 24.9431C24.3294 24.9733 24.2631 25.0176 24.2072 25.0735C24.1513 25.1293 24.107 25.1957 24.0768 25.2687C24.0466 25.3416 24.031 25.4199 24.031 25.4989C24.031 25.5779 24.0466 25.6561 24.0768 25.7291C24.107 25.8021 24.1513 25.8684 24.2072 25.9243L27.4127 29.1294C27.4151 29.1321 27.4165 29.1349 27.4192 29.1376C27.4588 29.1792 27.4948 29.224 27.5268 29.2717C27.5392 29.2879 27.5515 29.3061 27.5612 29.3226C27.6054 29.3931 27.6424 29.468 27.6715 29.546C27.6844 29.5772 27.6947 29.6094 27.7025 29.6423C27.7636 29.8551 27.7667 30.0805 27.7114 30.2949C27.6561 30.5094 27.5444 30.7052 27.3879 30.8619C27.1512 31.0886 26.8361 31.2151 26.5083 31.2151C26.1805 31.2151 25.8654 31.0886 25.6286 30.8619L25.3859 30.6213L21.9061 27.137C21.7933 27.0242 21.6403 26.9608 21.4808 26.9608C21.3212 26.9608 21.1682 27.0242 21.0554 27.137C20.9425 27.2498 20.8792 27.4029 20.8792 27.5624C20.8792 27.722 20.9425 27.875 21.0554 27.9878L24.0309 30.9629C24.0353 30.9681 24.0388 30.974 24.0436 30.9788C24.1592 31.094 24.2509 31.2309 24.3133 31.3817C24.3758 31.5324 24.4078 31.6941 24.4076 31.8573C24.4073 32.0205 24.3748 32.182 24.3118 32.3326C24.2489 32.4832 24.1568 32.6198 24.0408 32.7346C23.8045 32.9614 23.4896 33.0878 23.1621 33.0874C22.8347 33.087 22.52 32.9598 22.2843 32.7326L22.1849 32.6332L18.2376 28.6856C18.1242 28.576 17.9723 28.5153 17.8145 28.5167C17.6568 28.518 17.5059 28.5812 17.3944 28.6928C17.2828 28.8043 17.2195 28.9551 17.2181 29.1129C17.2167 29.2706 17.2773 29.4226 17.3869 29.536L20.8092 32.9584L20.8113 32.9612C21.0434 33.1944 21.1738 33.51 21.1742 33.839C21.1746 34.1681 21.0449 34.4839 20.8134 34.7177C20.5763 34.9438 20.2614 35.0701 19.9338 35.0705C19.6062 35.0709 19.291 34.9453 19.0534 34.7198L9.9268 25.5898C9.91849 25.5808 9.90965 25.5723 9.90033 25.5644C9.89242 25.5561 9.86595 25.5279 9.85702 25.52C9.79136 25.4581 9.7233 25.3894 9.64802 25.3114C9.63633 25.2997 9.62533 25.2876 9.61364 25.2735L9.56895 25.2247L9.56689 25.2227C8.47927 24.0419 7.54083 22.3238 7.06199 21.4349L8.11249 20.3844L15.4093 13.0893C15.9902 13.2894 16.884 13.5506 18.0778 13.8693C17.6151 14.2017 17.1641 14.5396 16.7602 14.8741C16.6915 14.927 16.6296 14.9796 16.5742 15.0284C16.5 15.0906 16.4271 15.1546 16.3549 15.2182L16.2466 15.3127C16.1415 15.4072 16.0404 15.5049 15.9338 15.6073C15.8376 15.7032 15.7489 15.7953 15.654 15.8947L15.5447 16.0139L15.5206 16.0418C15.477 16.0923 15.434 16.1449 15.4093 16.1759C15.358 16.236 15.3123 16.2924 15.2828 16.3354C15.2209 16.4179 15.1638 16.4966 15.1298 16.5519C15.0958 16.6073 15.058 16.6605 15.0267 16.7138C14.9907 16.7723 14.9579 16.8327 14.9284 16.8946C14.8993 16.9498 14.8731 17.0065 14.85 17.0644C14.8233 17.125 14.8003 17.1871 14.7812 17.2504C14.774 17.2714 14.7699 17.2924 14.7637 17.3133L14.762 17.3199C14.7513 17.3542 14.7393 17.3907 14.7321 17.4271C14.6982 17.5802 14.6853 17.7373 14.6939 17.8939V17.9032C14.6939 17.9032 14.6939 17.9142 14.696 17.9197C14.6994 17.9647 14.7046 18.0108 14.7125 18.0572C14.7125 18.0627 14.7125 18.0682 14.7149 18.0737C14.7254 18.1318 14.7394 18.1892 14.7568 18.2456L14.7603 18.2566C14.7785 18.3138 14.8001 18.3699 14.8249 18.4247C14.8283 18.4319 14.8314 18.4391 14.8349 18.4467C14.8649 18.5107 14.8994 18.5726 14.938 18.6319L14.9397 18.6344C14.9789 18.6931 15.0216 18.7495 15.0676 18.8031C15.0803 18.8183 15.093 18.8334 15.1064 18.8482C15.1565 18.9039 15.2097 18.9568 15.2656 19.0066C15.2804 19.0197 15.2972 19.0328 15.313 19.0458C15.3653 19.0898 15.422 19.1329 15.4832 19.1751C15.5114 19.195 15.5409 19.2146 15.5715 19.2342C15.642 19.2792 15.7169 19.3236 15.7984 19.3665C15.809 19.3717 15.817 19.3779 15.8276 19.3834C15.9554 19.4475 16.0878 19.5021 16.2236 19.5467C16.2284 19.5467 16.2329 19.5511 16.2377 19.5525C16.3312 19.584 16.4264 19.6105 16.5227 19.6319L16.5715 19.6419C16.6148 19.6512 16.6581 19.6618 16.7007 19.6687C16.7152 19.6718 16.753 19.6797 16.7674 19.6818C16.875 19.6976 16.983 19.7062 17.1074 19.7161C17.5082 19.7335 17.9095 19.6971 18.3005 19.6079C18.3868 19.592 18.4697 19.57 18.5683 19.5432C18.8151 19.4786 19.058 19.3997 19.2957 19.3071C19.7564 19.1296 20.2033 18.9181 20.6325 18.6742C20.6398 18.6701 20.6453 18.6646 20.6521 18.6605C21.2637 18.3163 21.8496 17.9285 22.4053 17.5C22.4204 17.9424 22.4262 18.3545 22.429 18.6808C22.4305 18.8385 22.4938 18.9893 22.6053 19.1008L30.6212 27.1171C30.8523 27.3513 30.9817 27.6672 30.9816 27.9962C30.9815 28.3252 30.8518 28.6409 30.6206 28.875ZM31.8484 26.7675C31.7445 26.5853 31.6174 26.4174 31.4703 26.268L23.6266 18.425C23.6266 18.2964 23.6228 18.1562 23.6201 18.0125C24.6236 18.2853 25.6591 18.4224 26.699 18.4202C26.8586 18.4202 27.0116 18.3568 27.1244 18.244C27.2372 18.1312 27.3006 17.9782 27.3006 17.8186C27.3006 17.6591 27.2372 17.5061 27.1244 17.3933C27.0116 17.2805 26.8586 17.2171 26.699 17.2171C25.95 17.2274 23.6111 17.0517 22.8185 16.2948C22.7103 16.1918 22.5678 16.1327 22.4185 16.1289C22.2693 16.1251 22.1239 16.1769 22.0106 16.2742C21.4028 16.7831 20.7486 17.234 20.0568 17.621C20.0523 17.623 20.0478 17.6241 20.0437 17.6265C19.6669 17.8409 19.2746 18.0269 18.8701 18.183L18.8502 18.1906C18.6499 18.268 18.4452 18.3337 18.2373 18.3875C18.2167 18.3934 18.1957 18.3992 18.1737 18.4047C18.1225 18.4174 18.0706 18.426 18.0211 18.4367C17.8994 18.4625 17.7805 18.4807 17.667 18.4941C17.6261 18.4986 17.5852 18.5034 17.545 18.5065C17.4542 18.5137 17.3686 18.5147 17.2844 18.514C17.2102 18.514 17.1345 18.514 17.0624 18.5082H17.0545C16.971 18.4977 16.8883 18.4823 16.8066 18.4621C16.7568 18.4511 16.7062 18.4405 16.6585 18.4254C16.5687 18.3978 16.4812 18.3632 16.3969 18.3219C16.3896 18.3184 16.3807 18.3157 16.3735 18.3123C16.3539 18.3023 16.3391 18.2927 16.3223 18.2827C16.2745 18.2566 16.2277 18.2304 16.1882 18.2043C16.1648 18.1889 16.148 18.1741 16.128 18.1593C16.1003 18.1387 16.0735 18.1166 16.048 18.0933C16.0315 18.0778 16.0174 18.0627 16.004 18.0479C15.9848 18.0264 15.9675 18.0034 15.952 17.9792C15.9441 17.9664 15.9342 17.9534 15.928 17.941C15.9121 17.9086 15.902 17.8737 15.8981 17.8379C15.8981 17.831 15.8981 17.8245 15.8981 17.8179C15.8969 17.7641 15.903 17.7103 15.9163 17.6581L15.9335 17.6059C15.9387 17.5869 15.9451 17.5683 15.9527 17.5502C15.9586 17.5381 15.9634 17.5261 15.9682 17.5137C15.9765 17.4921 15.9863 17.4711 15.9974 17.4508C16.004 17.4391 16.0098 17.4268 16.0156 17.4144C16.0268 17.3907 16.0395 17.3678 16.0535 17.3456C16.0748 17.3113 16.0961 17.2769 16.1356 17.2178C16.17 17.1652 16.2078 17.1146 16.2611 17.0411C16.2814 17.0119 16.3044 16.9857 16.3443 16.9379C16.3738 16.8998 16.4061 16.8623 16.4336 16.8293L16.5368 16.7183C16.6007 16.6519 16.667 16.5839 16.7327 16.5169C16.7671 16.4825 16.7994 16.4502 16.8358 16.4165C16.8561 16.3972 16.876 16.379 16.896 16.3598C17.9468 15.4473 19.0589 14.608 20.2245 13.8476C21.5995 12.9126 23.4853 12.904 25.1498 12.8968H25.379H25.5929C25.6599 12.8968 25.7259 12.8948 25.7919 12.8937C25.8854 12.8937 25.9779 12.8906 26.0686 12.8882C26.1336 12.8865 26.1979 12.8841 26.2615 12.8817C26.3512 12.8783 26.4392 12.8734 26.5265 12.8683C26.5853 12.8649 26.6447 12.8614 26.7025 12.8569C26.8032 12.849 26.9008 12.8387 26.9971 12.8277C27.0363 12.8233 27.0772 12.8198 27.1157 12.8147C27.2439 12.7975 27.3673 12.7762 27.4869 12.7507C27.5282 12.7418 27.567 12.7304 27.6072 12.7205C27.687 12.7009 27.7654 12.6799 27.8406 12.6555C27.8853 12.6411 27.9286 12.6249 27.9716 12.6084C28.006 12.5957 28.0404 12.5854 28.0747 12.5716L36.9648 21.4614C36.3189 22.4596 34.4358 25.167 31.8484 26.7664V26.7675ZM38.6162 21.4122L28.6687 11.4672L30.9674 9.16645L40.9148 19.1125L38.6162 21.4122Z" fill="#141515"/>
</svg>
