<svg width="44" height="44" viewBox="0 0 44 44" fill="none" xmlns="http://www.w3.org/2000/svg">
<path d="M41.7656 4.67493H2.23438C2.07483 4.67493 1.92182 4.73831 1.80901 4.85112C1.69619 4.96394 1.63281 5.11694 1.63281 5.27649V38.7261C1.63354 38.8852 1.69724 39.0375 1.80998 39.1497C1.92271 39.2619 2.07531 39.3249 2.23438 39.3249H41.7656C41.9252 39.3249 42.0782 39.2615 42.191 39.1487C42.3038 39.0359 42.3672 38.8829 42.3672 38.7234V5.27511C42.3668 5.11581 42.3033 4.96315 42.1905 4.85063C42.0777 4.73812 41.9249 4.67493 41.7656 4.67493ZM2.83594 5.87805H41.1641V9.53452H2.83594V5.87805ZM2.83594 38.1245V10.7376H41.1641V38.1218L2.83594 38.1245Z" fill="#141515"/>
<path d="M28.517 6.66638C28.3114 6.66638 28.1105 6.72735 27.9395 6.84157C27.7686 6.95579 27.6353 7.11814 27.5567 7.30808C27.478 7.49803 27.4574 7.70703 27.4975 7.90868C27.5376 8.11032 27.6366 8.29554 27.782 8.44092C27.9274 8.58629 28.1126 8.6853 28.3142 8.72541C28.5159 8.76552 28.7249 8.74493 28.9148 8.66625C29.1048 8.58758 29.2671 8.45434 29.3814 8.2834C29.4956 8.11245 29.5565 7.91147 29.5565 7.70588C29.5565 7.43019 29.447 7.16579 29.2521 6.97084C29.0571 6.7759 28.7927 6.66638 28.517 6.66638Z" fill="#141515"/>
<path d="M32.5848 6.66638C32.3792 6.66631 32.1782 6.72722 32.0072 6.8414C31.8362 6.95558 31.7029 7.11791 31.6241 7.30784C31.5454 7.49778 31.5248 7.7068 31.5649 7.90847C31.6049 8.11013 31.7039 8.29539 31.8493 8.4408C31.9946 8.58621 32.1798 8.68525 32.3815 8.72538C32.5832 8.76552 32.7922 8.74495 32.9821 8.66629C33.1721 8.58762 33.3345 8.45439 33.4487 8.28343C33.563 8.11248 33.6239 7.91149 33.6239 7.70588C33.6239 7.43025 33.5145 7.1659 33.3196 6.97097C33.1247 6.77603 32.8604 6.66647 32.5848 6.66638Z" fill="#141515"/>
<path d="M36.6522 6.66638C36.4465 6.66631 36.2455 6.72722 36.0745 6.8414C35.9036 6.95558 35.7703 7.11791 35.6915 7.30784C35.6128 7.49778 35.5922 7.7068 35.6322 7.90847C35.6723 8.11013 35.7713 8.29539 35.9166 8.4408C36.062 8.58621 36.2472 8.68525 36.4489 8.72538C36.6505 8.76552 36.8596 8.74495 37.0495 8.66629C37.2395 8.58762 37.4019 8.45439 37.5161 8.28343C37.6303 8.11248 37.6913 7.91149 37.6913 7.70588C37.6914 7.56939 37.6645 7.43422 37.6123 7.30811C37.5601 7.18199 37.4836 7.0674 37.3871 6.97087C37.2906 6.87433 37.176 6.79776 37.0499 6.74552C36.9238 6.69327 36.7886 6.66638 36.6522 6.66638Z" fill="#141515"/>
<path d="M31.013 21.3812H28.9481C28.8715 21.2075 28.7898 21.0385 28.703 20.8742L30.0735 19.5033C30.1734 19.4036 30.235 19.2719 30.2476 19.1313C30.2602 18.9907 30.2229 18.8502 30.1423 18.7343C29.3336 17.5765 28.288 16.6039 27.0746 15.8812C26.9597 15.813 26.8253 15.785 26.6927 15.8017C26.5601 15.8184 26.4369 15.8788 26.3424 15.9733L24.8987 17.4171C24.788 17.3713 24.6763 17.3283 24.5635 17.2882V15.3003C24.5635 15.1629 24.5165 15.0298 24.4304 14.9228C24.3442 14.8159 24.224 14.7417 24.0898 14.7125C22.7118 14.4162 21.2865 14.4162 19.9085 14.7125C19.7743 14.7417 19.6541 14.8159 19.5679 14.9228C19.4818 15.0298 19.4348 15.1629 19.4348 15.3003V17.2906C19.322 17.3307 19.2103 17.3737 19.0996 17.4195L17.6559 15.9757C17.5615 15.8811 17.4382 15.8206 17.3056 15.804C17.173 15.7873 17.0386 15.8153 16.9237 15.8836C15.7104 16.6063 14.6647 17.5789 13.8561 18.7367C13.7754 18.8526 13.7381 18.9931 13.7507 19.1337C13.7633 19.2743 13.8249 19.406 13.9248 19.5057L15.2967 20.8742C15.2096 21.0385 15.1279 21.2075 15.0516 21.3812H12.9867C12.8548 21.3812 12.7265 21.4246 12.6217 21.5047C12.5168 21.5847 12.4412 21.697 12.4065 21.8243C12.1751 22.6736 12.0582 23.55 12.0586 24.4303C12.0591 24.9576 12.1006 25.4841 12.1827 26.005C12.205 26.1466 12.2772 26.2756 12.3861 26.3688C12.495 26.462 12.6337 26.5133 12.777 26.5134H14.702C14.7815 26.7902 14.8768 27.0622 14.9873 27.3281L14.4473 27.8674C14.4349 27.8802 14.4233 27.8929 14.4129 27.9066L13.5436 28.7763C13.4491 28.871 13.3888 28.9945 13.3722 29.1272C13.3557 29.26 13.3838 29.3945 13.4522 29.5095C14.176 30.7196 15.1473 31.7631 16.3025 32.5716C16.4184 32.6525 16.5591 32.69 16.6999 32.6774C16.8406 32.6648 16.9725 32.603 17.0722 32.5029L18.4424 31.1324C18.7622 31.3021 19.0938 31.4485 19.4348 31.5703V33.5603C19.4348 33.6976 19.4818 33.8308 19.5679 33.9377C19.6541 34.0447 19.7743 34.1189 19.9085 34.1481C21.2863 34.446 22.712 34.446 24.0898 34.1481C24.224 34.1189 24.3442 34.0447 24.4304 33.9377C24.5165 33.8308 24.5635 33.6976 24.5635 33.5603V31.5717C24.9045 31.4499 25.2361 31.3035 25.5559 31.1337L26.9261 32.5043C27.0258 32.6044 27.1577 32.6662 27.2984 32.6788C27.4392 32.6913 27.5799 32.6539 27.6958 32.573C28.851 31.7645 29.8223 30.721 30.5462 29.5109C30.6145 29.3959 30.6427 29.2614 30.6261 29.1286C30.6095 28.9959 30.5492 28.8724 30.4547 28.7777L29.5868 27.9097C29.5754 27.896 29.5634 27.8826 29.5524 27.8698L29.0123 27.3281C29.1227 27.0618 29.2178 26.7895 29.297 26.5124H31.2227C31.366 26.5122 31.5046 26.461 31.6136 26.3678C31.7225 26.2746 31.7947 26.1456 31.817 26.004C31.8991 25.4831 31.9406 24.9566 31.9411 24.4292C31.9415 23.549 31.8245 22.6726 31.5932 21.8233C31.5583 21.6962 31.4826 21.5841 31.3777 21.5043C31.2729 21.4244 31.1448 21.3812 31.013 21.3812ZM30.6936 25.3103H28.8267C28.6892 25.3103 28.5558 25.3574 28.4488 25.4438C28.3418 25.5302 28.2676 25.6506 28.2386 25.785C28.1323 26.2749 27.9686 26.7506 27.7511 27.2023C27.6973 27.3146 27.6797 27.4409 27.7007 27.5636C27.7217 27.6864 27.7802 27.7997 27.8683 27.8877L28.6648 28.6835C28.6756 28.6972 28.687 28.7103 28.6992 28.7227L29.2629 29.2868C28.7522 30.0453 28.1268 30.7198 27.4091 31.2864L26.0812 29.9585C25.9857 29.863 25.8609 29.8025 25.7268 29.7866C25.5928 29.7707 25.4573 29.8004 25.3421 29.8708C24.8598 30.1677 24.3394 30.3978 23.7953 30.5549C23.67 30.5912 23.5599 30.6673 23.4816 30.7716C23.4033 30.876 23.361 31.0029 23.3611 31.1334V33.0615C22.4592 33.2038 21.5405 33.2038 20.6386 33.0615V31.1334C20.6386 31.0027 20.596 30.8755 20.5173 30.7711C20.4386 30.6668 20.328 30.5909 20.2024 30.5549C19.6582 30.3978 19.1378 30.1677 18.6555 29.8708C18.5403 29.8004 18.4048 29.7707 18.2708 29.7866C18.1367 29.8025 18.0119 29.863 17.9164 29.9585L16.5892 31.2864C15.8715 30.72 15.2461 30.0457 14.7354 29.2875L15.2991 28.7234C15.3115 28.711 15.3232 28.6979 15.3335 28.6845L16.1303 27.8884C16.2184 27.8003 16.277 27.6871 16.298 27.5643C16.319 27.4416 16.3014 27.3153 16.2475 27.203C16.03 26.7513 15.8664 26.2756 15.7601 25.7857C15.7312 25.6513 15.6572 25.5309 15.5504 25.4444C15.4436 25.3579 15.3104 25.3106 15.173 25.3103H13.3061C13.2765 25.0153 13.2617 24.7211 13.2617 24.4303C13.2614 23.8097 13.3274 23.1909 13.4587 22.5843H15.4548C15.577 22.5847 15.6964 22.5478 15.7971 22.4787C15.8978 22.4096 15.975 22.3114 16.0186 22.1973C16.1647 21.8113 16.3461 21.4396 16.5607 21.087C16.6313 20.9718 16.661 20.8362 16.6451 20.7021C16.6292 20.5679 16.5686 20.443 16.473 20.3476L15.1451 19.0193C15.7119 18.3006 16.3878 17.675 17.1482 17.1655L18.5424 18.5625C18.6307 18.6509 18.7444 18.7095 18.8676 18.7303C18.9909 18.7511 19.1175 18.7329 19.2299 18.6783C19.5429 18.5269 19.8682 18.4025 20.2024 18.3064C20.3282 18.2705 20.4389 18.1945 20.5176 18.0899C20.5964 17.9854 20.6388 17.858 20.6386 17.7272V15.7991C21.5405 15.6571 22.4591 15.6571 23.3611 15.7991V17.7272C23.3611 17.8578 23.4036 17.9849 23.4822 18.0892C23.5609 18.1935 23.6714 18.2694 23.797 18.3053C24.1311 18.4015 24.4564 18.5259 24.7694 18.6773C24.8818 18.7321 25.0085 18.7503 25.1318 18.7296C25.255 18.7088 25.3687 18.65 25.4569 18.5614L26.8529 17.1655C27.6133 17.675 28.2891 18.3006 28.8559 19.0193L27.528 20.3476C27.4325 20.443 27.3719 20.5679 27.356 20.7021C27.3401 20.8362 27.3698 20.9718 27.4404 21.087C27.6549 21.4396 27.8364 21.8113 27.9825 22.1973C28.0259 22.3112 28.103 22.4092 28.2034 22.4783C28.3039 22.5474 28.4229 22.5844 28.5448 22.5843H30.541C30.6723 23.1909 30.7383 23.8097 30.738 24.4303C30.738 24.7211 30.7232 25.0153 30.6936 25.3103Z" fill="#141515"/>
<path d="M22.0003 20.0234C21.1286 20.0234 20.2765 20.2818 19.5517 20.766C18.8269 21.2503 18.2619 21.9386 17.9283 22.7439C17.5947 23.5493 17.5074 24.4354 17.6774 25.2904C17.8475 26.1453 18.2672 26.9307 18.8836 27.547C19.5 28.1634 20.2853 28.5832 21.1403 28.7532C21.9952 28.9233 22.8814 28.836 23.6867 28.5023C24.4921 28.1687 25.1804 27.6038 25.6646 26.879C26.1489 26.1541 26.4073 25.302 26.4072 24.4303C26.4059 23.2619 25.9412 22.1418 25.1151 21.3156C24.2889 20.4894 23.1687 20.0247 22.0003 20.0234ZM22.0003 27.6344C21.3666 27.6345 20.7471 27.4466 20.2201 27.0946C19.6932 26.7426 19.2825 26.2422 19.0399 25.6567C18.7973 25.0712 18.7338 24.427 18.8574 23.8054C18.981 23.1839 19.2861 22.6129 19.7342 22.1648C20.1823 21.7167 20.7532 21.4115 21.3748 21.2878C21.9963 21.1642 22.6406 21.2276 23.2261 21.4701C23.8116 21.7126 24.312 22.1233 24.6641 22.6502C25.0162 23.1771 25.2041 23.7966 25.2041 24.4303C25.2033 25.2798 24.8655 26.0942 24.2648 26.6949C23.6642 27.2956 22.8498 27.6335 22.0003 27.6344Z" fill="#141515"/>
</svg>
